CommonSerif-SemiBoldItalic.ufo
<glyph name="numbersign" format="2">
  <advance width="489"/>
  <unicode hex="0023"/>
  <outline>
    <contour>
      <point x="403.333" y="353.667" type="line"/>
      <point x="507.333" y="353.667" type="line"/>
      <point x="527.333" y="414" type="line"/>
      <point x="424" y="414" type="line"/>
      <point x="484.333" y="586" type="line"/>
      <point x="441.333" y="586" type="line"/>
      <point x="423.333" y="537.667"/>
      <point x="397.666" y="462.333"/>
      <point x="379.666" y="414" type="curve"/>
      <point x="282.333" y="414" type="line"/>
      <point x="344.666" y="586" type="line"/>
      <point x="298.666" y="586" type="line"/>
      <point x="281" y="537.667"/>
      <point x="254.333" y="462"/>
      <point x="237.333" y="414" type="curve"/>
      <point x="144.333" y="414" type="line"/>
      <point x="123.666" y="353.667" type="line"/>
      <point x="216.333" y="353.667" type="line"/>
      <point x="205.666" y="322.667"/>
      <point x="189.666" y="276.667"/>
      <point x="178.333" y="245.667" type="curve"/>
      <point x="85.333" y="245.667" type="line"/>
      <point x="65.333" y="185.667" type="line"/>
      <point x="157.333" y="185.667" type="line"/>
      <point x="96.666" y="13.667" type="line"/>
      <point x="142.333" y="13.667" type="line"/>
      <point x="160.333" y="62"/>
      <point x="185.333" y="135.667"/>
      <point x="204" y="185.667" type="curve"/>
      <point x="301.333" y="185.667" type="line"/>
      <point x="239.666" y="13.667" type="line"/>
      <point x="284" y="13.667" type="line"/>
      <point x="301.333" y="61.667"/>
      <point x="326.666" y="135.667"/>
      <point x="345.333" y="185.667" type="curve"/>
      <point x="449.333" y="185.667" type="line"/>
      <point x="469" y="245.667" type="line"/>
      <point x="365" y="245.667" type="line"/>
    </contour>
    <contour>
      <point x="321" y="245.667" type="line"/>
      <point x="224" y="245.667" type="line"/>
      <point x="235.333" y="276.667"/>
      <point x="252.333" y="322.667"/>
      <point x="263.666" y="353.667" type="curve"/>
      <point x="359" y="353.667" type="line"/>
    </contour>
  </outline>
</glyph>
<glyph name="percent" format="2">
  <advance width="637"/>
  <unicode hex="0025"/>
  <outline>
    <contour>
      <point x="169.333" y="347" type="curve"/>
      <point x="196.667" y="319.667"/>
      <point x="225" y="333"/>
      <point x="263" y="356" type="curve"/>
      <point x="320.333" y="358.667"/>
      <point x="374" y="422.333"/>
      <point x="373.333" y="483" type="curve"/>
      <point x="379.667" y="483.333"/>
      <point x="392.333" y="484"/>
      <point x="399.667" y="488" type="curve"/>
      <point x="420" y="481.333"/>
      <point x="449" y="476.333"/>
      <point x="475.333" y="481.667" type="curve"/>
      <point x="475.692" y="460.193"/>
      <point x="404.836" y="352.04"/>
      <point x="403.333" y="329.667" type="curve"/>
      <point x="115.667" y="-7.33333" type="line"/>
      <point x="307.667" y="172" type="line"/>
      <point x="634" y="555" type="line"/>
      <point x="615.463" y="542.89"/>
      <point x="574.734" y="549.214"/>
      <point x="557.333" y="551" type="curve"/>
      <point x="519.333" y="521.667"/>
      <point x="465" y="517.667"/>
      <point x="421" y="526" type="curve"/>
      <point x="397" y="531.333"/>
      <point x="357.333" y="542.333"/>
      <point x="335.667" y="552.333" type="curve"/>
      <point x="299" y="563"/>
      <point x="268.667" y="536.667"/>
      <point x="254.667" y="511.667" type="curve"/>
      <point x="190" y="493"/>
      <point x="148.667" y="408.333"/>
    </contour>
    <contour>
      <point x="426.667" y="126.667" type="curve"/>
      <point x="402" y="93.3333"/>
      <point x="396" y="42.3333"/>
      <point x="428" y="17" type="curve"/>
      <point x="495.333" y="-1"/>
      <point x="555" y="63.6667"/>
      <point x="574.667" y="124.333" type="curve"/>
      <point x="602.333" y="150.333"/>
      <point x="599" y="196"/>
      <point x="576.333" y="219" type="curve"/>
      <point x="509" y="236.667"/>
      <point x="446" y="193.333"/>
    </contour>
    <contour>
      <point x="454.333" y="57.6667" type="curve" smooth="yes"/>
      <point x="454.333" y="101.333"/>
      <point x="492.667" y="216"/>
      <point x="547.333" y="216" type="curve" smooth="yes"/>
      <point x="570.333" y="216"/>
      <point x="579" y="190.333"/>
      <point x="579" y="168.333" type="curve" smooth="yes"/>
      <point x="579" y="127.333"/>
      <point x="532.667" y="16.6667"/>
      <point x="482.667" y="16.6667" type="curve" smooth="yes"/>
      <point x="463.333" y="16.6667"/>
      <point x="454.333" y="36.6667"/>
    </contour>
    <contour>
      <point x="212" y="373.333" type="curve" smooth="yes"/>
      <point x="212" y="416.667"/>
      <point x="250.333" y="531.667"/>
      <point x="305" y="531.667" type="curve" smooth="yes"/>
      <point x="328.333" y="531.667"/>
      <point x="336.667" y="506.333"/>
      <point x="336.667" y="484.333" type="curve" smooth="yes"/>
      <point x="336.667" y="442.333"/>
      <point x="290.333" y="332.667"/>
      <point x="240.667" y="332.667" type="curve" smooth="yes"/>
      <point x="221" y="332.667"/>
      <point x="212" y="351.667"/>
    </contour>
  </outline>
</glyph>
<glyph name="ampersand" format="2">
  <advance width="721"/>
  <unicode hex="0026"/>
  <outline>
    <contour>
      <point x="603.333" y="365" type="curve"/>
      <point x="592" y="337"/>
      <point x="541" y="271.333"/>
      <point x="481" y="203.333" type="curve"/>
      <point x="476" y="203.333"/>
      <point x="469.667" y="207.666"/>
      <point x="466" y="215" type="curve" smooth="yes"/>
      <point x="422.667" y="302.666"/>
      <point x="406.667" y="343.333"/>
      <point x="398.333" y="368" type="curve"/>
      <point x="396.667" y="371"/>
      <point x="396.333" y="372.667"/>
      <point x="395" y="375.333" type="curve"/>
      <point x="476.333" y="415"/>
      <point x="555.333" y="465.333"/>
      <point x="571" y="536" type="curve"/>
      <point x="573" y="543"/>
      <point x="573.333" y="551"/>
      <point x="573.333" y="558" type="curve"/>
      <point x="572" y="605"/>
      <point x="536" y="648.666"/>
      <point x="468.333" y="650.333" type="curve"/>
      <point x="463.333" y="650.666"/>
      <point x="458.667" y="650.666"/>
      <point x="453.667" y="650.666" type="curve"/>
      <point x="402" y="648.666"/>
      <point x="348.667" y="628.333"/>
      <point x="315.667" y="595.666" type="curve" smooth="yes"/>
      <point x="285.333" y="566.333"/>
      <point x="264.333" y="529.333"/>
      <point x="258.333" y="496" type="curve"/>
      <point x="257.666" y="494"/>
      <point x="257.666" y="492"/>
      <point x="257" y="490" type="curve"/>
      <point x="250.333" y="449.333"/>
      <point x="259" y="414"/>
      <point x="286" y="358.333" type="curve"/>
      <point x="144.333" y="289.666"/>
      <point x="86.666" y="226"/>
      <point x="73.333" y="148" type="curve" smooth="yes"/>
      <point x="71.666" y="138.333"/>
      <point x="70.333" y="129"/>
      <point x="70.333" y="119.666" type="curve"/>
      <point x="68.333" y="79.333"/>
      <point x="79.666" y="47.666"/>
      <point x="102.333" y="26.999" type="curve" smooth="yes"/>
      <point x="130.333" y="1"/>
      <point x="175.333" y="-9"/>
      <point x="224" y="-9.667" type="curve"/>
      <point x="229.333" y="-9.667"/>
      <point x="234.333" y="-9.667"/>
      <point x="239.333" y="-9.667" type="curve"/>
      <point x="313.333" y="-7"/>
      <point x="371.667" y="27.666"/>
      <point x="421.333" y="75.333" type="curve"/>
      <point x="430.667" y="54.999"/>
      <point x="441.667" y="40.333"/>
      <point x="453" y="28.666" type="curve"/>
      <point x="476" y="2.666"/>
      <point x="502" y="-5.334"/>
      <point x="526" y="-7.667" type="curve" smooth="yes"/>
      <point x="541.333" y="-9.334"/>
      <point x="555.666" y="-7.667"/>
      <point x="570.333" y="-4.334" type="curve" smooth="yes"/>
      <point x="600" y="3"/>
      <point x="633.333" y="26.999"/>
      <point x="665" y="71.999" type="curve"/>
      <point x="661" y="82.333"/>
      <point x="652" y="92.999"/>
      <point x="644.666" y="93.999" type="curve"/>
      <point x="618" y="59.333"/>
      <point x="596.666" y="49.666"/>
      <point x="575" y="48.999" type="curve"/>
      <point x="572.333" y="48.999"/>
      <point x="569.333" y="48.999"/>
      <point x="566.333" y="49.333" type="curve" smooth="yes"/>
      <point x="549" y="51.333"/>
      <point x="533.333" y="72.999"/>
      <point x="519.333" y="103.666" type="curve"/>
      <point x="511" y="120.666"/>
      <point x="504.333" y="139"/>
      <point x="496.667" y="156" type="curve"/>
      <point x="557.333" y="231"/>
      <point x="640.333" y="336.333"/>
      <point x="651" y="348.333" type="curve" smooth="yes"/>
      <point x="674.666" y="376.333"/>
      <point x="692" y="392"/>
      <point x="711" y="396.667" type="curve" smooth="yes"/>
      <point x="718.666" y="398.667"/>
      <point x="726.666" y="400"/>
      <point x="734.333" y="400" type="curve" smooth="yes"/>
      <point x="739.666" y="400"/>
      <point x="744.666" y="403.333"/>
      <point x="745.666" y="408.667" type="curve" smooth="yes"/>
      <point x="750" y="429.333" type="line"/>
      <point x="749" y="431.333" type="line"/>
      <point x="749" y="431.333"/>
      <point x="703" y="429.666"/>
      <point x="672.333" y="429.333" type="curve"/>
      <point x="667" y="429.333"/>
      <point x="661.333" y="429.333"/>
      <point x="655.666" y="429.333" type="curve"/>
      <point x="620.333" y="430"/>
      <point x="574.333" y="431.333"/>
      <point x="574.333" y="431.333" type="curve"/>
      <point x="570.333" y="428.666" type="line"/>
      <point x="566" y="407" type="line"/>
      <point x="565.666" y="404"/>
      <point x="567" y="400"/>
      <point x="571" y="400" type="curve"/>
      <point x="580.333" y="399.333"/>
      <point x="589.333" y="398.667"/>
      <point x="596.666" y="396.667" type="curve"/>
      <point x="608.333" y="392.667"/>
      <point x="612.666" y="382.667"/>
    </contour>
    <contour>
      <point x="301" y="324.667" type="curve"/>
      <point x="313.667" y="290.333"/>
      <point x="364" y="180.333"/>
      <point x="399" y="113.999" type="curve"/>
      <point x="349.333" y="60.666"/>
      <point x="312.667" y="32.999"/>
      <point x="263" y="29.666" type="curve"/>
      <point x="256.333" y="28.999"/>
      <point x="250.666" y="29.333"/>
      <point x="244" y="29.666" type="curve" smooth="yes"/>
      <point x="209.333" y="31.999"/>
      <point x="182" y="69.333"/>
      <point x="180" y="124" type="curve"/>
      <point x="180" y="140.666"/>
      <point x="181.667" y="158"/>
      <point x="185.333" y="173.666" type="curve" smooth="yes"/>
      <point x="199.667" y="233"/>
      <point x="237.666" y="281.333"/>
    </contour>
    <contour>
      <point x="362" y="525.333" type="curve"/>
      <point x="364" y="546.666"/>
      <point x="370" y="562.333"/>
      <point x="382.333" y="579.333" type="curve"/>
      <point x="397" y="601"/>
      <point x="420.333" y="611"/>
      <point x="438.667" y="611.666" type="curve"/>
      <point x="441.667" y="612"/>
      <point x="445" y="612"/>
      <point x="448" y="611.333" type="curve"/>
      <point x="473.667" y="608.666"/>
      <point x="489.333" y="589"/>
      <point x="492" y="561.333" type="curve" smooth="yes"/>
      <point x="492.667" y="552"/>
      <point x="492.667" y="540.333"/>
      <point x="488.667" y="526.333" type="curve" smooth="yes"/>
      <point x="479.667" y="492.333"/>
      <point x="439" y="451.333"/>
      <point x="381.333" y="413.333" type="curve"/>
      <point x="380.333" y="416"/>
      <point x="378.333" y="419"/>
      <point x="377.333" y="421.666" type="curve" smooth="yes"/>
      <point x="363.333" y="458.333"/>
      <point x="358.667" y="504.666"/>
    </contour>
  </outline>
</glyph>
<glyph name="quotesingle" format="2">
  <advance width="207"/>
  <unicode hex="0027"/>
  <outline>
    <contour>
      <point x="149.333" y="420" type="line"/>
      <point x="209.333" y="548.667" type="line"/>
      <point x="213.885" y="573.651"/>
      <point x="221.798" y="621.113"/>
      <point x="211" y="633.667" type="curve"/>
      <point x="184.333" y="640.667"/>
      <point x="164.667" y="624"/>
      <point x="153.333" y="608.667" type="curve"/>
      <point x="142.76" y="588.71"/>
      <point x="129.85" y="502.361"/>
      <point x="128" y="474.667" type="curve"/>
    </contour>
  </outline>
</glyph>
<glyph name="comma" format="2">
  <advance width="236"/>
  <unicode hex="002C"/>
  <outline>
    <contour>
      <point x="132.333" y="116.334" type="curve" smooth="yes"/>
      <point x="94.666" y="116.334"/>
      <point x="68.333" y="89.667"/>
      <point x="68.333" y="53.667" type="curve" smooth="yes"/>
      <point x="68.333" y="-7.333"/>
      <point x="124.333" y="9.334"/>
      <point x="124.333" y="-22" type="curve" smooth="yes"/>
      <point x="124.333" y="-55.333"/>
      <point x="50.666" y="-117.666"/>
      <point x="11.666" y="-127" type="curve"/>
      <point x="5.333" y="-138.666"/>
      <point x="5" y="-148"/>
      <point x="14.333" y="-155.333" type="curve"/>
      <point x="108" y="-139.666"/>
      <point x="196.333" y="-52.333"/>
      <point x="196.333" y="45.667" type="curve" smooth="yes"/>
      <point x="196.333" y="91.667"/>
      <point x="169.333" y="116.334"/>
    </contour>
  </outline>
</glyph>
<glyph name="hyphen" format="2">
  <advance width="350"/>
  <unicode hex="002D"/>
  <outline>
    <contour>
      <point x="322.667" y="217.667" type="line" smooth="yes"/>
      <point x="343" y="217.667"/>
      <point x="365.667" y="258.667"/>
      <point x="365.667" y="272.334" type="curve" smooth="yes"/>
      <point x="365.667" y="282.001"/>
      <point x="359.334" y="290.334"/>
      <point x="338" y="290.334" type="curve" smooth="yes"/>
      <point x="128.333" y="290.334" type="line" smooth="yes"/>
      <point x="111" y="290.334"/>
      <point x="87" y="254.334"/>
      <point x="87" y="237.334" type="curve" smooth="yes"/>
      <point x="87" y="227.334"/>
      <point x="96.667" y="217.667"/>
      <point x="115" y="217.667" type="curve" smooth="yes"/>
    </contour>
  </outline>
</glyph>
<glyph name="period" format="2">
  <advance width="224"/>
  <unicode hex="002E"/>
  <outline>
    <contour>
      <point x="45.667" y="41" type="curve" smooth="yes"/>
      <point x="45.667" y="11.667"/>
      <point x="68.334" y="-10.333"/>
      <point x="100.334" y="-10.333" type="curve" smooth="yes"/>
      <point x="141.333" y="-10.333"/>
      <point x="181" y="25.667"/>
      <point x="181" y="66.334" type="curve" smooth="yes"/>
      <point x="181" y="96"/>
      <point x="158.333" y="117.667"/>
      <point x="126.333" y="117.667" type="curve" smooth="yes"/>
      <point x="85.667" y="117.667"/>
      <point x="45.667" y="80"/>
    </contour>
  </outline>
</glyph>
<glyph name="zero" format="2">
  <advance width="491"/>
  <unicode hex="0030"/>
  <outline>
    <contour>
      <point x="244.001" y="-10" type="curve" smooth="yes"/>
      <point x="433.291" y="-10"/>
      <point x="527" y="265.862"/>
      <point x="527" y="417.333" type="curve" smooth="yes"/>
      <point x="527" y="547.666"/>
      <point x="461.667" y="610"/>
      <point x="377" y="610" type="curve" smooth="yes"/>
      <point x="191.518" y="610"/>
      <point x="95.667" y="343.682"/>
      <point x="95.667" y="194" type="curve" smooth="yes"/>
      <point x="95.667" y="82"/>
      <point x="140.667" y="-10"/>
    </contour>
    <contour>
      <point x="253.001" y="29.333" type="curve" smooth="yes"/>
      <point x="208.077" y="29.333"/>
      <point x="198.334" y="78.279"/>
      <point x="198.334" y="125.666" type="curve" smooth="yes"/>
      <point x="198.334" y="209.835"/>
      <point x="255.161" y="569.333"/>
      <point x="368.333" y="569.333" type="curve" smooth="yes"/>
      <point x="416.131" y="569.333"/>
      <point x="421" y="498.684"/>
      <point x="421" y="465" type="curve" smooth="yes"/>
      <point x="421" y="388.285"/>
      <point x="365.66" y="29.333"/>
    </contour>
  </outline>
</glyph>
<glyph name="one" format="2">
  <advance width="491"/>
  <unicode hex="0031"/>
  <outline>
    <contour>
      <point x="353.334" y="107" type="curve" smooth="yes"/>
      <point x="432.001" y="484.667" type="line" smooth="yes"/>
      <point x="441.667" y="533.333"/>
      <point x="457.667" y="584.333"/>
      <point x="460.334" y="597.333" type="curve" smooth="yes"/>
      <point x="462.334" y="606.667"/>
      <point x="457.001" y="610"/>
      <point x="450.667" y="610" type="curve" smooth="yes"/>
      <point x="449.001" y="610"/>
      <point x="446.667" y="610"/>
      <point x="444.334" y="609" type="curve"/>
      <point x="437.001" y="606.667"/>
      <point x="429.001" y="603.667"/>
      <point x="419.334" y="599.333" type="curve" smooth="yes"/>
      <point x="415.001" y="597.333"/>
      <point x="410.001" y="595.667"/>
      <point x="405.001" y="593" type="curve"/>
      <point x="349.001" y="566.667"/>
      <point x="283.667" y="542"/>
      <point x="198.667" y="510" type="curve"/>
      <point x="196.667" y="495"/>
      <point x="199.667" y="481.333"/>
      <point x="208.667" y="471.667" type="curve"/>
      <point x="255" y="490"/>
      <point x="289" y="493"/>
      <point x="305.001" y="493.667" type="curve"/>
      <point x="306.001" y="493.667"/>
      <point x="307.001" y="493.667"/>
      <point x="308.001" y="493.667" type="curve"/>
      <point x="317.334" y="493.667"/>
      <point x="323.001" y="489.333"/>
      <point x="321.001" y="469.333" type="curve" smooth="yes"/>
      <point x="320.334" y="461"/>
      <point x="319.001" y="452.667"/>
      <point x="316.334" y="439.667" type="curve" smooth="yes"/>
      <point x="249.667" y="116.667" type="line"/>
      <point x="247.667" y="107" type="line" smooth="yes"/>
      <point x="237.334" y="59"/>
      <point x="213" y="41"/>
      <point x="176.334" y="34.667" type="curve" smooth="yes"/>
      <point x="163" y="32.333"/>
      <point x="149" y="31.667"/>
      <point x="134.334" y="30.667" type="curve"/>
      <point x="125.667" y="25.333"/>
      <point x="122.334" y="5.333"/>
      <point x="129" y="-1.667" type="curve"/>
      <point x="184.667" y="-0.667"/>
      <point x="237" y="0"/>
      <point x="280.334" y="0" type="curve" smooth="yes"/>
      <point x="321.667" y="0"/>
      <point x="370.334" y="-0.667"/>
      <point x="426.334" y="-1.667" type="curve"/>
      <point x="435.001" y="3.667"/>
      <point x="438.334" y="25"/>
      <point x="432.001" y="30.667" type="curve"/>
      <point x="417.001" y="31.667"/>
      <point x="402.667" y="32.333"/>
      <point x="389.667" y="35.333" type="curve"/>
      <point x="357.667" y="41.667"/>
      <point x="343.667" y="61.333"/>
    </contour>
  </outline>
</glyph>
<glyph name="three" format="2">
  <advance width="491"/>
  <unicode hex="0033"/>
  <outline>
    <contour>
      <point x="327.667" y="559.667" type="curve" smooth="yes"/>
      <point x="366.667" y="559.667"/>
      <point x="399.667" y="530.667"/>
      <point x="399.667" y="489.334" type="curve" smooth="yes"/>
      <point x="399.667" y="429.667"/>
      <point x="370.667" y="387"/>
      <point x="310" y="356.667" type="curve" smooth="yes"/>
      <point x="283.667" y="343.667"/>
      <point x="255" y="336.667"/>
      <point x="227" y="333" type="curve"/>
      <point x="223.667" y="296.333" type="line"/>
      <point x="240" y="298"/>
      <point x="254.334" y="298.666"/>
      <point x="266.334" y="298.666" type="curve"/>
      <point x="269.667" y="299"/>
      <point x="274" y="299"/>
      <point x="278" y="298.333" type="curve"/>
      <point x="321.334" y="295"/>
      <point x="372.667" y="265.666"/>
      <point x="372.667" y="192.333" type="curve" smooth="yes"/>
      <point x="372.667" y="148.667"/>
      <point x="356.667" y="110.333"/>
      <point x="333" y="81.667" type="curve" smooth="yes"/>
      <point x="307" y="51"/>
      <point x="272.334" y="31.334"/>
      <point x="237.667" y="29" type="curve"/>
      <point x="227.667" y="28.667"/>
      <point x="219.334" y="29.667"/>
      <point x="211" y="31.667" type="curve" smooth="yes"/>
      <point x="187" y="37.667"/>
      <point x="170.667" y="51.667"/>
      <point x="163" y="63.667" type="curve" smooth="yes"/>
      <point x="152.667" y="80"/>
      <point x="140.334" y="102.667"/>
      <point x="108" y="102.667" type="curve" smooth="yes"/>
      <point x="81.334" y="102.667"/>
      <point x="63.334" y="79.667"/>
      <point x="61.334" y="57.667" type="curve"/>
      <point x="60.667" y="53.667"/>
      <point x="60.334" y="50.334"/>
      <point x="61" y="46.334" type="curve"/>
      <point x="63" y="37"/>
      <point x="70" y="29"/>
      <point x="81" y="21.667" type="curve"/>
      <point x="108" y="5"/>
      <point x="160" y="-8"/>
      <point x="201.667" y="-10" type="curve"/>
      <point x="206.667" y="-10"/>
      <point x="211" y="-10"/>
      <point x="215.334" y="-10" type="curve"/>
      <point x="282" y="-8.667"/>
      <point x="356.667" y="8.333"/>
      <point x="411.667" y="63.667" type="curve" smooth="yes"/>
      <point x="451.001" y="103.333"/>
      <point x="481.001" y="147.333"/>
      <point x="482.334" y="216" type="curve"/>
      <point x="482.334" y="220.333"/>
      <point x="482.334" y="225"/>
      <point x="481.667" y="229.333" type="curve"/>
      <point x="478.334" y="287.333"/>
      <point x="440.667" y="331.333"/>
      <point x="382.334" y="348.667" type="curve"/>
      <point x="382.334" y="350.667" type="line"/>
      <point x="457.334" y="393.333"/>
      <point x="493.334" y="431.667"/>
      <point x="496" y="491.667" type="curve"/>
      <point x="496.667" y="499"/>
      <point x="496.334" y="506"/>
      <point x="495.667" y="513.667" type="curve"/>
      <point x="489.667" y="554.334"/>
      <point x="451.001" y="604"/>
      <point x="376.667" y="609.333" type="curve"/>
      <point x="370" y="610"/>
      <point x="363.667" y="610"/>
      <point x="357.334" y="610" type="curve"/>
      <point x="291.334" y="608.667"/>
      <point x="240.667" y="578.667"/>
      <point x="206" y="551" type="curve"/>
      <point x="202.667" y="547.667"/>
      <point x="199.334" y="545"/>
      <point x="196" y="542.334" type="curve"/>
      <point x="168.667" y="518.667"/>
      <point x="150.667" y="496.334"/>
      <point x="150.667" y="473.667" type="curve" smooth="yes"/>
      <point x="150.667" y="455.667"/>
      <point x="161" y="443"/>
      <point x="178" y="440.333" type="curve"/>
      <point x="180.667" y="439.667"/>
      <point x="183.334" y="439"/>
      <point x="186.667" y="439" type="curve" smooth="yes"/>
      <point x="217" y="439"/>
      <point x="233.334" y="469"/>
      <point x="240.334" y="494.667" type="curve"/>
      <point x="241.334" y="499.667"/>
      <point x="242.667" y="504.334"/>
      <point x="243.667" y="508.334" type="curve"/>
      <point x="256.334" y="551"/>
      <point x="298" y="559.667"/>
    </contour>
  </outline>
</glyph>
<glyph name="four" format="2">
  <advance width="491"/>
  <unicode hex="0034"/>
  <outline>
    <contour>
      <point x="491" y="210.333" type="curve" smooth="yes"/>
      <point x="403.667" y="210.333" type="line"/>
      <point x="466.333" y="512.666" type="line" smooth="yes"/>
      <point x="474.333" y="551.666"/>
      <point x="481.333" y="585.333"/>
      <point x="487" y="610" type="curve"/>
      <point x="455" y="610" type="line" smooth="yes"/>
      <point x="440" y="610"/>
      <point x="422.333" y="606"/>
      <point x="409.667" y="604.333" type="curve"/>
      <point x="310.667" y="487"/>
      <point x="189.333" y="342"/>
      <point x="81.667" y="222" type="curve"/>
      <point x="78.333" y="218"/>
      <point x="72.667" y="213"/>
      <point x="71.333" y="209" type="curve"/>
      <point x="70.333" y="199"/>
      <point x="82" y="178.333"/>
      <point x="89.667" y="170.667" type="curve"/>
      <point x="93" y="166.667"/>
      <point x="96.667" y="165"/>
      <point x="114" y="165" type="curve" smooth="yes"/>
      <point x="295" y="165" type="line"/>
      <point x="284" y="112.333" type="line"/>
      <point x="283" y="107" type="line" smooth="yes"/>
      <point x="273.667" y="63"/>
      <point x="254" y="44.667"/>
      <point x="228.667" y="37" type="curve" smooth="yes"/>
      <point x="215" y="32.667"/>
      <point x="200.333" y="31.333"/>
      <point x="183.333" y="30.333" type="curve"/>
      <point x="174.667" y="25"/>
      <point x="171.333" y="4.667"/>
      <point x="178" y="-2" type="curve"/>
      <point x="238" y="-1"/>
      <point x="268" y="0"/>
      <point x="304.667" y="0" type="curve" smooth="yes"/>
      <point x="311.667" y="0"/>
      <point x="319" y="0"/>
      <point x="327" y="0" type="curve" smooth="yes"/>
      <point x="359.333" y="0"/>
      <point x="391.333" y="-1"/>
      <point x="441.333" y="-2" type="curve"/>
      <point x="449.667" y="3.333"/>
      <point x="453.333" y="24.667"/>
      <point x="447" y="30.333" type="curve"/>
      <point x="437" y="31.333"/>
      <point x="426.667" y="31.333"/>
      <point x="418" y="33" type="curve"/>
      <point x="393.667" y="36.333"/>
      <point x="379.667" y="47.333"/>
      <point x="379.667" y="77.667" type="curve"/>
      <point x="380.667" y="90.333"/>
      <point x="382.333" y="105.333"/>
      <point x="386" y="122.667" type="curve" smooth="yes"/>
      <point x="394.333" y="165" type="line"/>
      <point x="468.667" y="165" type="line" smooth="yes"/>
      <point x="483.333" y="165"/>
      <point x="503.333" y="185"/>
      <point x="503.333" y="200.333" type="curve" smooth="yes"/>
      <point x="503.333" y="206.666"/>
      <point x="499" y="210.333"/>
    </contour>
    <contour>
      <point x="364.667" y="502" type="curve"/>
      <point x="304.333" y="210.333" type="line"/>
      <point x="121.333" y="210.333" type="line"/>
      <point x="195" y="296.666"/>
      <point x="292.667" y="413.666"/>
    </contour>
  </outline>
</glyph>
<glyph name="eight" format="2">
  <advance width="491"/>
  <unicode hex="0038"/>
  <outline>
    <contour>
      <point x="470.667" y="396.333" type="curve" smooth="yes"/>
      <point x="502" y="425"/>
      <point x="521.333" y="450.667"/>
      <point x="521.333" y="497.333" type="curve" smooth="yes"/>
      <point x="521.333" y="552.667"/>
      <point x="473" y="607.666"/>
      <point x="383" y="609.666" type="curve"/>
      <point x="376.334" y="610"/>
      <point x="370" y="610"/>
      <point x="363.334" y="609.333" type="curve"/>
      <point x="305.001" y="607.333"/>
      <point x="259.334" y="586.333"/>
      <point x="225.334" y="556" type="curve" smooth="yes"/>
      <point x="191.667" y="527"/>
      <point x="169" y="490.333"/>
      <point x="165.667" y="446.333" type="curve"/>
      <point x="165" y="441"/>
      <point x="165" y="435.333"/>
      <point x="165.334" y="430" type="curve"/>
      <point x="166.667" y="393.333"/>
      <point x="189.667" y="362.667"/>
      <point x="233.334" y="330" type="curve" smooth="yes"/>
      <point x="252.001" y="316.333" type="line"/>
      <point x="206" y="293.666"/>
      <point x="169.667" y="271.666"/>
      <point x="139.334" y="243" type="curve" smooth="yes"/>
      <point x="104" y="209.666"/>
      <point x="75" y="167.666"/>
      <point x="75" y="116" type="curve" smooth="yes"/>
      <point x="75" y="32"/>
      <point x="152.334" y="-10"/>
      <point x="243.334" y="-10" type="curve" smooth="yes"/>
      <point x="308.334" y="-10"/>
      <point x="362.334" y="11"/>
      <point x="402.667" y="42.333" type="curve" smooth="yes"/>
      <point x="456" y="83.333"/>
      <point x="484.334" y="134"/>
      <point x="484.334" y="202.666" type="curve" smooth="yes"/>
      <point x="484.334" y="244.333"/>
      <point x="469.667" y="283.666"/>
      <point x="434.666" y="310" type="curve"/>
      <point x="430.666" y="313.333"/>
      <point x="426.666" y="316.333"/>
      <point x="423" y="318.667" type="curve"/>
      <point x="386" y="344.333" type="line"/>
      <point x="417.333" y="358"/>
      <point x="447.333" y="375"/>
    </contour>
    <contour>
      <point x="255.001" y="27.333" type="curve" smooth="yes"/>
      <point x="216" y="27.333"/>
      <point x="175.667" y="57.333"/>
      <point x="172.334" y="107.666" type="curve" smooth="yes"/>
      <point x="172" y="112.333"/>
      <point x="171.667" y="118"/>
      <point x="171.667" y="123.333" type="curve"/>
      <point x="173" y="188.666"/>
      <point x="206.334" y="244.333"/>
      <point x="283.667" y="293.666" type="curve"/>
      <point x="324.001" y="265.333" type="line" smooth="yes"/>
      <point x="363.667" y="237"/>
      <point x="379.334" y="212.666"/>
      <point x="381" y="181.333" type="curve" smooth="yes"/>
      <point x="381.334" y="176.666"/>
      <point x="381.334" y="171.666"/>
      <point x="380.667" y="166.666" type="curve"/>
      <point x="378.667" y="123"/>
      <point x="361.334" y="84.666"/>
      <point x="340" y="62.333" type="curve" smooth="yes"/>
      <point x="314.667" y="34.666"/>
      <point x="284.334" y="27.333"/>
    </contour>
    <contour>
      <point x="363.667" y="572" type="curve" smooth="yes"/>
      <point x="403.333" y="572"/>
      <point x="428.333" y="538.667"/>
      <point x="430" y="499.333" type="curve"/>
      <point x="430.333" y="498.333"/>
      <point x="430.333" y="497"/>
      <point x="430.333" y="496" type="curve"/>
      <point x="430.333" y="450.333"/>
      <point x="409" y="406.667"/>
      <point x="352.667" y="367.333" type="curve"/>
      <point x="322.334" y="386.667" type="line"/>
      <point x="319.001" y="389.333"/>
      <point x="315.334" y="391.333"/>
      <point x="311.667" y="394" type="curve" smooth="yes"/>
      <point x="279.001" y="416.667"/>
      <point x="270.001" y="442"/>
      <point x="269.334" y="464.667" type="curve"/>
      <point x="269.334" y="465.667"/>
      <point x="269.334" y="466.667"/>
      <point x="269.334" y="467.667" type="curve"/>
      <point x="269.334" y="497"/>
      <point x="277.667" y="526.667"/>
      <point x="295.001" y="546" type="curve" smooth="yes"/>
      <point x="310.667" y="562.667"/>
      <point x="332.667" y="572"/>
    </contour>
  </outline>
</glyph>
<glyph name="nine" format="2">
  <advance width="491"/>
  <unicode hex="0039"/>
  <outline>
    <contour>
      <point x="77.667" y="4" type="curve"/>
      <point x="77" y="-8.667"/>
      <point x="79" y="-19.667"/>
      <point x="84.667" y="-28" type="curve"/>
      <point x="190" y="-9.667"/>
      <point x="275.667" y="30.667"/>
      <point x="355" y="97" type="curve" smooth="yes"/>
      <point x="464.667" y="190.334"/>
      <point x="518" y="326"/>
      <point x="518" y="422.667" type="curve" smooth="yes"/>
      <point x="518" y="557"/>
      <point x="433" y="610"/>
      <point x="355.667" y="610" type="curve" smooth="yes"/>
      <point x="216" y="610"/>
      <point x="113.667" y="493"/>
      <point x="113.667" y="368.333" type="curve" smooth="yes"/>
      <point x="113.667" y="311"/>
      <point x="141.667" y="232.667"/>
      <point x="267.334" y="232.667" type="curve" smooth="yes"/>
      <point x="298.334" y="232.667"/>
      <point x="341.667" y="249"/>
      <point x="378.334" y="273" type="curve"/>
      <point x="356.334" y="202.667"/>
      <point x="312" y="140"/>
      <point x="262.334" y="100" type="curve" smooth="yes"/>
      <point x="199.334" y="49.333"/>
      <point x="143" y="22.333"/>
    </contour>
    <contour>
      <point x="390.334" y="310.333" type="curve"/>
      <point x="346.667" y="282.333"/>
      <point x="324" y="278"/>
      <point x="304.334" y="278" type="curve" smooth="yes"/>
      <point x="247" y="278"/>
      <point x="224.667" y="331.667"/>
      <point x="224.667" y="381.667" type="curve" smooth="yes"/>
      <point x="224.667" y="464.667"/>
      <point x="265.334" y="572"/>
      <point x="336" y="572" type="curve" smooth="yes"/>
      <point x="364.334" y="572"/>
      <point x="412.667" y="542"/>
      <point x="412.667" y="455.667" type="curve" smooth="yes"/>
      <point x="412.667" y="404.333"/>
      <point x="403.334" y="345.667"/>
    </contour>
  </outline>
</glyph>
<glyph name="less" format="2">
  <advance width="504"/>
  <unicode hex="003C"/>
  <outline>
    <contour>
      <point x="196" y="239.667" type="line"/>
      <point x="524.333" y="355.334" type="line"/>
      <point x="536" y="413.334" type="line"/>
      <point x="107" y="262.334" type="line"/>
      <point x="97.667" y="217" type="line"/>
      <point x="466" y="65.667" type="line"/>
      <point x="478" y="123.667" type="line"/>
    </contour>
  </outline>
</glyph>
<glyph name="question" format="2">
  <advance width="422"/>
  <unicode hex="003F"/>
  <outline>
    <contour>
      <point x="231.666" y="567.667" type="curve"/>
      <point x="235" y="594.334"/>
      <point x="267.334" y="621"/>
      <point x="313.667" y="623.667" type="curve"/>
      <point x="318.334" y="624.334"/>
      <point x="322.334" y="624.334"/>
      <point x="327" y="624" type="curve" smooth="yes"/>
      <point x="377" y="621.667"/>
      <point x="394" y="573"/>
      <point x="386" y="518" type="curve"/>
      <point x="378.667" y="456.334"/>
      <point x="343.334" y="424"/>
      <point x="301" y="387.667" type="curve" smooth="yes"/>
      <point x="243.333" y="339.667"/>
      <point x="221.333" y="292"/>
      <point x="210.666" y="241.334" type="curve" smooth="yes"/>
      <point x="209.666" y="236.667"/>
      <point x="209" y="231.334"/>
      <point x="208" y="227" type="curve" smooth="yes"/>
      <point x="204" y="209.334" type="line" smooth="yes"/>
      <point x="203" y="204.667"/>
      <point x="202.333" y="200"/>
      <point x="202" y="195.334" type="curve" smooth="yes"/>
      <point x="201.666" y="190.334"/>
      <point x="204" y="187.334"/>
      <point x="207.666" y="185.334" type="curve"/>
      <point x="211" y="183.334"/>
      <point x="215" y="183"/>
      <point x="217.333" y="184" type="curve"/>
      <point x="220" y="183.334"/>
      <point x="223.333" y="182.667"/>
      <point x="227.333" y="182.667" type="curve"/>
      <point x="245.667" y="185"/>
      <point x="250" y="193.667"/>
      <point x="254.667" y="212.667" type="curve"/>
      <point x="257.001" y="228.667" type="line"/>
      <point x="263.334" y="256.667"/>
      <point x="273.001" y="279.334"/>
      <point x="287.001" y="299" type="curve" smooth="yes"/>
      <point x="301.667" y="320"/>
      <point x="322.334" y="334"/>
      <point x="342.334" y="347.334" type="curve" smooth="yes"/>
      <point x="396.667" y="384"/>
      <point x="466.666" y="429.334"/>
      <point x="481.666" y="505.667" type="curve" smooth="yes"/>
      <point x="483.666" y="515.667"/>
      <point x="484.666" y="525.334"/>
      <point x="485.333" y="535" type="curve"/>
      <point x="488" y="608.667"/>
      <point x="435.667" y="656.334"/>
      <point x="344.667" y="658.334" type="curve"/>
      <point x="339.334" y="658.334"/>
      <point x="335" y="658.334"/>
      <point x="330" y="658.334" type="curve"/>
      <point x="278.667" y="657.001"/>
      <point x="236.666" y="642.667"/>
      <point x="206.666" y="620.667" type="curve" smooth="yes"/>
      <point x="168.667" y="593.334"/>
      <point x="146" y="566.334"/>
      <point x="139.333" y="534" type="curve" smooth="yes"/>
      <point x="138.333" y="528.667"/>
      <point x="137.333" y="523.667"/>
      <point x="138" y="518.667" type="curve"/>
      <point x="138" y="491"/>
      <point x="159.333" y="479"/>
      <point x="177.333" y="479" type="curve" smooth="yes"/>
      <point x="206.333" y="479"/>
      <point x="228.333" y="498"/>
      <point x="232.333" y="521.334" type="curve" smooth="yes"/>
      <point x="234.333" y="532.334"/>
      <point x="233.333" y="540"/>
      <point x="232" y="546.667" type="curve"/>
      <point x="231" y="553"/>
      <point x="229.666" y="559"/>
    </contour>
    <contour>
      <point x="131.667" y="50.334" type="curve" smooth="yes"/>
      <point x="126.334" y="16.334"/>
      <point x="148.333" y="-10.333"/>
      <point x="182.333" y="-10.333" type="curve" smooth="yes"/>
      <point x="218.333" y="-10.333"/>
      <point x="252" y="19.667"/>
      <point x="258.667" y="54.334" type="curve"/>
      <point x="259.667" y="58"/>
      <point x="260.334" y="62"/>
      <point x="260.334" y="65.667" type="curve"/>
      <point x="261.001" y="95.334"/>
      <point x="239.667" y="117.667"/>
      <point x="208.333" y="117.667" type="curve" smooth="yes"/>
      <point x="171.667" y="117.667"/>
      <point x="137" y="85.334"/>
    </contour>
  </outline>
</glyph>
<glyph name="at" format="2">
  <advance width="935"/>
  <unicode hex="0040"/>
  <outline>
    <contour>
      <point x="620.333" y="78" type="curve"/>
      <point x="622.333" y="88.333"/>
      <point x="635.333" y="118"/>
      <point x="646.333" y="144.333" type="curve" smooth="yes"/>
      <point x="756.333" y="399.001" type="line"/>
      <point x="737" y="408.001" type="line"/>
      <point x="691.666" y="381.667" type="line"/>
      <point x="682.666" y="393"/>
      <point x="666" y="401.667"/>
      <point x="634.333" y="399.001" type="curve"/>
      <point x="633" y="407.667"/>
      <point x="623.666" y="413.334"/>
      <point x="613.666" y="413.334" type="curve" smooth="yes"/>
      <point x="508.666" y="413.334"/>
      <point x="353.666" y="289.334"/>
      <point x="325.666" y="156.333" type="curve" smooth="yes"/>
      <point x="319.333" y="123.333"/>
      <point x="319" y="79.333"/>
      <point x="343" y="53.334" type="curve" smooth="yes"/>
      <point x="359" y="36"/>
      <point x="383.333" y="27"/>
      <point x="422.333" y="27" type="curve" smooth="yes"/>
      <point x="448.333" y="27"/>
      <point x="499.666" y="48.667"/>
      <point x="545.333" y="101.333" type="curve"/>
      <point x="546" y="101" type="line"/>
      <point x="540.333" y="86.667"/>
      <point x="536.666" y="73"/>
      <point x="536.333" y="63.334" type="curve"/>
      <point x="535.666" y="52.667"/>
      <point x="539" y="39.667"/>
      <point x="551" y="35" type="curve"/>
      <point x="562.333" y="27"/>
      <point x="587" y="25.333"/>
      <point x="611.666" y="25.667" type="curve"/>
      <point x="753.333" y="31.667"/>
      <point x="872.666" y="156.667"/>
      <point x="900.333" y="285.334" type="curve" smooth="yes"/>
      <point x="940.333" y="473.667"/>
      <point x="828.333" y="617.667"/>
      <point x="620.333" y="617.667" type="curve" smooth="yes"/>
      <point x="391.666" y="617.667"/>
      <point x="189.333" y="431.334"/>
      <point x="145" y="221.667" type="curve" smooth="yes"/>
      <point x="97" y="-1.333"/>
      <point x="221.333" y="-159.333"/>
      <point x="443" y="-159.333" type="curve" smooth="yes"/>
      <point x="555.333" y="-159.333"/>
      <point x="621.333" y="-123.666"/>
      <point x="690" y="-75.666" type="curve"/>
      <point x="678.333" y="-50.333" type="line"/>
      <point x="612.666" y="-98.666"/>
      <point x="543.666" y="-122.333"/>
      <point x="469.333" y="-122.333" type="curve" smooth="yes"/>
      <point x="240.666" y="-122.333"/>
      <point x="200.333" y="75.333"/>
      <point x="229.333" y="223.333" type="curve" smooth="yes"/>
      <point x="231.666" y="235"/>
      <point x="234.333" y="246"/>
      <point x="237" y="257.667" type="curve"/>
      <point x="294" y="474.667"/>
      <point x="465.333" y="583"/>
      <point x="603.666" y="583" type="curve" smooth="yes"/>
      <point x="716" y="583"/>
      <point x="866" y="489.667"/>
      <point x="820" y="273.667" type="curve" smooth="yes"/>
      <point x="788.333" y="122.333"/>
      <point x="687.333" y="64.667"/>
      <point x="632" y="64.667" type="curve" smooth="yes"/>
      <point x="624.666" y="64.667"/>
      <point x="617.666" y="66"/>
    </contour>
    <contour>
      <point x="633.333" y="318.667" type="curve" smooth="yes"/>
      <point x="628" y="292.667"/>
      <point x="601.333" y="237"/>
      <point x="583.333" y="202.667" type="curve"/>
      <point x="580.666" y="198"/>
      <point x="578.333" y="193.333"/>
      <point x="575.666" y="189.333" type="curve"/>
      <point x="535" y="115.333"/>
      <point x="495.666" y="75.333"/>
      <point x="468" y="72" type="curve"/>
      <point x="466.666" y="71.333"/>
      <point x="464.666" y="71.333"/>
      <point x="463.333" y="71.333" type="curve" smooth="yes"/>
      <point x="414" y="71.333"/>
      <point x="413.666" y="116"/>
      <point x="423.666" y="163.333" type="curve" smooth="yes"/>
      <point x="436" y="223.333"/>
      <point x="463.666" y="286"/>
      <point x="514" y="334.334" type="curve" smooth="yes"/>
      <point x="518.333" y="338.334"/>
      <point x="522" y="342.334"/>
      <point x="526.333" y="345.667" type="curve"/>
      <point x="556" y="370.667"/>
      <point x="582.666" y="378.334"/>
      <point x="598" y="379.667" type="curve" smooth="yes"/>
      <point x="604" y="380.334"/>
      <point x="609" y="380"/>
      <point x="613.333" y="379.667" type="curve" smooth="yes"/>
      <point x="637.333" y="377.334"/>
      <point x="641" y="352.667"/>
    </contour>
  </outline>
</glyph>
<glyph name="A" format="2">
  <advance width="696"/>
  <unicode hex="0041"/>
  <anchor x="479" y="740" name="t.uni0302"/>
  <outline>
    <contour>
      <point x="167.333" y="67.3333" type="curve"/>
      <point x="174.804" y="83.555"/>
      <point x="209.931" y="150.282"/>
      <point x="221.667" y="171.667" type="curve" smooth="yes"/>
      <point x="231.11" y="188.579"/>
      <point x="251.559" y="218.488"/>
      <point x="274.333" y="231.333" type="curve"/>
      <point x="297.366" y="235.667"/>
      <point x="368.088" y="237"/>
      <point x="408" y="237" type="curve"/>
      <point x="488.667" y="129" type="line"/>
      <point x="490.945" y="114.614"/>
      <point x="496.017" y="76.5009"/>
      <point x="496.333" y="73.6667" type="curve"/>
      <point x="497.667" y="55.6667"/>
      <point x="488" y="47.6667"/>
      <point x="470.667" y="44.6667" type="curve"/>
      <point x="466.83" y="38.0304"/>
      <point x="446.713" y="35.1967"/>
      <point x="429" y="33.3333" type="curve"/>
      <point x="423.973" y="29.2233"/>
      <point x="413.374" y="13.1115"/>
      <point x="415.667" y="8.33333" type="curve"/>
      <point x="436.667" y="6.33333"/>
      <point x="498" y="1"/>
      <point x="525.333" y="-0.666667" type="curve"/>
      <point x="566" y="-0.333333"/>
      <point x="607" y="-0.666667"/>
      <point x="649.333" y="-1.33333" type="curve"/>
      <point x="666.667" y="2"/>
      <point x="683" y="17"/>
      <point x="692" y="22" type="curve"/>
      <point x="692.094" y="25.7066"/>
      <point x="684.916" y="30.6807"/>
      <point x="682" y="34.3333" type="curve"/>
      <point x="662.118" y="37.8489"/>
      <point x="639.573" y="51.1974"/>
      <point x="636.667" y="65.3333" type="curve"/>
      <point x="611.344" y="151.123"/>
      <point x="574.035" y="368.034"/>
      <point x="558.667" y="467.333" type="curve"/>
      <point x="523" y="658" type="line"/>
      <point x="512.895" y="650.667"/>
      <point x="455.723" y="628.667"/>
      <point x="449" y="628.667" type="curve"/>
      <point x="427.874" y="595.354"/>
      <point x="261.523" y="325.348"/>
      <point x="231.667" y="281" type="curve"/>
      <point x="191.181" y="211.888"/>
      <point x="106.306" y="92.3818"/>
      <point x="49.3333" y="56.6667" type="curve"/>
      <point x="33" y="32"/>
      <point x="19.6667" y="14.3333"/>
      <point x="9" y="8.33333" type="curve"/>
      <point x="30.6667" y="5.66667"/>
      <point x="42" y="2.66667"/>
      <point x="67.6667" y="-0.666667" type="curve"/>
      <point x="105.667" y="-0.333333"/>
      <point x="144.667" y="-0.666667"/>
      <point x="180.333" y="-1.33333" type="curve"/>
      <point x="198" y="2.66667"/>
      <point x="218.333" y="18.3333"/>
      <point x="226.667" y="22" type="curve"/>
      <point x="226.133" y="25.7073"/>
      <point x="216.53" y="30.67"/>
      <point x="212.667" y="34.3333" type="curve"/>
      <point x="195.541" y="36.5639"/>
      <point x="178.773" y="42.5317"/>
      <point x="177.333" y="51.3333" type="curve"/>
      <point x="169" y="54.6667"/>
      <point x="166" y="59.6667"/>
    </contour>
    <contour>
      <point x="313.667" y="283" type="line" smooth="yes"/>
      <point x="297.667" y="283"/>
      <point x="290" y="285"/>
      <point x="290" y="290" type="curve" smooth="yes"/>
      <point x="290" y="292"/>
      <point x="291" y="294"/>
      <point x="292" y="296" type="curve"/>
      <point x="426.333" y="530" type="line"/>
      <point x="431" y="530" type="line"/>
      <point x="466.667" y="283" type="line"/>
    </contour>
  </outline>
  <guideline angle="99.6337" x="588" y="86"/>
  <guideline angle="238.794" x="437" y="622"/>
  <guideline angle="278.415" x="482" y="241"/>
  <guideline angle="78" x="317" y="3"/>
  <guideline angle="0" x="0" y="740"/>
</glyph>
<glyph name="B" format="2">
  <advance width="594"/>
  <unicode hex="0042"/>
  <anchor x="418.667" y="740" name="t.uni0302"/>
  <anchor x="261.333" y="-60" name="b.minus-60"/>
  <outline>
    <contour>
      <point x="268.333" y="645" type="curve"/>
      <point x="141.667" y="0" type="line"/>
      <point x="158.667" y="0" type="line" smooth="yes"/>
      <point x="203.333" y="0"/>
      <point x="245" y="-2"/>
      <point x="305" y="-2" type="curve" smooth="yes"/>
      <point x="454.667" y="-2"/>
      <point x="599.333" y="57.3333"/>
      <point x="599.333" y="225.667" type="curve" smooth="yes"/>
      <point x="599.333" y="293.333"/>
      <point x="560" y="336.667"/>
      <point x="484.333" y="359.333" type="curve"/>
      <point x="485" y="361.333" type="line"/>
      <point x="556.667" y="393"/>
      <point x="604.333" y="452.667"/>
      <point x="604.333" y="533.333" type="curve" smooth="yes"/>
      <point x="604.333" y="591.333"/>
      <point x="561.333" y="647"/>
      <point x="410" y="647" type="curve" smooth="yes"/>
      <point x="366.667" y="647"/>
      <point x="304" y="645"/>
    </contour>
    <contour>
      <point x="320" y="564.667" type="line" smooth="yes"/>
      <point x="326" y="595"/>
      <point x="333.333" y="607.667"/>
      <point x="402.667" y="607.667" type="curve" smooth="yes"/>
      <point x="443" y="607.667"/>
      <point x="489.667" y="591.333"/>
      <point x="489.667" y="524" type="curve" smooth="yes"/>
      <point x="489.667" y="434.667"/>
      <point x="438" y="372.667"/>
      <point x="343.667" y="372.667" type="curve" smooth="yes"/>
      <point x="269" y="372.667" type="line"/>
      <point x="261.667" y="333.333" type="line"/>
      <point x="332.667" y="333.333" type="line" smooth="yes"/>
      <point x="408.333" y="333.333"/>
      <point x="476.667" y="306.333"/>
      <point x="476.667" y="224.667" type="curve" smooth="yes"/>
      <point x="476.667" y="105.667"/>
      <point x="409.667" y="37.3333"/>
      <point x="287.667" y="37.3333" type="curve" smooth="yes" name=".hr01"/>
      <point x="239" y="37.3333"/>
      <point x="224.333" y="46.3333"/>
      <point x="224.333" y="66" type="curve" smooth="yes"/>
      <point x="224.333" y="70.6667"/>
      <point x="225" y="76.3333"/>
      <point x="226" y="82" type="curve" smooth="yes"/>
    </contour>
    <contour>
      <point x="210" y="0" type="line"/>
      <point x="314.667" y="542" type="line"/>
      <point x="268.333" y="645" type="line"/>
      <point x="213.667" y="645"/>
      <point x="170" y="646"/>
      <point x="135.667" y="647" type="curve"/>
      <point x="131.667" y="643"/>
      <point x="127.667" y="625.333"/>
      <point x="130.667" y="614.667" type="curve"/>
      <point x="183" y="611.333"/>
      <point x="201" y="600.667"/>
      <point x="201" y="572.333" type="curve" smooth="yes"/>
      <point x="201" y="559"/>
      <point x="199.333" y="543.667"/>
      <point x="195.333" y="521.667" type="curve" smooth="yes"/>
      <point x="118.333" y="122" type="line" smooth="yes"/>
      <point x="105.333" y="55.3333"/>
      <point x="85.6667" y="38"/>
      <point x="16.3333" y="30.3333" type="curve"/>
      <point x="10.3333" y="23" name=".hr02"/>
      <point x="5.33333" y="5"/>
      <point x="10.3333" y="-2" type="curve"/>
      <point x="50" y="-1"/>
      <point x="109.333" y="0"/>
      <point x="141.667" y="0" type="curve" smooth="yes"/>
    </contour>
  </outline>
  <guideline angle="259.077" x="350" y="521"/>
</glyph>
<glyph name="C" format="2">
  <advance width="655"/>
  <unicode hex="0043"/>
  <anchor x="326.667" y="-60" name="b.minus-60"/>
  <anchor x="356" y="0" name="b.cedilla"/>
  <anchor x="483" y="740" name="t.uni0302"/>
  <outline>
    <contour>
      <point x="362" y="-10" type="curve" smooth="yes"/>
      <point x="458.333" y="-10"/>
      <point x="553.333" y="36.333"/>
      <point x="636" y="125.333" type="curve"/>
      <point x="633" y="134.333"/>
      <point x="622" y="144.333"/>
      <point x="611" y="144.333" type="curve"/>
      <point x="528" y="66.333"/>
      <point x="448.667" y="38.667"/>
      <point x="374.333" y="38.667" type="curve" smooth="yes"/>
      <point x="272.333" y="38.667"/>
      <point x="217" y="135.333"/>
      <point x="217" y="247" type="curve" smooth="yes"/>
      <point x="217" y="396"/>
      <point x="316.333" y="617"/>
      <point x="478.333" y="617" type="curve" smooth="yes"/>
      <point x="610.667" y="617"/>
      <point x="642.667" y="538.667"/>
      <point x="650.667" y="453" type="curve"/>
      <point x="659.667" y="450.333"/>
      <point x="678.667" y="452.667"/>
      <point x="689" y="457.667" type="curve"/>
      <point x="689.333" y="510"/>
      <point x="692" y="557"/>
      <point x="698" y="612.333" type="curve"/>
      <point x="648" y="616.667"/>
      <point x="614.333" y="658"/>
      <point x="501" y="658" type="curve" smooth="yes"/>
      <point x="273.667" y="658"/>
      <point x="89" y="462.333"/>
      <point x="89" y="240.333" type="curve" smooth="yes"/>
      <point x="89" y="74.333"/>
      <point x="192" y="-10"/>
    </contour>
  </outline>
</glyph>
<glyph name="D" format="2">
  <advance width="669"/>
  <unicode hex="0044"/>
  <anchor x="443.667" y="740" name="t.uni0302"/>
  <anchor x="289.667" y="-60" name="b.minus-60"/>
  <outline>
    <contour>
      <point x="135.667" y="0" type="line"/>
      <point x="173.333" y="0"/>
      <point x="254.667" y="-2"/>
      <point x="313" y="-2" type="curve" smooth="yes"/>
      <point x="545" y="-2"/>
      <point x="702.667" y="154.667"/>
      <point x="702.667" y="383" type="curve" smooth="yes"/>
      <point x="702.667" y="561"/>
      <point x="576.333" y="646.333"/>
      <point x="409.333" y="646.333" type="curve" smooth="yes"/>
      <point x="361.333" y="646.333"/>
      <point x="316.333" y="645"/>
      <point x="268.333" y="645" type="curve"/>
    </contour>
    <contour>
      <point x="229.667" y="103.667" type="curve" smooth="yes"/>
      <point x="315" y="544" type="line" smooth="yes"/>
      <point x="324.667" y="592.333"/>
      <point x="354.667" y="607"/>
      <point x="393.667" y="607" type="curve" smooth="yes"/>
      <point x="530.667" y="607"/>
      <point x="578.333" y="522"/>
      <point x="578.333" y="408.667" type="curve" smooth="yes"/>
      <point x="578.333" y="252.333"/>
      <point x="495.667" y="37.3333" name=".hr01"/>
      <point x="312.667" y="37.3333" type="curve" smooth="yes"/>
      <point x="249.333" y="37.3333"/>
      <point x="226.667" y="45"/>
      <point x="226.667" y="78.6667" type="curve" smooth="yes"/>
      <point x="226.667" y="86"/>
      <point x="228" y="94"/>
    </contour>
    <contour>
      <point x="210" y="0" type="line"/>
      <point x="314.667" y="542" type="line"/>
      <point x="268.333" y="645" type="line"/>
      <point x="213.667" y="645"/>
      <point x="170" y="646"/>
      <point x="135.667" y="647" type="curve"/>
      <point x="131.667" y="643"/>
      <point x="127.667" y="625.333"/>
      <point x="130.667" y="614.667" type="curve"/>
      <point x="183" y="611.333" name=".hr02"/>
      <point x="201" y="600.667"/>
      <point x="201" y="572.333" type="curve" smooth="yes"/>
      <point x="201" y="559"/>
      <point x="199.333" y="543.667"/>
      <point x="195.333" y="521.667" type="curve" smooth="yes"/>
      <point x="118.333" y="122" type="line" smooth="yes"/>
      <point x="105.333" y="55.3333"/>
      <point x="85.6667" y="38"/>
      <point x="16.3333" y="30.3333" type="curve"/>
      <point x="10.3333" y="23" name=".hr03"/>
      <point x="5.33333" y="5"/>
      <point x="10.3333" y="-2" type="curve"/>
      <point x="50" y="-1"/>
      <point x="109.333" y="0"/>
      <point x="141.667" y="0" type="curve" smooth="yes"/>
    </contour>
  </outline>
  <guideline angle="259.077" x="389" y="521"/>
</glyph>
<glyph name="E" format="2">
  <advance width="561"/>
  <unicode hex="0045"/>
  <anchor x="385" y="740" name="t.uni0302"/>
  <outline>
    <contour>
      <point x="210" y="0" type="line"/>
      <point x="318.333" y="559.667" type="line" smooth="yes"/>
      <point x="324" y="589.667"/>
      <point x="340" y="603.667"/>
      <point x="365" y="603.667" type="curve" smooth="yes"/>
      <point x="453" y="603.667" type="line" smooth="yes"/>
      <point x="525" y="603.667"/>
      <point x="536.333" y="565"/>
      <point x="544.333" y="496" type="curve"/>
      <point x="555.333" y="494.667"/>
      <point x="573" y="496.667"/>
      <point x="581.667" y="501" type="curve"/>
      <point x="583.667" y="543"/>
      <point x="593.333" y="634.333"/>
      <point x="595.667" y="645" type="curve"/>
      <point x="595.667" y="647"/>
      <point x="594.667" y="649"/>
      <point x="591.667" y="649" type="curve"/>
      <point x="574.667" y="646"/>
      <point x="565" y="645"/>
      <point x="545" y="645" type="curve" smooth="yes"/>
      <point x="275.333" y="645" type="line" smooth="yes"/>
      <point x="256.333" y="645"/>
      <point x="182.667" y="646"/>
      <point x="135.667" y="647" type="curve"/>
      <point x="131.667" y="643"/>
      <point x="127.667" y="625.333"/>
      <point x="130.667" y="614.667" type="curve" name=".hr01"/>
      <point x="183" y="611.333"/>
      <point x="201" y="600.667"/>
      <point x="201" y="572.333" type="curve" smooth="yes"/>
      <point x="201" y="559"/>
      <point x="199.333" y="543.667"/>
      <point x="195.333" y="521.667" type="curve" smooth="yes"/>
      <point x="118.333" y="122" type="line" smooth="yes"/>
      <point x="105.333" y="55.3333"/>
      <point x="85.6667" y="38"/>
      <point x="16.3333" y="30.3333" type="curve"/>
      <point x="10.3333" y="23"/>
      <point x="5.33333" y="5"/>
      <point x="10.3333" y="-2" type="curve"/>
      <point x="50" y="-1"/>
      <point x="109.333" y="0"/>
      <point x="141.667" y="0" type="curve" smooth="yes"/>
    </contour>
    <contour>
      <point x="373.667" y="365" type="curve" smooth="yes"/>
      <point x="266" y="365" type="line"/>
      <point x="256.667" y="319" type="line"/>
      <point x="364.333" y="319" type="line" smooth="yes"/>
      <point x="411.333" y="319"/>
      <point x="428" y="301.667"/>
      <point x="428" y="268.667" type="curve" smooth="yes"/>
      <point x="428" y="254.667" type="line"/>
      <point x="435.667" y="249.667"/>
      <point x="458.333" y="250.333"/>
      <point x="465.333" y="256" type="curve"/>
      <point x="474" y="314.667"/>
      <point x="485.333" y="373.333"/>
      <point x="499.333" y="431.333" type="curve"/>
      <point x="494" y="436.333"/>
      <point x="467.333" y="436.333"/>
      <point x="461" y="431.333" type="curve"/>
      <point x="445" y="373.667"/>
      <point x="427.667" y="365"/>
    </contour>
    <contour>
      <point x="141.667" y="0" type="line"/>
      <point x="369.667" y="0" type="line" smooth="yes"/>
      <point x="415.667" y="0"/>
      <point x="489.667" y="-2"/>
      <point x="498.333" y="-2" type="curve"/>
      <point x="514.667" y="50"/>
      <point x="537" y="109.667"/>
      <point x="559.667" y="165" type="curve"/>
      <point x="552" y="170"/>
      <point x="534" y="172"/>
      <point x="522" y="170" type="curve"/>
      <point x="491" y="102"/>
      <point x="442" y="41"/>
      <point x="375" y="41" type="curve" smooth="yes" name=".hr02"/>
      <point x="255.667" y="41" type="line" smooth="yes"/>
      <point x="235.667" y="41"/>
      <point x="225" y="55"/>
      <point x="225" y="73.3333" type="curve" smooth="yes"/>
      <point x="225" y="77"/>
      <point x="225" y="80"/>
      <point x="226" y="84" type="curve"/>
    </contour>
  </outline>
  <guideline angle="78.9995" x="188" y="72"/>
  <guideline angle="259.077" x="198" y="521"/>
</glyph>
<glyph name="F" format="2">
  <advance width="498"/>
  <unicode hex="0046"/>
  <anchor x="401.667" y="740" name="t.uni0302"/>
  <anchor x="247" y="-60" name="b.minus-60"/>
  <outline>
    <contour>
      <point x="167" y="120" type="line"/>
      <point x="233" y="120" type="line"/>
      <point x="318.333" y="559.667" type="line" smooth="yes"/>
      <point x="322.667" y="580.333"/>
      <point x="336.667" y="597"/>
      <point x="356.333" y="601.667" type="curve"/>
      <point x="467.667" y="603" type="line"/>
      <point x="529" y="598.333"/>
      <point x="539.667" y="557.667"/>
      <point x="547" y="492.667" type="curve"/>
      <point x="558" y="492"/>
      <point x="574.667" y="493.667"/>
      <point x="584.333" y="497.667" type="curve"/>
      <point x="587.333" y="538.667"/>
      <point x="599" y="638"/>
      <point x="599" y="646" type="curve" smooth="yes"/>
      <point x="599" y="648"/>
      <point x="598.667" y="649"/>
      <point x="596" y="649" type="curve"/>
      <point x="578.667" y="646"/>
      <point x="571.667" y="645"/>
      <point x="548.667" y="645" type="curve" smooth="yes"/>
      <point x="268.333" y="645" type="line"/>
    </contour>
    <contour>
      <point x="210" y="0" type="line"/>
      <point x="314.667" y="542" type="line"/>
      <point x="268.333" y="645" type="line"/>
      <point x="213.667" y="645"/>
      <point x="170" y="646"/>
      <point x="135.667" y="647" type="curve"/>
      <point x="131.667" y="643"/>
      <point x="127.667" y="625.333"/>
      <point x="130.667" y="614.667" type="curve" name=".hr01"/>
      <point x="183" y="611.333"/>
      <point x="201" y="600.667"/>
      <point x="201" y="572.333" type="curve" smooth="yes"/>
      <point x="201" y="559"/>
      <point x="199.333" y="543.667"/>
      <point x="195.333" y="521.667" type="curve" smooth="yes"/>
      <point x="118.333" y="122" type="line" smooth="yes"/>
      <point x="105.333" y="55.3333"/>
      <point x="85.6667" y="38"/>
      <point x="16.3333" y="30.3333" type="curve"/>
      <point x="10.3333" y="23"/>
      <point x="5.33333" y="5"/>
      <point x="10.3333" y="-2" type="curve"/>
      <point x="50" y="-1"/>
      <point x="109.333" y="0"/>
      <point x="141.667" y="0" type="curve" smooth="yes"/>
    </contour>
    <contour>
      <point x="144" y="0" type="line"/>
      <point x="156.667" y="0" type="line" smooth="yes"/>
      <point x="193.667" y="0"/>
      <point x="258" y="-1"/>
      <point x="296.667" y="-2" type="curve"/>
      <point x="304.333" y="2.33333"/>
      <point x="309.667" y="25.6667"/>
      <point x="303" y="29.6667" type="curve"/>
      <point x="250" y="31.3333"/>
      <point x="228" y="46"/>
      <point x="228" y="83.3333" type="curve" smooth="yes"/>
      <point x="228" y="93.3333"/>
      <point x="230.333" y="105.333"/>
      <point x="233" y="120" type="curve"/>
      <point x="167" y="120" type="line"/>
    </contour>
    <contour>
      <point x="373.667" y="365" type="curve" smooth="yes"/>
      <point x="266" y="365" type="line"/>
      <point x="256.667" y="319" type="line"/>
      <point x="364.333" y="319" type="line" smooth="yes"/>
      <point x="411.333" y="319"/>
      <point x="428" y="301.667"/>
      <point x="428" y="268.667" type="curve" smooth="yes"/>
      <point x="428" y="254.667" type="line"/>
      <point x="435.667" y="249.667"/>
      <point x="458.333" y="250.333"/>
      <point x="465.333" y="256" type="curve"/>
      <point x="474" y="314.667"/>
      <point x="485.333" y="373.333"/>
      <point x="499.333" y="431.333" type="curve"/>
      <point x="494" y="436.333"/>
      <point x="467.333" y="436.333"/>
      <point x="461" y="431.333" type="curve"/>
      <point x="445" y="373.667"/>
      <point x="427.667" y="365"/>
    </contour>
  </outline>
  <guideline angle="0" x="0" y="120"/>
  <guideline angle="0" x="0" y="740"/>
  <guideline angle="259.216" x="251" y="645"/>
  <guideline angle="259.077" x="343" y="521"/>
</glyph>
<glyph name="H" format="2">
  <advance width="693"/>
  <unicode hex="0048"/>
  <anchor x="489.333" y="740" name="t.uni0302"/>
  <anchor x="334" y="-60" name="b.minus-60"/>
  <anchor x="161" y="10" name="b.cedilla"/>
  <outline>
    <contour>
      <point x="588.667" y="556.333" type="curve" smooth="yes"/>
      <point x="551.333" y="365.667" type="line"/>
      <point x="281" y="365.667" type="line"/>
      <point x="317.667" y="556.333" type="line" smooth="yes"/>
      <point x="326.333" y="600"/>
      <point x="353.333" y="611"/>
      <point x="409.333" y="614.667" type="curve"/>
      <point x="418" y="620"/>
      <point x="421.333" y="640"/>
      <point x="414.667" y="647" type="curve"/>
      <point x="375.667" y="646"/>
      <point x="319" y="645"/>
      <point x="283" y="645" type="curve" smooth="yes"/>
      <point x="263.667" y="645" type="line"/>
      <point x="138.333" y="0" type="line"/>
      <point x="144" y="0"/>
      <point x="152.333" y="0"/>
      <point x="157.667" y="0" type="curve" smooth="yes"/>
      <point x="194.333" y="0"/>
      <point x="253.667" y="-1"/>
      <point x="291.667" y="-2" type="curve"/>
      <point x="300" y="3.33333"/>
      <point x="303" y="24.6667"/>
      <point x="296.667" y="30.3333" type="curve"/>
      <point x="239.667" y="35.3333"/>
      <point x="221" y="56.6667"/>
      <point x="231.667" y="111.333" type="curve" smooth="yes"/>
      <point x="271.333" y="319.667" type="line"/>
      <point x="541.667" y="319.667" type="line"/>
      <point x="501" y="111.333" type="line" smooth="yes"/>
      <point x="490" y="55"/>
      <point x="478.667" y="37"/>
      <point x="404.667" y="30.3333" type="curve"/>
      <point x="396" y="25"/>
      <point x="392.667" y="5"/>
      <point x="399.333" y="-2" type="curve"/>
      <point x="438.333" y="-1"/>
      <point x="496.333" y="0"/>
      <point x="532.333" y="0" type="curve" smooth="yes"/>
      <point x="548.667" y="0" type="line" smooth="yes"/>
      <point x="587.333" y="0"/>
      <point x="641" y="-1"/>
      <point x="677.667" y="-2" type="curve"/>
      <point x="686" y="3.33333"/>
      <point x="689" y="24.6667"/>
      <point x="682.667" y="30.3333" type="curve"/>
      <point x="623" y="34.3333"/>
      <point x="605.667" y="57"/>
      <point x="616.333" y="111.333" type="curve" smooth="yes"/>
      <point x="703.667" y="555" type="line" smooth="yes"/>
      <point x="712.333" y="600"/>
      <point x="737.333" y="611"/>
      <point x="793.333" y="614.667" type="curve"/>
      <point x="802" y="620"/>
      <point x="805.333" y="640"/>
      <point x="798.667" y="647" type="curve"/>
      <point x="761" y="646"/>
      <point x="713" y="645"/>
      <point x="674" y="645" type="curve" smooth="yes"/>
      <point x="657.667" y="645" type="line" smooth="yes"/>
      <point x="621" y="645"/>
      <point x="560.333" y="646"/>
      <point x="522.333" y="647" type="curve"/>
      <point x="514" y="641.667"/>
      <point x="510.333" y="620.333"/>
      <point x="516.667" y="614.667" type="curve"/>
      <point x="572.333" y="608.333"/>
      <point x="595.333" y="589.333"/>
    </contour>
    <contour>
      <point x="210" y="0" type="line"/>
      <point x="314.667" y="542" type="line"/>
      <point x="268.333" y="645" type="line"/>
      <point x="213.667" y="645"/>
      <point x="170" y="646"/>
      <point x="135.667" y="647" type="curve"/>
      <point x="131.667" y="643"/>
      <point x="127.667" y="625.333"/>
      <point x="130.667" y="614.667" type="curve"/>
      <point x="183" y="611.333"/>
      <point x="201" y="600.667"/>
      <point x="201" y="572.333" type="curve" smooth="yes"/>
      <point x="201" y="559"/>
      <point x="199.333" y="543.667"/>
      <point x="195.333" y="521.667" type="curve" smooth="yes"/>
      <point x="118.333" y="122" type="line" smooth="yes"/>
      <point x="105.333" y="55.3333"/>
      <point x="85.6667" y="38"/>
      <point x="16.3333" y="30.3333" type="curve"/>
      <point x="10.3333" y="23"/>
      <point x="5.33333" y="5"/>
      <point x="10.3333" y="-2" type="curve"/>
      <point x="50" y="-1"/>
      <point x="109.333" y="0"/>
      <point x="141.667" y="0" type="curve" smooth="yes"/>
    </contour>
  </outline>
  <guideline angle="0" x="0" y="740"/>
  <guideline angle="0" x="0" y="-60"/>
  <guideline angle="0" x="0" y="90"/>
  <guideline angle="0" x="0" y="122"/>
  <guideline angle="78.9151" x="191" y="76"/>
  <guideline angle="258.869" x="211" y="569"/>
  <guideline angle="258.797" x="552" y="321"/>
  <guideline angle="78.8112" x="588" y="114"/>
  <guideline angle="0" x="0" y="551"/>
  <guideline angle="259.011" x="601" y="569"/>
  <guideline angle="78.8972" x="584" y="90"/>
  <guideline angle="258.897" x="211" y="569"/>
  <guideline angle="259.077" x="428" y="521"/>
</glyph>
<glyph name="I" format="2">
  <advance width="309"/>
  <unicode hex="0049"/>
  <anchor x="294" y="740" name="t.uni0302"/>
  <anchor x="212.333" y="10" name="b.ogonek"/>
  <anchor x="143" y="-60" name="b.minus-60"/>
  <outline>
    <contour>
      <point x="148" y="0" type="line"/>
      <point x="184.667" y="0"/>
      <point x="255" y="-1"/>
      <point x="293" y="-2" type="curve"/>
      <point x="301.334" y="3.333"/>
      <point x="304.334" y="24.667"/>
      <point x="298" y="30.333" type="curve"/>
      <point x="233.334" y="35.667"/>
      <point x="219.334" y="47.333"/>
      <point x="234" y="124.333" type="curve" smooth="yes"/>
      <point x="312" y="526.667" type="line" smooth="yes"/>
      <point x="324.334" y="589.667"/>
      <point x="337" y="608"/>
      <point x="410" y="614.667" type="curve"/>
      <point x="418.667" y="620"/>
      <point x="422" y="640"/>
      <point x="415.334" y="647" type="curve"/>
      <point x="377.667" y="646"/>
      <point x="328.667" y="645"/>
      <point x="289.667" y="645" type="curve" smooth="yes"/>
      <point x="268.334" y="645" type="line"/>
    </contour>
    <contour>
      <point x="210" y="0" type="line"/>
      <point x="314.667" y="542" type="line"/>
      <point x="268.333" y="645" type="line"/>
      <point x="213.667" y="645"/>
      <point x="170" y="646"/>
      <point x="135.667" y="647" type="curve"/>
      <point x="131.667" y="643"/>
      <point x="127.667" y="625.333"/>
      <point x="130.667" y="614.667" type="curve"/>
      <point x="183" y="611.333"/>
      <point x="201" y="600.667"/>
      <point x="201" y="572.333" type="curve" smooth="yes"/>
      <point x="201" y="559"/>
      <point x="199.333" y="543.667"/>
      <point x="195.333" y="521.667" type="curve" smooth="yes"/>
      <point x="118.333" y="122" type="line" smooth="yes"/>
      <point x="105.333" y="55.333"/>
      <point x="85.667" y="38"/>
      <point x="16.333" y="30.333" type="curve"/>
      <point x="10.333" y="23"/>
      <point x="5.333" y="5"/>
      <point x="10.333" y="-2" type="curve"/>
      <point x="50" y="-1"/>
      <point x="109.333" y="0"/>
      <point x="141.667" y="0" type="curve" smooth="yes"/>
    </contour>
  </outline>
</glyph>
<glyph name="K" format="2">
  <advance width="663"/>
  <unicode hex="004B"/>
  <anchor x="469.667" y="740" name="t.uni0302"/>
  <anchor x="314.333" y="-60" name="b.minus-60"/>
  <outline>
    <contour>
      <point x="141.333" y="0" type="line"/>
      <point x="157" y="0" type="line" smooth="yes"/>
      <point x="194" y="0"/>
      <point x="254" y="-1"/>
      <point x="292.333" y="-2" type="curve"/>
      <point x="300.667" y="3.33333"/>
      <point x="303.667" y="24.6667"/>
      <point x="297.333" y="30.3333" type="curve"/>
      <point x="250.667" y="35"/>
      <point x="226.333" y="42.6667"/>
      <point x="226.333" y="75.3333" type="curve" smooth="yes"/>
      <point x="226.333" y="84"/>
      <point x="227.667" y="94"/>
      <point x="230" y="106.667" type="curve" smooth="yes"/>
      <point x="314.333" y="538.333" type="line" smooth="yes"/>
      <point x="325.333" y="594"/>
      <point x="349" y="610.667"/>
      <point x="410" y="614.667" type="curve"/>
      <point x="418.667" y="620"/>
      <point x="422" y="640"/>
      <point x="415.333" y="647" type="curve"/>
      <point x="376" y="646"/>
      <point x="319" y="645"/>
      <point x="282.333" y="645" type="curve" smooth="yes"/>
      <point x="266.667" y="645" type="line"/>
    </contour>
    <contour>
      <point x="250" y="308" type="line"/>
      <point x="292.333" y="311.333"/>
      <point x="308.667" y="301.667"/>
      <point x="325.667" y="271" type="curve" smooth="yes"/>
      <point x="436.333" y="73.6667" type="line" smooth="yes"/>
      <point x="447.667" y="53.6667"/>
      <point x="457.333" y="26"/>
      <point x="457.333" y="5.33333" type="curve" smooth="yes"/>
      <point x="457.333" y="2.33333"/>
      <point x="458.667" y="-1.33333"/>
      <point x="463" y="-2" type="curve"/>
      <point x="477.333" y="-1"/>
      <point x="504" y="0"/>
      <point x="531" y="0" type="curve" smooth="yes"/>
      <point x="557.667" y="0" type="line" smooth="yes"/>
      <point x="588" y="0"/>
      <point x="618" y="-0.333333"/>
      <point x="652" y="-2" type="curve"/>
      <point x="657.667" y="3"/>
      <point x="662" y="21.6667"/>
      <point x="657.667" y="29.6667" type="curve"/>
      <point x="622.333" y="36.3333"/>
      <point x="608" y="43"/>
      <point x="588" y="73.6667" type="curve"/>
      <point x="428" y="333" type="line" smooth="yes"/>
      <point x="421.667" y="343"/>
      <point x="412.333" y="359.667"/>
      <point x="412.333" y="368.333" type="curve" smooth="yes"/>
      <point x="412.333" y="379.333"/>
      <point x="418.667" y="390"/>
      <point x="433.333" y="402" type="curve" smooth="yes"/>
      <point x="610" y="549.333" type="line" smooth="yes"/>
      <point x="657.333" y="589"/>
      <point x="696" y="608.333"/>
      <point x="745.333" y="614.667" type="curve"/>
      <point x="753" y="619.333"/>
      <point x="756" y="639.667"/>
      <point x="753.667" y="647" type="curve"/>
      <point x="710.667" y="646"/>
      <point x="701" y="645"/>
      <point x="666.667" y="645" type="curve" smooth="yes"/>
      <point x="652.333" y="645" type="line" smooth="yes"/>
      <point x="617.333" y="645"/>
      <point x="587" y="645.667"/>
      <point x="546" y="647" type="curve"/>
      <point x="541.333" y="643.333"/>
      <point x="536.667" y="624"/>
      <point x="539.667" y="615.333" type="curve"/>
      <point x="573.667" y="612"/>
      <point x="585.333" y="607"/>
      <point x="585.333" y="594.667" type="curve" smooth="yes"/>
      <point x="585.333" y="582.333"/>
      <point x="573" y="565.667"/>
      <point x="537.667" y="537.333" type="curve" smooth="yes"/>
      <point x="343.667" y="379.333" type="line" smooth="yes"/>
      <point x="317.667" y="358.333"/>
      <point x="294.333" y="349.333"/>
      <point x="264" y="349" type="curve"/>
    </contour>
    <contour>
      <point x="210" y="0" type="line"/>
      <point x="314.667" y="542" type="line"/>
      <point x="268.333" y="645" type="line"/>
      <point x="213.667" y="645"/>
      <point x="170" y="646"/>
      <point x="135.667" y="647" type="curve"/>
      <point x="131.667" y="643"/>
      <point x="127.667" y="625.333"/>
      <point x="130.667" y="614.667" type="curve"/>
      <point x="183" y="611.333"/>
      <point x="201" y="600.667"/>
      <point x="201" y="572.333" type="curve" smooth="yes"/>
      <point x="201" y="559"/>
      <point x="199.333" y="543.667"/>
      <point x="195.333" y="521.667" type="curve" smooth="yes"/>
      <point x="118.333" y="122" type="line" smooth="yes"/>
      <point x="105.333" y="55.3333"/>
      <point x="85.6667" y="38"/>
      <point x="16.3333" y="30.3333" type="curve"/>
      <point x="10.3333" y="23"/>
      <point x="5.33333" y="5"/>
      <point x="10.3333" y="-2" type="curve"/>
      <point x="50" y="-1"/>
      <point x="109.333" y="0"/>
      <point x="141.667" y="0" type="curve" smooth="yes"/>
    </contour>
  </outline>
  <guideline angle="42.6368" x="408" y="407"/>
  <guideline angle="259.077" x="410" y="521"/>
</glyph>
<glyph name="L" format="2">
  <advance width="541"/>
  <unicode hex="004C"/>
  <anchor x="366.667" y="740" name="t.uni0302"/>
  <anchor x="248" y="-60" name="b.minus-60"/>
  <outline>
    <contour>
      <point x="330.667" y="41" type="curve" smooth="yes"/>
      <point x="274.667" y="41" type="line" smooth="yes"/>
      <point x="242.333" y="41"/>
      <point x="223" y="67"/>
      <point x="231.333" y="110.333" type="curve" smooth="yes"/>
      <point x="312" y="525.667" type="line" smooth="yes"/>
      <point x="325.667" y="594.667"/>
      <point x="340.333" y="608.667"/>
      <point x="410.333" y="614.667" type="curve"/>
      <point x="419" y="620"/>
      <point x="422.333" y="640"/>
      <point x="415.667" y="647" type="curve"/>
      <point x="350" y="646"/>
      <point x="320" y="645"/>
      <point x="284" y="645" type="curve" smooth="yes"/>
      <point x="263.333" y="645" type="line"/>
      <point x="138.333" y="0" type="line"/>
      <point x="145" y="0"/>
      <point x="154" y="0"/>
      <point x="159.333" y="0" type="curve" smooth="yes"/>
      <point x="351" y="0" type="line" smooth="yes"/>
      <point x="389.667" y="0"/>
      <point x="445.333" y="-1.33333"/>
      <point x="478.333" y="-2" type="curve"/>
      <point x="494" y="54"/>
      <point x="514" y="112.333"/>
      <point x="535.667" y="164.333" type="curve"/>
      <point x="528.333" y="169.667"/>
      <point x="511" y="172"/>
      <point x="499.667" y="170" type="curve"/>
      <point x="468.333" y="101.667"/>
      <point x="422.333" y="41"/>
    </contour>
    <contour>
      <point x="210" y="0" type="line"/>
      <point x="314.667" y="542" type="line"/>
      <point x="268.333" y="645" type="line"/>
      <point x="213.667" y="645"/>
      <point x="170" y="646"/>
      <point x="135.667" y="647" type="curve"/>
      <point x="131.667" y="643"/>
      <point x="127.667" y="625.333"/>
      <point x="130.667" y="614.667" type="curve"/>
      <point x="183" y="611.333"/>
      <point x="201" y="600.667"/>
      <point x="201" y="572.333" type="curve" smooth="yes"/>
      <point x="201" y="559"/>
      <point x="199.333" y="543.667"/>
      <point x="195.333" y="521.667" type="curve" smooth="yes"/>
      <point x="118.333" y="122" type="line" smooth="yes"/>
      <point x="105.333" y="55.3333"/>
      <point x="85.6667" y="38"/>
      <point x="16.3333" y="30.3333" type="curve"/>
      <point x="10.3333" y="23"/>
      <point x="5.33333" y="5"/>
      <point x="10.3333" y="-2" type="curve"/>
      <point x="50" y="-1"/>
      <point x="109.333" y="0"/>
      <point x="141.667" y="0" type="curve" smooth="yes"/>
    </contour>
  </outline>
</glyph>
<glyph name="M" format="2">
  <advance width="843"/>
  <unicode hex="004D"/>
  <anchor x="548.667" y="740" name="t.uni0302"/>
  <anchor x="371.667" y="-60" name="b.minus-60"/>
  <outline>
    <contour>
      <point x="657.666" y="106.333" type="line" smooth="yes"/>
      <point x="651.999" y="65"/>
      <point x="644.999" y="42.333"/>
      <point x="625.999" y="36.333" type="curve"/>
      <point x="615.666" y="32"/>
      <point x="602.333" y="31.333"/>
      <point x="582.666" y="30.333" type="curve"/>
      <point x="579.333" y="28.333"/>
      <point x="575.666" y="22.666"/>
      <point x="574.666" y="16.333" type="curve"/>
      <point x="572.999" y="9.667"/>
      <point x="573.666" y="2.667"/>
      <point x="574.666" y="-1.333" type="curve"/>
      <point x="575.333" y="-2" type="line"/>
      <point x="615.999" y="-1"/>
      <point x="668.999" y="0"/>
      <point x="703.666" y="0" type="curve" smooth="yes"/>
      <point x="708.999" y="0"/>
      <point x="712.999" y="0"/>
      <point x="716.333" y="0" type="curve" smooth="yes"/>
      <point x="745.333" y="0"/>
      <point x="785.999" y="-1"/>
      <point x="822.333" y="-2" type="curve"/>
      <point x="825.333" y="0.333"/>
      <point x="826.666" y="5"/>
      <point x="828.333" y="10" type="curve"/>
      <point x="828.999" y="16.333" type="line"/>
      <point x="829.999" y="22"/>
      <point x="829.666" y="27.333"/>
      <point x="826.999" y="29.666" type="curve"/>
      <point x="817.999" y="30.666"/>
      <point x="810.333" y="31"/>
      <point x="803.333" y="31.666" type="curve" smooth="yes"/>
      <point x="794.666" y="32.333" type="line"/>
      <point x="775.333" y="35"/>
      <point x="767.999" y="42.666"/>
      <point x="765.999" y="58.333" type="curve" smooth="yes"/>
      <point x="765.333" y="64.666"/>
      <point x="765.666" y="72.333"/>
      <point x="765.999" y="82.333" type="curve"/>
      <point x="766.999" y="92.666"/>
      <point x="768.666" y="104.333"/>
      <point x="770.333" y="118.666" type="curve" smooth="yes"/>
      <point x="823.999" y="543.667" type="line"/>
      <point x="824.999" y="554"/>
      <point x="825.999" y="563"/>
      <point x="827.666" y="571.334" type="curve" smooth="yes"/>
      <point x="832.666" y="595.334"/>
      <point x="843.666" y="607.334"/>
      <point x="871.333" y="611.334" type="curve"/>
      <point x="879.999" y="612" type="line"/>
      <point x="886.999" y="613.334"/>
      <point x="894.999" y="614"/>
      <point x="904.666" y="615" type="curve"/>
      <point x="907.999" y="617.334"/>
      <point x="909.999" y="622.667"/>
      <point x="911.333" y="628.334" type="curve"/>
      <point x="912.333" y="635.333"/>
      <point x="912.333" y="642"/>
      <point x="910.666" y="646.333" type="curve"/>
      <point x="909.999" y="647" type="line"/>
      <point x="739.333" y="645.667" type="line"/>
      <point x="468.333" y="195.333" type="line"/>
      <point x="462.999" y="187.333"/>
      <point x="459.333" y="180.667"/>
      <point x="455.333" y="175.333" type="curve"/>
      <point x="453" y="175.333"/>
      <point x="452" y="176.666"/>
      <point x="450.333" y="179.667" type="curve"/>
      <point x="361" y="645.333" type="line"/>
      <point x="181.666" y="647" type="line"/>
      <point x="179.333" y="644.667"/>
      <point x="177.333" y="640"/>
      <point x="176.333" y="635" type="curve"/>
      <point x="175.666" y="628.334" type="line"/>
      <point x="174.333" y="623"/>
      <point x="175" y="617.667"/>
      <point x="176.666" y="615.334" type="curve"/>
      <point x="186" y="614.334"/>
      <point x="194" y="614"/>
      <point x="200.333" y="612.667" type="curve"/>
      <point x="209.333" y="612" type="line"/>
      <point x="228.333" y="610"/>
      <point x="236.666" y="605.334"/>
      <point x="238.666" y="592.667" type="curve"/>
      <point x="239.333" y="587.334"/>
      <point x="238.333" y="580"/>
      <point x="236.333" y="571.334" type="curve" smooth="yes"/>
      <point x="234.333" y="561.667"/>
      <point x="231.333" y="551"/>
      <point x="228" y="538" type="curve"/>
      <point x="107" y="118" type="line"/>
      <point x="104.333" y="107"/>
      <point x="100.666" y="97"/>
      <point x="98" y="88" type="curve"/>
      <point x="88.333" y="60.333"/>
      <point x="74.666" y="40.333"/>
      <point x="48" y="34.333" type="curve"/>
      <point x="39.333" y="33.666" type="line"/>
      <point x="33" y="32.333"/>
      <point x="25.666" y="30.666"/>
      <point x="17.666" y="29.666" type="curve"/>
      <point x="15.333" y="27.333"/>
      <point x="13" y="22"/>
      <point x="11.333" y="16.333" type="curve"/>
      <point x="10.333" y="9.667"/>
      <point x="10.333" y="2.667"/>
      <point x="11.333" y="-1.333" type="curve"/>
      <point x="12" y="-2" type="line"/>
      <point x="38.666" y="-1"/>
      <point x="67.333" y="-0.333"/>
      <point x="89.333" y="0" type="curve"/>
      <point x="91.666" y="0"/>
      <point x="93.666" y="0"/>
      <point x="95.666" y="0" type="curve" smooth="yes"/>
      <point x="118.666" y="0"/>
      <point x="169" y="-1"/>
      <point x="197.666" y="-2" type="curve"/>
      <point x="198.666" y="-1.333" type="line"/>
      <point x="201.333" y="2.667"/>
      <point x="203.666" y="9.667"/>
      <point x="204.333" y="16.333" type="curve"/>
      <point x="205.666" y="22"/>
      <point x="205.333" y="27.333"/>
      <point x="203" y="29.666" type="curve"/>
      <point x="194.666" y="30.666"/>
      <point x="187.333" y="32.333"/>
      <point x="181" y="34.333" type="curve"/>
      <point x="173" y="35" type="line"/>
      <point x="156" y="39.333"/>
      <point x="149" y="50.333"/>
      <point x="147.666" y="65.333" type="curve"/>
      <point x="147" y="77.333"/>
      <point x="150" y="93"/>
      <point x="155" y="110.666" type="curve" smooth="yes"/>
      <point x="262.333" y="506.667" type="line"/>
      <point x="265.666" y="506.667" type="line"/>
      <point x="360" y="5" type="line" smooth="yes"/>
      <point x="361.333" y="-2"/>
      <point x="369.666" y="-7.333"/>
      <point x="375.666" y="-7.333" type="curve" smooth="yes"/>
      <point x="381.333" y="-7.333"/>
      <point x="389" y="-3.667"/>
      <point x="394" y="5" type="curve" smooth="yes"/>
      <point x="712.999" y="534" type="line"/>
      <point x="714.999" y="534" type="line"/>
    </contour>
  </outline>
</glyph>
<glyph name="N" format="2">
  <advance width="695"/>
  <unicode hex="004E"/>
  <anchor x="463.667" y="740" name="t.uni0302"/>
  <anchor x="305" y="-60" name="b.minus-60"/>
  <outline>
    <contour>
      <point x="603.666" y="7" type="curve"/>
      <point x="605.333" y="16"/>
      <point x="613.333" y="72.666"/>
      <point x="618.999" y="102.333" type="curve" smooth="yes"/>
      <point x="698.999" y="513.334" type="line" smooth="yes"/>
      <point x="702.666" y="532.667"/>
      <point x="706.666" y="548.334"/>
      <point x="710.999" y="561.667" type="curve" smooth="yes"/>
      <point x="719.666" y="589.667"/>
      <point x="734.666" y="605"/>
      <point x="762.666" y="610" type="curve"/>
      <point x="773.666" y="612.334"/>
      <point x="785.999" y="613"/>
      <point x="800.333" y="614.667" type="curve"/>
      <point x="803.999" y="616.667"/>
      <point x="807.999" y="622.334"/>
      <point x="808.666" y="628.667" type="curve"/>
      <point x="810.333" y="635.333"/>
      <point x="810.333" y="642.333"/>
      <point x="808.666" y="646.333" type="curve"/>
      <point x="807.999" y="647" type="line"/>
      <point x="761.666" y="646"/>
      <point x="736.999" y="645"/>
      <point x="701.333" y="645" type="curve" smooth="yes"/>
      <point x="663.333" y="645"/>
      <point x="634.333" y="646"/>
      <point x="587.333" y="647" type="curve"/>
      <point x="584.999" y="644.667"/>
      <point x="582.999" y="640"/>
      <point x="581.333" y="635" type="curve"/>
      <point x="580.333" y="628.334"/>
      <point x="579.999" y="621.334"/>
      <point x="580.999" y="617.334" type="curve"/>
      <point x="585.999" y="615.334"/>
      <point x="593.999" y="613.334"/>
      <point x="599.666" y="612.667" type="curve" smooth="yes"/>
      <point x="606.999" y="611.667"/>
      <point x="613.666" y="611"/>
      <point x="619.666" y="610" type="curve" smooth="yes"/>
      <point x="644.333" y="606"/>
      <point x="654.666" y="592.667"/>
      <point x="654.666" y="567.334" type="curve" smooth="yes"/>
      <point x="654.666" y="565.667"/>
      <point x="654.333" y="564"/>
      <point x="653.999" y="562.334" type="curve"/>
      <point x="652.999" y="549.334"/>
      <point x="650.999" y="533.334"/>
      <point x="646.666" y="513.667" type="curve"/>
      <point x="591.333" y="226.667" type="line"/>
      <point x="588.666" y="213.333" type="line" smooth="yes"/>
      <point x="585.999" y="201"/>
      <point x="583.999" y="194"/>
      <point x="579.999" y="192.667" type="curve"/>
      <point x="574.666" y="190"/>
      <point x="568.666" y="195.667"/>
      <point x="561.999" y="206" type="curve" smooth="yes"/>
      <point x="559.999" y="209"/>
      <point x="557.666" y="213.667"/>
      <point x="553.999" y="219.667" type="curve" smooth="yes"/>
      <point x="367" y="534.334" type="line"/>
      <point x="300.333" y="645.667" type="line"/>
      <point x="147" y="647" type="line"/>
      <point x="146" y="646.333" type="line"/>
      <point x="141" y="640.333"/>
      <point x="137.666" y="623.334"/>
      <point x="140.666" y="617.334" type="curve"/>
      <point x="146" y="615"/>
      <point x="153.666" y="613.667"/>
      <point x="160" y="611.334" type="curve"/>
      <point x="188.333" y="603"/>
      <point x="204.666" y="572.667"/>
      <point x="205.666" y="550" type="curve"/>
      <point x="124.333" y="131.333" type="line" smooth="yes"/>
      <point x="120.666" y="112.333"/>
      <point x="116.666" y="96.333"/>
      <point x="112.333" y="83.333" type="curve" smooth="yes"/>
      <point x="103.666" y="56.333"/>
      <point x="88.333" y="40"/>
      <point x="59.666" y="35" type="curve"/>
      <point x="49" y="32.666"/>
      <point x="36.666" y="32"/>
      <point x="22.666" y="30.333" type="curve"/>
      <point x="17.666" y="28"/>
      <point x="14.333" y="22.333"/>
      <point x="13.333" y="16" type="curve"/>
      <point x="11.666" y="9.333"/>
      <point x="12.333" y="2.667"/>
      <point x="13.333" y="-1.333" type="curve"/>
      <point x="14" y="-2" type="line"/>
      <point x="58" y="-1"/>
      <point x="82" y="0"/>
      <point x="118.333" y="0" type="curve" smooth="yes"/>
      <point x="122.666" y="0" type="line" smooth="yes"/>
      <point x="160.666" y="0"/>
      <point x="187" y="-1"/>
      <point x="234" y="-2" type="curve"/>
      <point x="237" y="0.333"/>
      <point x="239" y="5"/>
      <point x="240" y="10" type="curve"/>
      <point x="240.666" y="16.333" type="line"/>
      <point x="242.333" y="22"/>
      <point x="242" y="27.333"/>
      <point x="239.666" y="29.666" type="curve"/>
      <point x="234" y="31"/>
      <point x="228.333" y="31.666"/>
      <point x="223.333" y="32.333" type="curve" smooth="yes"/>
      <point x="216" y="33.333"/>
      <point x="209" y="34"/>
      <point x="203" y="35" type="curve" smooth="yes"/>
      <point x="179" y="39"/>
      <point x="168" y="52"/>
      <point x="168" y="77.666" type="curve" smooth="yes"/>
      <point x="168" y="79.333"/>
      <point x="168.333" y="81"/>
      <point x="168.666" y="82.666" type="curve"/>
      <point x="169.666" y="95.666"/>
      <point x="172.333" y="111.333"/>
      <point x="176" y="131" type="curve" smooth="yes"/>
      <point x="234.666" y="433" type="line" smooth="yes"/>
      <point x="238.333" y="451"/>
      <point x="242.666" y="462.667"/>
      <point x="249" y="462.667" type="curve" smooth="yes"/>
      <point x="253" y="462.667"/>
      <point x="258.666" y="456.333"/>
      <point x="266.333" y="444.333" type="curve"/>
      <point x="267.333" y="442.667"/>
      <point x="268.666" y="440.667"/>
      <point x="270" y="438.333" type="curve" smooth="yes"/>
      <point x="512.999" y="32" type="line" smooth="yes"/>
      <point x="517.333" y="24.666"/>
      <point x="521.999" y="17.333"/>
      <point x="525.666" y="10.667" type="curve"/>
      <point x="533.999" y="-3"/>
      <point x="542.333" y="-11.333"/>
      <point x="547.666" y="-11.333" type="curve" smooth="yes"/>
      <point x="574.666" y="-11.333"/>
      <point x="589.666" y="-5.333"/>
    </contour>
  </outline>
</glyph>
<glyph name="P" format="2">
  <advance width="548"/>
  <unicode hex="0050"/>
  <anchor x="373.667" y="740" name="t.uni0302"/>
  <anchor x="141.667" y="-60" name="b.minus-60"/>
  <outline>
    <contour>
      <point x="424.333" y="656.667" type="curve" smooth="yes"/>
      <point x="378" y="656.667"/>
      <point x="319.333" y="645"/>
      <point x="268.333" y="645" type="curve" smooth="yes"/>
      <point x="259.667" y="645" type="line"/>
      <point x="132" y="0" type="line"/>
      <point x="170" y="0"/>
      <point x="253.333" y="-1"/>
      <point x="293.667" y="-2" type="curve"/>
      <point x="301.333" y="2.333"/>
      <point x="305.667" y="23"/>
      <point x="298.667" y="30.333" type="curve"/>
      <point x="254.333" y="34.666"/>
      <point x="218" y="43.333"/>
      <point x="225.667" y="83" type="curve" smooth="yes"/>
      <point x="311.333" y="523.334" type="line" smooth="yes"/>
      <point x="325.333" y="595.334"/>
      <point x="341.333" y="618"/>
      <point x="393.667" y="618" type="curve" smooth="yes"/>
      <point x="444" y="618"/>
      <point x="495.333" y="598"/>
      <point x="495.333" y="518" type="curve" smooth="yes"/>
      <point x="495.333" y="420"/>
      <point x="454" y="318"/>
      <point x="341.333" y="318" type="curve" smooth="yes"/>
      <point x="314.333" y="318"/>
      <point x="300" y="319.667"/>
      <point x="278.667" y="324.333" type="curve"/>
      <point x="275.667" y="308"/>
      <point x="278.667" y="295"/>
      <point x="288.667" y="285.667" type="curve"/>
      <point x="306.333" y="280.667"/>
      <point x="319" y="278.667"/>
      <point x="338.667" y="278.667" type="curve" smooth="yes"/>
      <point x="485" y="278.667"/>
      <point x="621" y="357"/>
      <point x="621" y="518" type="curve" smooth="yes"/>
      <point x="621" y="616.334"/>
      <point x="536.333" y="656.667"/>
    </contour>
    <contour>
      <point x="210" y="0" type="line"/>
      <point x="314.667" y="542" type="line"/>
      <point x="268.333" y="645" type="line"/>
      <point x="213.667" y="645"/>
      <point x="170" y="646"/>
      <point x="135.667" y="647" type="curve"/>
      <point x="131.667" y="643"/>
      <point x="127.667" y="625.333"/>
      <point x="130.667" y="614.667" type="curve"/>
      <point x="183" y="611.334"/>
      <point x="201" y="600.667"/>
      <point x="201" y="572.334" type="curve" smooth="yes"/>
      <point x="201" y="559"/>
      <point x="199.333" y="543.667"/>
      <point x="195.333" y="521.667" type="curve" smooth="yes"/>
      <point x="118.333" y="122" type="line" smooth="yes"/>
      <point x="105.333" y="55.333"/>
      <point x="85.667" y="38"/>
      <point x="16.333" y="30.333" type="curve"/>
      <point x="10.333" y="23"/>
      <point x="5.333" y="5"/>
      <point x="10.333" y="-2" type="curve"/>
      <point x="50" y="-1"/>
      <point x="109.333" y="0"/>
      <point x="141.667" y="0" type="curve" smooth="yes"/>
    </contour>
  </outline>
</glyph>
<glyph name="Q" format="2">
  <advance width="689"/>
  <unicode hex="0051"/>
  <anchor x="485.333" y="740" name="t.uni0302"/>
  <outline>
    <component base="O"/>
    <contour>
      <point x="127" y="-128.667" type="curve" smooth="yes"/>
      <point x="104" y="-153" type="line"/>
      <point x="135.667" y="-179.667" type="line"/>
      <point x="179.667" y="-134" type="line" smooth="yes"/>
      <point x="191.333" y="-121.667"/>
      <point x="210.667" y="-120.667"/>
      <point x="217.667" y="-120.667" type="curve" smooth="yes"/>
      <point x="306" y="-120.667"/>
      <point x="348" y="-222"/>
      <point x="471.667" y="-222" type="curve" smooth="yes"/>
      <point x="536.667" y="-222"/>
      <point x="585.333" y="-183.334"/>
      <point x="627.667" y="-133.667" type="curve"/>
      <point x="615" y="-115" type="line"/>
      <point x="592" y="-139.334"/>
      <point x="557.667" y="-152"/>
      <point x="524.333" y="-152" type="curve" smooth="yes"/>
      <point x="439.667" y="-152"/>
      <point x="385.333" y="-63.334"/>
      <point x="280" y="-63.334" type="curve" smooth="yes"/>
      <point x="277.333" y="-63.334"/>
      <point x="274.667" y="-63.334"/>
      <point x="271.667" y="-63.667" type="curve"/>
      <point x="270.333" y="-63.667" type="line"/>
      <point x="318.667" y="-33.001"/>
      <point x="362.667" y="-13.667"/>
      <point x="393" y="-4.001" type="curve"/>
      <point x="393" y="0.333" type="line"/>
      <point x="311" y="0.333" type="line"/>
      <point x="241.333" y="-31.001"/>
      <point x="172.333" y="-81.667"/>
    </contour>
  </outline>
</glyph>
<glyph name="R" format="2">
  <advance width="629"/>
  <unicode hex="0052"/>
  <anchor x="408.667" y="740" name="t.uni0302"/>
  <anchor x="314.667" y="-60" name="b.minus-60"/>
  <outline>
    <contour>
      <point x="422" y="654" type="curve" smooth="yes"/>
      <point x="402" y="654"/>
      <point x="341.333" y="645"/>
      <point x="286" y="645" type="curve" smooth="yes"/>
      <point x="268.333" y="645" type="line"/>
      <point x="144" y="0" type="line"/>
      <point x="184" y="0"/>
      <point x="248" y="-1"/>
      <point x="291" y="-2" type="curve"/>
      <point x="295" y="4"/>
      <point x="299.333" y="21.666"/>
      <point x="295.333" y="29.666" type="curve"/>
      <point x="266.667" y="32.333"/>
      <point x="226.333" y="40"/>
      <point x="226.333" y="69.666" type="curve" smooth="yes"/>
      <point x="226.333" y="77"/>
      <point x="226.333" y="81"/>
      <point x="229.333" y="97.333" type="curve" smooth="yes"/>
      <point x="264.333" y="285.667" type="line"/>
      <point x="327.333" y="285.667"/>
      <point x="352.333" y="273.667"/>
      <point x="365.333" y="244.334" type="curve" smooth="yes"/>
      <point x="435" y="83.333" type="line" smooth="yes"/>
      <point x="471.333" y="0"/>
      <point x="499.333" y="-12"/>
      <point x="580.667" y="-8.667" type="curve" smooth="yes"/>
      <point x="600.667" y="-8"/>
      <point x="619" y="-6"/>
      <point x="626.667" y="-2.333" type="curve"/>
      <point x="632.333" y="6.667"/>
      <point x="632.333" y="17.333"/>
      <point x="631.667" y="28.333" type="curve"/>
      <point x="588.667" y="28.333"/>
      <point x="570" y="55.666"/>
      <point x="552.667" y="98" type="curve" smooth="yes"/>
      <point x="466" y="308" type="line"/>
      <point x="553.667" y="340"/>
      <point x="620.333" y="414.667"/>
      <point x="620.333" y="509" type="curve" smooth="yes"/>
      <point x="620.333" y="628.667"/>
      <point x="524.333" y="654"/>
    </contour>
    <contour>
      <point x="498.333" y="515.667" type="curve" smooth="yes"/>
      <point x="498.333" y="396.667"/>
      <point x="438.333" y="325"/>
      <point x="315.667" y="325" type="curve" smooth="yes"/>
      <point x="272.333" y="325" type="line"/>
      <point x="318.667" y="562" type="line" smooth="yes"/>
      <point x="326.667" y="601.667"/>
      <point x="343.333" y="616.667"/>
      <point x="394" y="616.667" type="curve" smooth="yes"/>
      <point x="443" y="616.667"/>
      <point x="498.333" y="597.334"/>
    </contour>
    <contour>
      <point x="210" y="0" type="line"/>
      <point x="314.667" y="542" type="line"/>
      <point x="268.333" y="645" type="line"/>
      <point x="213.667" y="645"/>
      <point x="170" y="646"/>
      <point x="135.667" y="647" type="curve"/>
      <point x="131.667" y="643"/>
      <point x="127.667" y="625.334"/>
      <point x="130.667" y="614.667" type="curve"/>
      <point x="183" y="611.334"/>
      <point x="201" y="600.667"/>
      <point x="201" y="572.334" type="curve" smooth="yes"/>
      <point x="201" y="559"/>
      <point x="199.333" y="543.667"/>
      <point x="195.333" y="521.667" type="curve" smooth="yes"/>
      <point x="118.333" y="122" type="line" smooth="yes"/>
      <point x="105.333" y="55.333"/>
      <point x="85.667" y="38"/>
      <point x="16.333" y="30.333" type="curve"/>
      <point x="10.333" y="23"/>
      <point x="5.333" y="5"/>
      <point x="10.333" y="-2" type="curve"/>
      <point x="50" y="-1"/>
      <point x="109.333" y="0"/>
      <point x="141.667" y="0" type="curve" smooth="yes"/>
    </contour>
  </outline>
</glyph>
<glyph name="S" format="2">
  <advance width="473"/>
  <unicode hex="0053"/>
  <anchor x="366" y="740" name="t.uni0302"/>
  <anchor x="232.667" y="0" name="b.cedilla"/>
  <anchor x="207.333" y="-60" name="b.minus-60"/>
  <outline>
    <contour>
      <point x="515" y="628.666" type="curve"/>
      <point x="457.334" y="639.667"/>
      <point x="426.334" y="658"/>
      <point x="364.667" y="658" type="curve" smooth="yes"/>
      <point x="239.999" y="658"/>
      <point x="133.333" y="577.333"/>
      <point x="133.333" y="450.666" type="curve" smooth="yes"/>
      <point x="133.333" y="372.333"/>
      <point x="184" y="324.333"/>
      <point x="250.999" y="282" type="curve" smooth="yes"/>
      <point x="280.333" y="263" type="line" smooth="yes"/>
      <point x="324" y="234.333"/>
      <point x="356.667" y="202.667"/>
      <point x="356.667" y="149.333" type="curve" smooth="yes"/>
      <point x="356.667" y="75"/>
      <point x="302" y="30"/>
      <point x="229.333" y="30" type="curve" smooth="yes"/>
      <point x="158.333" y="30"/>
      <point x="103.334" y="79.667"/>
      <point x="103.334" y="174.667" type="curve"/>
      <point x="99.001" y="176.333"/>
      <point x="94.334" y="177.333"/>
      <point x="88.667" y="177.333" type="curve" smooth="yes"/>
      <point x="79.667" y="177.333"/>
      <point x="69.667" y="175.333"/>
      <point x="60.667" y="171.667" type="curve"/>
      <point x="50.334" y="120"/>
      <point x="48.334" y="58.333"/>
      <point x="47.667" y="8.333" type="curve"/>
      <point x="103.667" y="8.333"/>
      <point x="110.667" y="-10"/>
      <point x="226.333" y="-10" type="curve" smooth="yes"/>
      <point x="344.334" y="-10"/>
      <point x="474" y="78"/>
      <point x="474" y="202.667" type="curve" smooth="yes"/>
      <point x="474" y="287"/>
      <point x="438.334" y="332.333"/>
      <point x="363" y="374" type="curve" smooth="yes"/>
      <point x="321.333" y="396.666" type="line" smooth="yes"/>
      <point x="284" y="417"/>
      <point x="244.666" y="456"/>
      <point x="244.666" y="507.333" type="curve" smooth="yes"/>
      <point x="244.666" y="573.333"/>
      <point x="299.666" y="617.333"/>
      <point x="355.667" y="617.333" type="curve" smooth="yes"/>
      <point x="440.334" y="617.333"/>
      <point x="452" y="547"/>
      <point x="456.667" y="481.666" type="curve"/>
      <point x="461.334" y="479.666"/>
      <point x="467.667" y="478.333"/>
      <point x="474.333" y="478.333" type="curve" smooth="yes"/>
      <point x="483.333" y="478.333"/>
      <point x="493" y="480.333"/>
      <point x="499.667" y="484.333" type="curve"/>
      <point x="508.334" y="536.333"/>
      <point x="511.667" y="573.333"/>
    </contour>
  </outline>
</glyph>
<glyph name="T" format="2">
  <advance width="598"/>
  <unicode hex="0054"/>
  <anchor x="447.333" y="740" name="t.uni0302"/>
  <anchor x="302" y="-60" name="b.minus-60"/>
  <anchor x="318" y="10" name="b.cedilla"/>
  <outline>
    <contour>
      <point x="163" y="-2" type="curve"/>
      <point x="209.333" y="-1"/>
      <point x="255.333" y="0"/>
      <point x="309" y="0" type="curve" smooth="yes"/>
      <point x="363.667" y="0"/>
      <point x="412" y="-1"/>
      <point x="458.667" y="-2" type="curve"/>
      <point x="464.333" y="3.33333"/>
      <point x="468.667" y="24.6667"/>
      <point x="464.333" y="30.3333" type="curve"/>
      <point x="391.333" y="34.6667"/>
      <point x="375.667" y="41.6667"/>
      <point x="388.333" y="107.333" type="curve" smooth="yes"/>
      <point x="469.333" y="523.333" type="line" smooth="yes"/>
      <point x="476.333" y="557.667"/>
      <point x="493" y="605.333"/>
      <point x="529.333" y="605.333" type="curve" smooth="yes"/>
      <point x="562" y="605.333" type="line" smooth="yes"/>
      <point x="612.667" y="605.333"/>
      <point x="649" y="580"/>
      <point x="662" y="505.667" type="curve"/>
      <point x="672.667" y="505.667"/>
      <point x="688" y="506.333"/>
      <point x="698" y="510.667" type="curve"/>
      <point x="695.667" y="560.333"/>
      <point x="698.333" y="609.333"/>
      <point x="704.667" y="652.333" type="curve"/>
      <point x="702.667" y="655" type="line"/>
      <point x="672.333" y="649.667"/>
      <point x="593.667" y="645"/>
      <point x="531" y="645" type="curve" smooth="yes"/>
      <point x="329.667" y="645" type="line" smooth="yes"/>
      <point x="271.667" y="645"/>
      <point x="189.667" y="649.667"/>
      <point x="158.333" y="654.667" type="curve"/>
      <point x="154.333" y="652.667" type="line"/>
      <point x="141.667" y="606.333"/>
      <point x="126.333" y="561.667"/>
      <point x="104.333" y="512" type="curve"/>
      <point x="113" y="507.667"/>
      <point x="127.333" y="506.333"/>
      <point x="138.333" y="506.333" type="curve"/>
      <point x="174" y="580.667"/>
      <point x="212.333" y="605.333"/>
      <point x="269.333" y="605.333" type="curve" smooth="yes"/>
      <point x="323.667" y="605.333" type="line" smooth="yes"/>
      <point x="358.667" y="605.333"/>
      <point x="359.333" y="551.667"/>
      <point x="354.333" y="526.333" type="curve" smooth="yes"/>
      <point x="272.667" y="107.333" type="line" smooth="yes"/>
      <point x="260" y="41.3333"/>
      <point x="240" y="33.6667"/>
      <point x="167.667" y="30.3333" type="curve"/>
      <point x="161.667" y="25"/>
      <point x="158.333" y="5"/>
    </contour>
  </outline>
  <guideline angle="0" x="0" y="-60"/>
</glyph>
<glyph name="V" format="2">
  <advance width="646"/>
  <unicode hex="0056"/>
  <anchor x="486" y="740" name="t.uni0302"/>
  <anchor x="310.333" y="-60" name="b.minus-60"/>
  <outline>
    <contour>
      <point x="656.333" y="546.333" type="line" smooth="yes"/>
      <point x="686" y="597.333"/>
      <point x="717.333" y="610.667"/>
      <point x="763.667" y="614.667" type="curve"/>
      <point x="770.333" y="620.667"/>
      <point x="773.667" y="641"/>
      <point x="768.333" y="647" type="curve"/>
      <point x="734.333" y="646"/>
      <point x="714" y="645"/>
      <point x="681.667" y="645" type="curve" smooth="yes"/>
      <point x="680" y="645"/>
      <point x="678" y="645"/>
      <point x="676.333" y="645" type="curve" smooth="yes"/>
      <point x="641.667" y="645"/>
      <point x="591.667" y="646"/>
      <point x="555" y="647" type="curve"/>
      <point x="548.333" y="641"/>
      <point x="545" y="620.667"/>
      <point x="550.333" y="614.667" type="curve"/>
      <point x="591" y="611.333"/>
      <point x="628.667" y="602.667"/>
      <point x="607.667" y="564.333" type="curve" smooth="yes"/>
      <point x="409" y="207.333" type="line"/>
      <point x="384.667" y="165" type="line"/>
      <point x="382" y="161.667"/>
      <point x="380" y="158"/>
      <point x="377" y="156.333" type="curve"/>
      <point x="369" y="214.667" type="line"/>
      <point x="319" y="572.667" type="line" smooth="yes"/>
      <point x="314" y="605.667"/>
      <point x="352" y="612"/>
      <point x="395" y="614.667" type="curve"/>
      <point x="401.667" y="620.667"/>
      <point x="405" y="641"/>
      <point x="399.667" y="647" type="curve"/>
      <point x="366.667" y="646"/>
      <point x="289.667" y="645"/>
      <point x="253.333" y="645" type="curve" smooth="yes"/>
      <point x="247" y="645"/>
      <point x="240.333" y="645"/>
      <point x="232.667" y="645" type="curve" smooth="yes"/>
      <point x="195.333" y="645"/>
      <point x="158" y="646"/>
      <point x="125.333" y="647" type="curve"/>
      <point x="118.667" y="641"/>
      <point x="116" y="620.667"/>
      <point x="121.333" y="614.667" type="curve"/>
      <point x="160" y="610.333"/>
      <point x="188" y="608"/>
      <point x="196.667" y="558" type="curve" smooth="yes"/>
      <point x="292.333" y="11" type="line" smooth="yes"/>
      <point x="295" y="-4"/>
      <point x="305.667" y="-12"/>
      <point x="316.333" y="-12" type="curve" smooth="yes"/>
      <point x="326.667" y="-12"/>
      <point x="340.667" y="0"/>
      <point x="349.667" y="15.3333" type="curve" smooth="yes"/>
    </contour>
  </outline>
</glyph>
<glyph name="X" format="2">
  <advance width="669"/>
  <unicode hex="0058"/>
  <anchor x="474.667" y="740" name="t.uni0302"/>
  <anchor x="302.333" y="-60" name="b.minus-60"/>
  <outline>
    <contour>
      <point x="439.999" y="83.667" type="line"/>
      <point x="446.999" y="69"/>
      <point x="451.666" y="58"/>
      <point x="450.999" y="50" type="curve" smooth="yes"/>
      <point x="450.333" y="40.667"/>
      <point x="441.999" y="35.667"/>
      <point x="423.666" y="33" type="curve"/>
      <point x="416.999" y="32.334" type="line"/>
      <point x="412.333" y="31.667"/>
      <point x="407.999" y="30.667"/>
      <point x="401.999" y="30.334" type="curve"/>
      <point x="400.333" y="28.667"/>
      <point x="398.999" y="25.334"/>
      <point x="397.333" y="22" type="curve"/>
      <point x="394.999" y="13.667"/>
      <point x="393.666" y="4.334"/>
      <point x="395.333" y="-0.666" type="curve"/>
      <point x="396.333" y="-1.333" type="line"/>
      <point x="435.666" y="-0.333"/>
      <point x="499.666" y="0.667"/>
      <point x="533.666" y="0.667" type="curve" smooth="yes"/>
      <point x="544.333" y="0.667" type="line" smooth="yes"/>
      <point x="577.666" y="0.667"/>
      <point x="630.333" y="-0.333"/>
      <point x="660.666" y="-1.333" type="curve"/>
      <point x="662.333" y="0.334"/>
      <point x="663.666" y="3"/>
      <point x="665.333" y="6" type="curve"/>
      <point x="666.333" y="11.667"/>
      <point x="667.666" y="16.334"/>
      <point x="667.999" y="22" type="curve"/>
      <point x="667.999" y="25.334"/>
      <point x="667.999" y="28.334"/>
      <point x="666.333" y="30.334" type="curve"/>
      <point x="663.333" y="30.667"/>
      <point x="659.666" y="31.667"/>
      <point x="655.999" y="31.667" type="curve"/>
      <point x="622.333" y="36"/>
      <point x="599.999" y="52.667"/>
      <point x="579.333" y="95.667" type="curve"/>
      <point x="576.999" y="99.667"/>
      <point x="574.999" y="104"/>
      <point x="572.999" y="108.667" type="curve"/>
      <point x="471.999" y="322" type="line" smooth="yes"/>
      <point x="467.999" y="330.334"/>
      <point x="465.666" y="336.667"/>
      <point x="464.333" y="342.667" type="curve"/>
      <point x="463.666" y="346.667"/>
      <point x="462.999" y="349.667"/>
      <point x="462.999" y="353" type="curve" smooth="yes"/>
      <point x="462.999" y="363.334"/>
      <point x="468.999" y="371.667"/>
      <point x="480.666" y="384.334" type="curve" smooth="yes"/>
      <point x="631.333" y="547.334" type="line" smooth="yes"/>
      <point x="637.666" y="554.334"/>
      <point x="643.666" y="560.667"/>
      <point x="649.666" y="567.334" type="curve" smooth="yes"/>
      <point x="677.666" y="597.334"/>
      <point x="705.333" y="610"/>
      <point x="745.333" y="613.334" type="curve"/>
      <point x="749.333" y="614"/>
      <point x="753.666" y="615"/>
      <point x="757.333" y="615.334" type="curve"/>
      <point x="759.333" y="617.334"/>
      <point x="760.666" y="620.667"/>
      <point x="761.999" y="623.667" type="curve"/>
      <point x="764.333" y="632"/>
      <point x="764.999" y="641.333"/>
      <point x="763.333" y="646.333" type="curve"/>
      <point x="762.666" y="647" type="line"/>
      <point x="730.333" y="646"/>
      <point x="687.999" y="645"/>
      <point x="665.999" y="645" type="curve" smooth="yes"/>
      <point x="643.999" y="645"/>
      <point x="598.666" y="646"/>
      <point x="560.333" y="647" type="curve"/>
      <point x="558.666" y="645.333"/>
      <point x="557.333" y="642.667"/>
      <point x="555.666" y="639.667" type="curve"/>
      <point x="554.666" y="634"/>
      <point x="553.333" y="629.334"/>
      <point x="552.999" y="623.667" type="curve"/>
      <point x="552.999" y="620.334"/>
      <point x="552.999" y="617"/>
      <point x="554.666" y="615.334" type="curve"/>
      <point x="559.666" y="615"/>
      <point x="564.333" y="614"/>
      <point x="568.333" y="612.667" type="curve"/>
      <point x="575.333" y="611.667"/>
      <point x="581.333" y="611"/>
      <point x="586.333" y="609.334" type="curve" smooth="yes"/>
      <point x="595.333" y="606.334"/>
      <point x="599.666" y="601"/>
      <point x="599.666" y="594.334" type="curve" smooth="yes"/>
      <point x="599.666" y="587.334"/>
      <point x="594.999" y="578"/>
      <point x="585.999" y="566.667" type="curve" smooth="yes"/>
      <point x="545.999" y="516.334"/>
      <point x="502.333" y="462.667"/>
      <point x="452.999" y="412.334" type="curve"/>
      <point x="449.999" y="409" type="line" smooth="yes"/>
      <point x="444.999" y="403.667"/>
      <point x="440.666" y="401"/>
      <point x="437.666" y="401" type="curve" smooth="yes"/>
      <point x="432.999" y="401"/>
      <point x="429.999" y="407"/>
      <point x="425.333" y="418" type="curve" smooth="yes"/>
      <point x="369.666" y="553.667" type="line"/>
      <point x="365.999" y="562" type="line"/>
      <point x="359.999" y="576.667"/>
      <point x="356.666" y="588"/>
      <point x="359.333" y="596.334" type="curve"/>
      <point x="360.666" y="602.667"/>
      <point x="365.999" y="607.667"/>
      <point x="376.999" y="610" type="curve"/>
      <point x="383.333" y="611.667"/>
      <point x="389.999" y="612.334"/>
      <point x="397.666" y="613.334" type="curve" smooth="yes"/>
      <point x="401.999" y="614"/>
      <point x="406.333" y="615"/>
      <point x="411.999" y="615.334" type="curve"/>
      <point x="413.999" y="617"/>
      <point x="415.666" y="620.334"/>
      <point x="416.999" y="623.667" type="curve"/>
      <point x="417.999" y="629"/>
      <point x="418.999" y="634"/>
      <point x="419.333" y="639.333" type="curve"/>
      <point x="418.999" y="642"/>
      <point x="418.999" y="645.667"/>
      <point x="417.666" y="647" type="curve"/>
      <point x="383.333" y="646"/>
      <point x="331.999" y="645.333"/>
      <point x="298.999" y="645.333" type="curve"/>
      <point x="284.666" y="645"/>
      <point x="265.999" y="645"/>
      <point x="248.666" y="645" type="curve"/>
      <point x="217" y="645.667"/>
      <point x="177" y="646"/>
      <point x="152.333" y="647" type="curve"/>
      <point x="150.666" y="645.333"/>
      <point x="149" y="642.333"/>
      <point x="147.333" y="639.333" type="curve"/>
      <point x="145.666" y="631.333"/>
      <point x="145" y="621.667"/>
      <point x="146.666" y="617" type="curve"/>
      <point x="149" y="615.667"/>
      <point x="154" y="614.667"/>
      <point x="158.666" y="614" type="curve"/>
      <point x="159.333" y="614" type="line"/>
      <point x="186" y="609.667"/>
      <point x="205.333" y="598.334"/>
      <point x="229.999" y="547.667" type="curve" smooth="yes"/>
      <point x="328.666" y="344" type="line"/>
      <point x="334.666" y="333.667"/>
      <point x="337.666" y="326"/>
      <point x="337.666" y="319.334" type="curve"/>
      <point x="338.333" y="316.667"/>
      <point x="337.333" y="314"/>
      <point x="336.666" y="312" type="curve"/>
      <point x="334.999" y="306"/>
      <point x="329.666" y="299"/>
      <point x="321.999" y="291" type="curve" smooth="yes"/>
      <point x="152.666" y="108.667" type="line" smooth="yes"/>
      <point x="144.333" y="99.334"/>
      <point x="134.666" y="89.667"/>
      <point x="125.666" y="79.667" type="curve"/>
      <point x="96.333" y="50.334"/>
      <point x="64.666" y="35.667"/>
      <point x="25.666" y="31.667" type="curve"/>
      <point x="22" y="31.667"/>
      <point x="17.666" y="31"/>
      <point x="14.333" y="30.334" type="curve"/>
      <point x="12.333" y="28.667"/>
      <point x="10.666" y="25.667"/>
      <point x="9" y="22" type="curve"/>
      <point x="7.333" y="16.334"/>
      <point x="6" y="11.667"/>
      <point x="5.666" y="6" type="curve"/>
      <point x="5.666" y="3"/>
      <point x="5.666" y="0.334"/>
      <point x="7" y="-1.333" type="curve"/>
      <point x="31.333" y="-0.333"/>
      <point x="64" y="0.667"/>
      <point x="90.666" y="0.667" type="curve" smooth="yes"/>
      <point x="100" y="0.667"/>
      <point x="108" y="0.667"/>
      <point x="114.333" y="0.667" type="curve"/>
      <point x="137.333" y="0.334"/>
      <point x="182.666" y="-0.333"/>
      <point x="219.333" y="-1.333" type="curve"/>
      <point x="220.333" y="-0.666" type="line"/>
      <point x="223.999" y="4.334"/>
      <point x="226.666" y="13.667"/>
      <point x="227.666" y="22" type="curve"/>
      <point x="227.666" y="25.334"/>
      <point x="227.666" y="28.334"/>
      <point x="225.999" y="30" type="curve"/>
      <point x="221.333" y="31.334"/>
      <point x="217" y="31.667"/>
      <point x="212.666" y="33" type="curve"/>
      <point x="206.666" y="33.667" type="line"/>
      <point x="190.333" y="36.334"/>
      <point x="182.666" y="42.667"/>
      <point x="182" y="52.667" type="curve"/>
      <point x="182" y="60.334"/>
      <point x="187" y="69.334"/>
      <point x="195" y="80.334" type="curve"/>
      <point x="243.666" y="139.667"/>
      <point x="291.666" y="199.334"/>
      <point x="344.333" y="258" type="curve"/>
      <point x="349.666" y="263.334"/>
      <point x="353.999" y="267.334"/>
      <point x="356.666" y="268" type="curve"/>
      <point x="361.999" y="268.667"/>
      <point x="365.999" y="263.667"/>
      <point x="371.333" y="251" type="curve" smooth="yes"/>
    </contour>
  </outline>
</glyph>
<glyph name="Z" format="2">
  <advance width="591"/>
  <unicode hex="005A"/>
  <anchor x="449.667" y="740" name="t.uni0302"/>
  <anchor x="269.667" y="-60" name="b.minus-60"/>
  <outline>
    <contour>
      <point x="28.333" y="11.333" type="curve" smooth="yes"/>
      <point x="28.333" y="4"/>
      <point x="33" y="0"/>
      <point x="43.666" y="0" type="curve" smooth="yes"/>
      <point x="322.666" y="0" type="line" smooth="yes"/>
      <point x="391.666" y="0"/>
      <point x="470.999" y="-1"/>
      <point x="539.666" y="-6.333" type="curve"/>
      <point x="543.666" y="-3.667" type="line"/>
      <point x="556.999" y="34.666"/>
      <point x="583.666" y="112.333"/>
      <point x="602.666" y="169.666" type="curve"/>
      <point x="595.666" y="173.333"/>
      <point x="580.333" y="174.666"/>
      <point x="568.333" y="174.666" type="curve"/>
      <point x="533.999" y="97.333"/>
      <point x="483.666" y="42.333"/>
      <point x="417.333" y="42.333" type="curve" smooth="yes"/>
      <point x="214.666" y="42.333" type="line" smooth="yes"/>
      <point x="199.333" y="42.333"/>
      <point x="193" y="45.333"/>
      <point x="193" y="51" type="curve" smooth="yes"/>
      <point x="193" y="58.333"/>
      <point x="200.333" y="67"/>
      <point x="204.666" y="72" type="curve" smooth="yes"/>
      <point x="652.333" y="591" type="line" smooth="yes"/>
      <point x="677.666" y="620.333"/>
      <point x="683.666" y="632"/>
      <point x="683.666" y="640.333" type="curve" smooth="yes"/>
      <point x="683.666" y="646.333"/>
      <point x="680.999" y="649.667"/>
      <point x="666.999" y="649.667" type="curve" smooth="yes"/>
      <point x="654.999" y="649.667"/>
      <point x="631.999" y="645"/>
      <point x="603.999" y="645" type="curve" smooth="yes"/>
      <point x="416.666" y="645" type="line" smooth="yes"/>
      <point x="326.333" y="645"/>
      <point x="268" y="648.333"/>
      <point x="200" y="655" type="curve"/>
      <point x="198.333" y="654.667"/>
      <point x="196.333" y="653.333"/>
      <point x="196" y="652.333" type="curve"/>
      <point x="182.666" y="604.667"/>
      <point x="158.333" y="530"/>
      <point x="139.666" y="484.333" type="curve"/>
      <point x="147.333" y="481"/>
      <point x="163.666" y="479.333"/>
      <point x="173.666" y="479.333" type="curve"/>
      <point x="206.333" y="544.333"/>
      <point x="239.333" y="603"/>
      <point x="316" y="603" type="curve" smooth="yes"/>
      <point x="506.333" y="603" type="line" smooth="yes"/>
      <point x="513.666" y="603"/>
      <point x="517.666" y="599"/>
      <point x="517.666" y="594.333" type="curve" smooth="yes"/>
      <point x="517.666" y="590.667"/>
      <point x="513.999" y="584"/>
      <point x="509.333" y="579" type="curve"/>
      <point x="40.666" y="38" type="line" smooth="yes"/>
      <point x="33.666" y="30.333"/>
      <point x="28.333" y="21.333"/>
    </contour>
  </outline>
</glyph>
<glyph name="bracketright" format="2">
  <advance width="376"/>
  <unicode hex="005D"/>
  <outline>
    <contour>
      <point x="438" y="698.333" type="line"/>
      <point x="203" y="698.333" type="line"/>
      <point x="198" y="692.333"/>
      <point x="193.666" y="669.667"/>
      <point x="196.666" y="664" type="curve"/>
      <point x="303.333" y="656.667"/>
      <point x="334.333" y="646.667"/>
      <point x="332.667" y="588.667" type="curve"/>
      <point x="199" y="-85.999" type="line"/>
      <point x="177.666" y="-143.999"/>
      <point x="138" y="-153.999"/>
      <point x="30.666" y="-160.666" type="curve"/>
      <point x="25.666" y="-166.666"/>
      <point x="25.333" y="-189.666"/>
      <point x="28.333" y="-195.333" type="curve"/>
      <point x="259" y="-195.333" type="line"/>
    </contour>
  </outline>
</glyph>
<glyph name="a" format="2">
  <advance width="507"/>
  <unicode hex="0061"/>
  <anchor x="384" y="500" name="t.uni0302"/>
  <anchor x="435" y="10" name="b.ogonek"/>
  <anchor x="215.667" y="-60" name="b.minus-60"/>
  <outline>
    <contour>
      <point x="473.667" y="439" type="curve" smooth="yes"/>
      <point x="468.334" y="439"/>
      <point x="458.334" y="437.333"/>
      <point x="451.334" y="435.333" type="curve"/>
      <point x="443.334" y="432.333"/>
      <point x="430.667" y="430"/>
      <point x="416.001" y="430" type="curve" smooth="yes"/>
      <point x="406.667" y="430"/>
      <point x="393.001" y="431"/>
      <point x="378.334" y="434" type="curve"/>
      <point x="364.334" y="437.667"/>
      <point x="348.667" y="439"/>
      <point x="336" y="439" type="curve" smooth="yes"/>
      <point x="187" y="439"/>
      <point x="56.667" y="259.334"/>
      <point x="56.667" y="120.334" type="curve" smooth="yes"/>
      <point x="56.667" y="53"/>
      <point x="82.667" y="-10"/>
      <point x="153.334" y="-10" type="curve" smooth="yes"/>
      <point x="212" y="-10"/>
      <point x="263.334" y="34.334"/>
      <point x="326.667" y="129.334" type="curve"/>
      <point x="330" y="127.334" type="line"/>
      <point x="324" y="108.334" type="line" smooth="yes"/>
      <point x="318.667" y="90.667"/>
      <point x="313.667" y="62"/>
      <point x="313.667" y="45" type="curve" smooth="yes"/>
      <point x="313.667" y="12.333"/>
      <point x="328.334" y="-10"/>
      <point x="363.667" y="-10" type="curve" smooth="yes"/>
      <point x="426.334" y="-10"/>
      <point x="486.667" y="28.333"/>
      <point x="524.001" y="83.667" type="curve"/>
      <point x="520.334" y="92.667"/>
      <point x="510.667" y="107.667"/>
      <point x="497.001" y="107.667" type="curve"/>
      <point x="470.667" y="75.334"/>
      <point x="441.667" y="58.667"/>
      <point x="431.667" y="58.667" type="curve" smooth="yes"/>
      <point x="425.334" y="58.667"/>
      <point x="420.334" y="64.667"/>
      <point x="420.334" y="76" type="curve" smooth="yes"/>
      <point x="420.334" y="82.334"/>
      <point x="422.001" y="92.667"/>
      <point x="428.334" y="122.667" type="curve" smooth="yes"/>
      <point x="470.667" y="317.667" type="line" smooth="yes"/>
      <point x="482.667" y="371"/>
      <point x="485.334" y="384.334"/>
      <point x="493.667" y="418.334" type="curve"/>
      <point x="493.667" y="430.667"/>
      <point x="486.667" y="439"/>
    </contour>
    <contour>
      <point x="344" y="223.667" type="curve"/>
      <point x="304.667" y="151.667"/>
      <point x="248" y="71.667"/>
      <point x="205" y="71.667" type="curve" smooth="yes"/>
      <point x="176" y="71.667"/>
      <point x="166.667" y="108.667"/>
      <point x="166.667" y="143" type="curve" smooth="yes"/>
      <point x="166.667" y="222.667"/>
      <point x="229" y="400.667"/>
      <point x="334.667" y="400.667" type="curve" smooth="yes"/>
      <point x="355" y="400.667"/>
      <point x="369.334" y="394.334"/>
      <point x="377.001" y="381.667" type="curve"/>
      <point x="375.334" y="343.334"/>
      <point x="369.001" y="287.667"/>
    </contour>
  </outline>
</glyph>
<glyph name="b" format="2">
  <advance width="507"/>
  <unicode hex="0062"/>
  <outline>
    <contour>
      <point x="231.333" y="221.667" type="curve"/>
      <point x="277.648" y="305.29"/>
      <point x="319.331" y="408.4"/>
      <point x="354" y="429" type="curve"/>
      <point x="376.667" y="440.667"/>
      <point x="381.333" y="429.667"/>
      <point x="385.333" y="428.667" type="curve"/>
      <point x="385.333" y="376.333"/>
      <point x="349" y="254"/>
      <point x="276.667" y="254" type="curve"/>
      <point x="251.667" y="251.333"/>
      <point x="214.667" y="254"/>
      <point x="203.667" y="273.333" type="curve"/>
      <point x="202.667" y="279"/>
      <point x="203.333" y="287.333"/>
      <point x="206.667" y="299" type="curve"/>
      <point x="240.696" y="386.629"/>
      <point x="282.889" y="553.56"/>
      <point x="293" y="592" type="curve" smooth="yes"/>
      <point x="299" y="615.333"/>
      <point x="305" y="633"/>
      <point x="309.333" y="641" type="curve"/>
      <point x="303.383" y="621.65"/>
      <point x="281.24" y="541.961"/>
      <point x="264.333" y="508" type="curve"/>
      <point x="236" y="496.333"/>
      <point x="168.667" y="481"/>
      <point x="134.667" y="474" type="curve"/>
      <point x="132" y="450.667"/>
      <point x="141.667" y="430.667"/>
      <point x="166.333" y="422" type="curve"/>
      <point x="246.333" y="420.667"/>
      <point x="308.667" y="485"/>
      <point x="308.667" y="508.667" type="curve" smooth="yes"/>
      <point x="308.667" y="528.333"/>
      <point x="299.667" y="533"/>
      <point x="269.667" y="521.667" type="curve" name=".hr01"/>
      <point x="234.7" y="469.459"/>
      <point x="170.949" y="246.617"/>
      <point x="149.667" y="190.333" type="curve" smooth="yes"/>
      <point x="147.069" y="183.667"/>
      <point x="139.612" y="175"/>
      <point x="138" y="166.333" type="curve"/>
      <point x="138" y="130.656"/>
      <point x="158" y="86.4893"/>
      <point x="208.667" y="80.6667" type="curve"/>
      <point x="352" y="113.333"/>
      <point x="472.667" y="228.667"/>
      <point x="485.667" y="344" type="curve"/>
      <point x="501.667" y="376.667"/>
      <point x="495.333" y="404.667"/>
      <point x="441.333" y="393" type="curve"/>
      <point x="392" y="345"/>
      <point x="310" y="263.667"/>
      <point x="258.333" y="232.333" type="curve"/>
      <point x="246.398" y="232.333"/>
      <point x="232.565" y="238"/>
      <point x="228.667" y="248.333" type="curve"/>
      <point x="228.667" y="247.394"/>
      <point x="229.667" y="223.178"/>
    </contour>
  </outline>
</glyph>
<glyph name="d" format="2">
  <advance width="537"/>
  <unicode hex="0064"/>
  <outline>
    <contour>
      <point x="412.333" y="414" type="curve" smooth="yes"/>
      <point x="382.667" y="284" type="line"/>
      <point x="380.522" y="276"/>
      <point x="378.743" y="269.667"/>
      <point x="378.667" y="265.333" type="curve"/>
      <point x="370.667" y="279.333"/>
      <point x="354.333" y="289.333"/>
      <point x="343.333" y="289.333" type="curve" smooth="yes"/>
      <point x="257.667" y="289.333"/>
      <point x="195.667" y="186.667"/>
      <point x="204.333" y="112.333" type="curve"/>
      <point x="202.667" y="66"/>
      <point x="222.333" y="27.6667"/>
      <point x="272" y="27.6667" type="curve"/>
      <point x="306.333" y="15.3333"/>
      <point x="331.333" y="36.6667"/>
      <point x="368" y="95.3333" type="curve"/>
      <point x="367.094" y="95.2864"/>
      <point x="364.958" y="95.5209"/>
      <point x="365.333" y="99.3333" type="curve"/>
      <point x="365.304" y="100.854"/>
      <point x="365.228" y="103.142"/>
      <point x="368" y="114.667" type="curve" smooth="yes"/>
      <point x="372.526" y="132.153"/>
      <point x="394.155" y="219.119"/>
      <point x="397.333" y="225" type="curve"/>
      <point x="402.333" y="224.667"/>
      <point x="415.333" y="221.333"/>
      <point x="446.333" y="222.667" type="curve" smooth="yes"/>
      <point x="486.333" y="225"/>
      <point x="526" y="252.667" name=".hr01"/>
      <point x="556.333" y="289.333" type="curve" name=".hr02"/>
      <point x="545.333" y="292"/>
      <point x="513.333" y="300.333"/>
      <point x="490.333" y="299.333" type="curve"/>
      <point x="471.333" y="276.333"/>
      <point x="448" y="261.667"/>
      <point x="442.333" y="258.333" type="curve"/>
      <point x="450" y="258.333"/>
      <point x="454.333" y="262"/>
      <point x="454.333" y="258.333" type="curve"/>
      <point x="454.333" y="262"/>
      <point x="456.333" y="270.333"/>
      <point x="456.667" y="272.333" type="curve"/>
      <point x="515" y="516.333" type="line" smooth="yes"/>
      <point x="520.275" y="538.333"/>
      <point x="527.353" y="572.333"/>
      <point x="530" y="579.667" type="curve"/>
      <point x="526" y="597"/>
      <point x="514.333" y="611.667"/>
      <point x="487.333" y="611.667" type="curve"/>
      <point x="430.667" y="602.333"/>
      <point x="316.333" y="544.667"/>
      <point x="286.333" y="491.333" type="curve"/>
      <point x="282.333" y="466.333"/>
      <point x="285.667" y="428"/>
      <point x="315.667" y="422" type="curve" name=".hr03"/>
      <point x="365.667" y="422"/>
      <point x="395.333" y="432.667"/>
      <point x="415.333" y="440.667" type="curve"/>
      <point x="415.46" y="433.916"/>
      <point x="414.792" y="424.806"/>
    </contour>
    <contour>
      <point x="217" y="49.3333" type="curve" smooth="yes"/>
      <point x="184" y="49.3333"/>
      <point x="173.667" y="94"/>
      <point x="173.667" y="145.333" type="curve" smooth="yes"/>
      <point x="173.667" y="255"/>
      <point x="240.667" y="395.333"/>
      <point x="325.333" y="395.333" type="curve" smooth="yes"/>
      <point x="369.333" y="395.333"/>
      <point x="389.667" y="346.667"/>
      <point x="389.667" y="313" type="curve"/>
      <point x="379" y="242.667"/>
      <point x="286.333" y="49.3333"/>
    </contour>
  </outline>
</glyph>
<glyph name="e" format="2">
  <advance width="412"/>
  <unicode hex="0065"/>
  <anchor x="338.333" y="500" name="t.uni0302"/>
  <anchor x="279.667" y="10" name="b.ogonek"/>
  <anchor x="227.333" y="10" name="b.cedilla"/>
  <anchor x="187.667" y="-60" name="b.minus-60"/>
  <outline>
    <contour>
      <point x="179" y="199" type="curve"/>
      <point x="397.333" y="243.667"/>
      <point x="440" y="297"/>
      <point x="440" y="366.334" type="curve" smooth="yes"/>
      <point x="440" y="406.667"/>
      <point x="396" y="439"/>
      <point x="323.667" y="439" type="curve" smooth="yes"/>
      <point x="139.666" y="439"/>
      <point x="64.3333" y="268.334"/>
      <point x="64.3333" y="139.333" type="curve" smooth="yes"/>
      <point x="64.3333" y="57"/>
      <point x="94.9993" y="-10"/>
      <point x="204" y="-10" type="curve" smooth="yes"/>
      <point x="269.667" y="-10"/>
      <point x="342" y="23.667"/>
      <point x="401" y="99.667" type="curve"/>
      <point x="396" y="110.667"/>
      <point x="384" y="121.667"/>
      <point x="372" y="121.667" type="curve"/>
      <point x="315" y="63.667"/>
      <point x="286.667" y="50"/>
      <point x="238.666" y="50" type="curve" smooth="yes"/>
      <point x="197.666" y="50"/>
      <point x="178" y="90"/>
      <point x="178" y="165" type="curve" smooth="yes"/>
      <point x="178" y="170"/>
      <point x="178" y="191"/>
    </contour>
    <contour>
      <point x="341.667" y="363.334" type="curve" smooth="yes"/>
      <point x="341.667" y="279.334"/>
      <point x="246.666" y="245.667"/>
      <point x="186" y="236.334" type="curve"/>
      <point x="220.333" y="377.667"/>
      <point x="264" y="400.667"/>
      <point x="305.333" y="400.667" type="curve" smooth="yes"/>
      <point x="330" y="400.667"/>
      <point x="341.667" y="392.334"/>
    </contour>
  </outline>
</glyph>
<glyph name="f" format="2">
  <advance width="369"/>
  <unicode hex="0066"/>
  <anchor x="430.667" y="740" name="t.uni0302"/>
  <outline>
    <contour>
      <point x="190" y="384.667" type="line"/>
      <point x="168.667" y="271.333"/>
      <point x="159" y="216"/>
      <point x="149" y="141" type="curve" smooth="yes"/>
      <point x="140.333" y="78.3333"/>
      <point x="126.333" y="-191.667"/>
      <point x="33.6667" y="-191.667" type="curve" smooth="yes"/>
      <point x="20.3333" y="-191.667"/>
      <point x="11.6667" y="-180.667"/>
      <point x="3.66667" y="-168" type="curve"/>
      <point x="-8.66667" y="-147"/>
      <point x="-29" y="-133.333"/>
      <point x="-51.6667" y="-133.333" type="curve" smooth="yes"/>
      <point x="-83" y="-133.333"/>
      <point x="-94" y="-157"/>
      <point x="-94" y="-176" type="curve" smooth="yes"/>
      <point x="-94" y="-201.333"/>
      <point x="-64.6667" y="-234.667"/>
      <point x="12.6667" y="-234.667" type="curve" smooth="yes"/>
      <point x="174.333" y="-234.667"/>
      <point x="227.333" y="13.3333"/>
      <point x="252.333" y="130" type="curve" smooth="yes"/>
      <point x="269" y="208"/>
      <point x="283.667" y="277"/>
      <point x="298.667" y="363.667" type="curve" smooth="yes"/>
      <point x="302.333" y="384.667" type="line"/>
      <point x="395.333" y="384.667" type="line" smooth="yes"/>
      <point x="404.333" y="384.667"/>
      <point x="419.333" y="388.667"/>
      <point x="421.333" y="396.667" type="curve" name=".hr01"/>
      <point x="421.333" y="396.667"/>
      <point x="426.333" y="423"/>
      <point x="426.333" y="424" type="curve"/>
      <point x="426.333" y="427"/>
      <point x="424.333" y="429"/>
      <point x="419.333" y="429" type="curve" smooth="yes"/>
      <point x="309.333" y="429" type="line"/>
      <point x="320.333" y="486" type="line" smooth="yes"/>
      <point x="339.667" y="586.667"/>
      <point x="369" y="659"/>
      <point x="424" y="659" type="curve" smooth="yes"/>
      <point x="449" y="659"/>
      <point x="463.333" y="650"/>
      <point x="469" y="625" type="curve"/>
      <point x="473.667" y="599.667"/>
      <point x="483" y="566.667"/>
      <point x="521.667" y="566.667" type="curve" smooth="yes"/>
      <point x="556.667" y="566.667"/>
      <point x="569" y="596"/>
      <point x="569" y="614" type="curve" smooth="yes"/>
      <point x="569" y="672.667"/>
      <point x="477.667" y="699.333"/>
      <point x="418" y="699.333" type="curve" smooth="yes"/>
      <point x="278.667" y="699.333"/>
      <point x="223.667" y="545.333"/>
      <point x="200" y="429" type="curve"/>
      <point x="134" y="426" type="line" smooth="yes"/>
      <point x="115" y="425"/>
      <point x="108" y="417"/>
      <point x="106" y="409" type="curve"/>
      <point x="105" y="406"/>
      <point x="102" y="388.667"/>
      <point x="102" y="386.667" type="curve" smooth="yes"/>
      <point x="102" y="384.667" name=".hr02"/>
      <point x="105" y="384.667"/>
      <point x="108" y="384.667" type="curve" smooth="yes"/>
    </contour>
  </outline>
</glyph>
<glyph name="g" format="2">
  <advance width="490"/>
  <unicode hex="0067"/>
  <anchor x="305.333" y="500" name="t.uni0302"/>
  <outline>
    <contour>
      <point x="435" y="291" type="curve" smooth="yes"/>
      <point x="435" y="318"/>
      <point x="430.333" y="350.666"/>
      <point x="416.333" y="370.666" type="curve"/>
      <point x="431.333" y="384.666"/>
      <point x="449" y="398.333"/>
      <point x="457.333" y="398.333" type="curve" smooth="yes"/>
      <point x="467" y="398.333"/>
      <point x="470.667" y="392.666"/>
      <point x="474.333" y="387" type="curve"/>
      <point x="480" y="377.666"/>
      <point x="487.667" y="367.333"/>
      <point x="505.667" y="367.333" type="curve" smooth="yes"/>
      <point x="526.333" y="367.333"/>
      <point x="540.667" y="383.333"/>
      <point x="540.667" y="405" type="curve" smooth="yes"/>
      <point x="540.667" y="425.667"/>
      <point x="522.667" y="443.667"/>
      <point x="497" y="443.667" type="curve" smooth="yes"/>
      <point x="467" y="443.667"/>
      <point x="432.333" y="432.333"/>
      <point x="397.333" y="400.333" type="curve"/>
      <point x="375.333" y="426.333"/>
      <point x="330.666" y="439"/>
      <point x="286.666" y="439" type="curve" smooth="yes"/>
      <point x="178.667" y="439"/>
      <point x="122" y="368.333"/>
      <point x="118" y="291.667" type="curve"/>
      <point x="117.333" y="289"/>
      <point x="117.333" y="285.667"/>
      <point x="117.333" y="283" type="curve" smooth="yes"/>
      <point x="117.333" y="239"/>
      <point x="135.667" y="191"/>
      <point x="170" y="165" type="curve"/>
      <point x="133" y="137"/>
      <point x="112" y="97"/>
      <point x="110" y="64" type="curve"/>
      <point x="109.333" y="61.333"/>
      <point x="109.333" y="58.667"/>
      <point x="109.333" y="56" type="curve" smooth="yes"/>
      <point x="109.333" y="41.333"/>
      <point x="112.667" y="13.667"/>
      <point x="142" y="1.333" type="curve"/>
      <point x="89" y="-27.667"/>
      <point x="0.333" y="-76"/>
      <point x="0.333" y="-136" type="curve" smooth="yes"/>
      <point x="0.333" y="-217"/>
      <point x="124.667" y="-238"/>
      <point x="205.667" y="-238" type="curve" smooth="yes"/>
      <point x="342.666" y="-238"/>
      <point x="447" y="-199"/>
      <point x="447" y="-100" type="curve" smooth="yes"/>
      <point x="447" y="-38.334"/>
      <point x="392.333" y="0"/>
      <point x="340.333" y="18" type="curve"/>
      <point x="335" y="19.333"/>
      <point x="330.333" y="21.333"/>
      <point x="325.666" y="22.333" type="curve"/>
      <point x="250" y="44.333"/>
      <point x="200" y="58.333"/>
      <point x="192.333" y="84.667" type="curve"/>
      <point x="192" y="85.667"/>
      <point x="192" y="86.667"/>
      <point x="192" y="88" type="curve"/>
      <point x="188" y="107.333"/>
      <point x="192.667" y="132"/>
      <point x="201.667" y="149" type="curve"/>
      <point x="217.667" y="139"/>
      <point x="241.667" y="132"/>
      <point x="269.667" y="132" type="curve" smooth="yes"/>
      <point x="356.666" y="132"/>
      <point x="435" y="192"/>
    </contour>
    <contour>
      <point x="167.667" y="-9.667" type="curve"/>
      <point x="184.333" y="-13.667"/>
      <point x="245.667" y="-37.667"/>
      <point x="280.666" y="-53.334" type="curve" smooth="yes"/>
      <point x="285.666" y="-55.667"/>
      <point x="290.666" y="-58"/>
      <point x="295.333" y="-60.667" type="curve"/>
      <point x="346.666" y="-85.334"/>
      <point x="355.333" y="-98"/>
      <point x="355.333" y="-127" type="curve" smooth="yes"/>
      <point x="355.333" y="-159.667"/>
      <point x="332.666" y="-201.667"/>
      <point x="246.667" y="-201.667" type="curve" smooth="yes"/>
      <point x="134.667" y="-201.667"/>
      <point x="87.333" y="-168"/>
      <point x="87.333" y="-113" type="curve" smooth="yes"/>
      <point x="87.333" y="-65"/>
      <point x="142.667" y="-27.667"/>
    </contour>
    <contour>
      <point x="334.333" y="291" type="curve" smooth="yes"/>
      <point x="334.333" y="284.667"/>
      <point x="334.333" y="278"/>
      <point x="334" y="271.667" type="curve"/>
      <point x="333.666" y="217.334"/>
      <point x="328.333" y="168.667"/>
      <point x="274.667" y="168.667" type="curve" smooth="yes"/>
      <point x="221.667" y="168.667"/>
      <point x="217.667" y="218.334"/>
      <point x="218.333" y="263" type="curve"/>
      <point x="218" y="269.333"/>
      <point x="218" y="276"/>
      <point x="218" y="282" type="curve" smooth="yes"/>
      <point x="218" y="289.333"/>
      <point x="218" y="296.667"/>
      <point x="218.333" y="303.667" type="curve"/>
      <point x="218.333" y="364"/>
      <point x="223.667" y="402.333"/>
      <point x="282.666" y="402.333" type="curve" smooth="yes"/>
      <point x="325.666" y="402.333"/>
      <point x="334.333" y="359"/>
    </contour>
  </outline>
</glyph>
<glyph name="h" format="2">
  <advance width="582"/>
  <unicode hex="0068"/>
  <anchor x="421.667" y="740" name="t.uni0302"/>
  <anchor x="145.333" y="10" name="b.cedilla"/>
  <anchor x="272.333" y="-60" name="b.minus-60"/>
  <outline>
    <contour>
      <point x="201.333" y="39.334" type="curve" smooth="yes"/>
      <point x="322.333" y="583" type="line" smooth="yes"/>
      <point x="332.333" y="628"/>
      <point x="338" y="654.333"/>
      <point x="347.333" y="682" type="curve"/>
      <point x="347.333" y="693"/>
      <point x="339.667" y="698"/>
      <point x="328" y="698" type="curve"/>
      <point x="284.667" y="684.667"/>
      <point x="205.333" y="675.333"/>
      <point x="159.333" y="672" type="curve"/>
      <point x="154.667" y="665"/>
      <point x="151.667" y="649.667"/>
      <point x="154.333" y="639.667" type="curve"/>
      <point x="199" y="636.333"/>
      <point x="219.333" y="625.667"/>
      <point x="219.333" y="603.667" type="curve" smooth="yes"/>
      <point x="219.333" y="596.667"/>
      <point x="217.333" y="581.667"/>
      <point x="213" y="563" type="curve" smooth="yes"/>
      <point x="92" y="26.667" type="line" smooth="yes"/>
      <point x="87.667" y="7"/>
      <point x="106.333" y="0"/>
      <point x="119.333" y="0" type="curve" smooth="yes"/>
      <point x="153.333" y="0" type="line" smooth="yes"/>
      <point x="177" y="0"/>
      <point x="195" y="10.333"/>
    </contour>
    <contour>
      <point x="232" y="216.667" type="line"/>
      <point x="287.333" y="288.667"/>
      <point x="354.667" y="372.333"/>
      <point x="405.667" y="372.333" type="curve" smooth="yes"/>
      <point x="419" y="372.333"/>
      <point x="433" y="367"/>
      <point x="433" y="332" type="curve" smooth="yes"/>
      <point x="433" y="322"/>
      <point x="431.667" y="309"/>
      <point x="423.667" y="275" type="curve" smooth="yes"/>
      <point x="386.333" y="115" type="line" smooth="yes"/>
      <point x="378.333" y="81"/>
      <point x="374" y="56"/>
      <point x="374" y="40.334" type="curve" smooth="yes"/>
      <point x="374" y="12.667"/>
      <point x="385" y="-10"/>
      <point x="422.333" y="-10" type="curve" smooth="yes"/>
      <point x="485" y="-10"/>
      <point x="546" y="23.333"/>
      <point x="592" y="82.334" type="curve"/>
      <point x="589" y="91.334"/>
      <point x="579" y="106.667"/>
      <point x="565" y="106.667" type="curve"/>
      <point x="539" y="76.667"/>
      <point x="506.666" y="58.667"/>
      <point x="496.333" y="58.667" type="curve" smooth="yes"/>
      <point x="489.666" y="58.667"/>
      <point x="486.667" y="65"/>
      <point x="486.667" y="75.334" type="curve" smooth="yes"/>
      <point x="486.667" y="84"/>
      <point x="489" y="100"/>
      <point x="494.333" y="124" type="curve" smooth="yes"/>
      <point x="532.333" y="283" type="line" smooth="yes"/>
      <point x="540.333" y="318"/>
      <point x="545.333" y="341"/>
      <point x="545.333" y="360.666" type="curve" smooth="yes"/>
      <point x="545.333" y="414.333"/>
      <point x="508.333" y="439"/>
      <point x="459.333" y="439" type="curve" smooth="yes"/>
      <point x="410" y="439"/>
      <point x="343" y="413.333"/>
      <point x="246.333" y="296" type="curve"/>
    </contour>
  </outline>
</glyph>
<glyph name="i" format="2">
  <advance width="310"/>
  <unicode hex="0069"/>
  <anchor x="225" y="10" name="b.ogonek"/>
  <anchor x="156" y="-60" name="b.minus-60"/>
  <outline>
    <contour>
      <point x="194.333" y="585.999" type="curve" smooth="yes"/>
      <point x="194.333" y="552"/>
      <point x="218.333" y="527.333"/>
      <point x="252.999" y="527.333" type="curve" smooth="yes"/>
      <point x="289.666" y="527.333"/>
      <point x="311.666" y="552"/>
      <point x="311.666" y="585.999" type="curve" smooth="yes"/>
      <point x="311.666" y="620.666"/>
      <point x="289.666" y="644.666"/>
      <point x="252.999" y="644.666" type="curve" smooth="yes"/>
      <point x="218.333" y="644.666"/>
      <point x="194.333" y="620.666"/>
    </contour>
    <contour>
      <point x="145.666" y="249.333" type="line"/>
      <point x="116" y="114.333" type="line" smooth="yes"/>
      <point x="105.666" y="67"/>
      <point x="103.666" y="54"/>
      <point x="103.666" y="41.333" type="curve" smooth="yes"/>
      <point x="103.666" y="12"/>
      <point x="114.666" y="-10.667"/>
      <point x="152" y="-10.667" type="curve" smooth="yes"/>
      <point x="214.666" y="-10.667"/>
      <point x="275.666" y="22.666"/>
      <point x="321.666" y="81.667" type="curve"/>
      <point x="318.666" y="90.667"/>
      <point x="308.666" y="106"/>
      <point x="294.666" y="106" type="curve"/>
      <point x="268.666" y="76"/>
      <point x="236.333" y="58"/>
      <point x="226" y="58" type="curve" smooth="yes"/>
      <point x="219.333" y="58"/>
      <point x="215.666" y="64.333"/>
      <point x="215.666" y="73.333" type="curve" smooth="yes"/>
      <point x="215.666" y="83.333"/>
      <point x="220" y="106"/>
      <point x="224" y="123.333" type="curve" smooth="yes"/>
      <point x="251.666" y="249.333" type="line"/>
    </contour>
    <contour>
      <point x="145.666" y="249.333" type="line"/>
      <point x="251.666" y="249.333" type="line"/>
      <point x="266.999" y="319.333" type="line" smooth="yes"/>
      <point x="277.666" y="367"/>
      <point x="289.333" y="403"/>
      <point x="289.333" y="419" type="curve" smooth="yes"/>
      <point x="289.333" y="430.333"/>
      <point x="283.666" y="436"/>
      <point x="273.999" y="436" type="curve"/>
      <point x="242.666" y="430.333"/>
      <point x="158.666" y="423.666"/>
      <point x="111" y="423" type="curve"/>
      <point x="104" y="415"/>
      <point x="104" y="396.666"/>
      <point x="110" y="387.666" type="curve"/>
      <point x="150" y="384.666" type="line" smooth="yes"/>
      <point x="162" y="383.666"/>
      <point x="168" y="374.666"/>
      <point x="168" y="363" type="curve" smooth="yes"/>
      <point x="168" y="355.666"/>
      <point x="165.666" y="342.333"/>
      <point x="161" y="320.333" type="curve" smooth="yes"/>
    </contour>
  </outline>
</glyph>
<glyph name="j" format="2">
  <advance width="288"/>
  <unicode hex="006A"/>
  <outline>
    <contour>
      <point x="192.667" y="586" type="curve" smooth="yes"/>
      <point x="192.667" y="552"/>
      <point x="216.667" y="527.333"/>
      <point x="251.333" y="527.333" type="curve" smooth="yes"/>
      <point x="288" y="527.333"/>
      <point x="310" y="552"/>
      <point x="310" y="586" type="curve" smooth="yes"/>
      <point x="310" y="620.667"/>
      <point x="288" y="644.667"/>
      <point x="251.333" y="644.667" type="curve" smooth="yes"/>
      <point x="216.667" y="644.667"/>
      <point x="192.667" y="620.667"/>
    </contour>
    <contour>
      <point x="119" y="131.333" type="line" smooth="yes"/>
      <point x="88.6667" y="-12.6667"/>
      <point x="62.3333" y="-168"/>
      <point x="18.6667" y="-168" type="curve" smooth="yes"/>
      <point x="-15" y="-168"/>
      <point x="-6.66667" y="-105"/>
      <point x="-67" y="-105" type="curve" smooth="yes"/>
      <point x="-83.3333" y="-105"/>
      <point x="-102.667" y="-118.333"/>
      <point x="-102.667" y="-145.333" type="curve" smooth="yes"/>
      <point x="-102.667" y="-187.333"/>
      <point x="-56" y="-203.333"/>
      <point x="-2" y="-203.333" type="curve" smooth="yes"/>
      <point x="119" y="-203.333"/>
      <point x="169.667" y="-120.333"/>
      <point x="198" y="8" type="curve" smooth="yes"/>
      <point x="250.667" y="249.333" type="line"/>
      <point x="144.667" y="249.333" type="line"/>
    </contour>
    <contour>
      <point x="144.667" y="249.333" type="line"/>
      <point x="250.667" y="249.333" type="line"/>
      <point x="266" y="319.333" type="line" smooth="yes"/>
      <point x="276.667" y="367"/>
      <point x="288.333" y="403"/>
      <point x="288.333" y="419" type="curve" smooth="yes"/>
      <point x="288.333" y="430.333"/>
      <point x="282.667" y="436"/>
      <point x="273" y="436" type="curve"/>
      <point x="241.667" y="430.333"/>
      <point x="157.667" y="423.667"/>
      <point x="110" y="423" type="curve"/>
      <point x="103" y="415"/>
      <point x="103" y="396.667"/>
      <point x="109" y="387.667" type="curve"/>
      <point x="149" y="384.667" type="line" smooth="yes"/>
      <point x="161" y="383.667"/>
      <point x="167" y="374.667"/>
      <point x="167" y="363" type="curve" smooth="yes"/>
      <point x="167" y="355.667"/>
      <point x="164.667" y="342.333"/>
      <point x="160" y="320.333" type="curve" smooth="yes"/>
    </contour>
  </outline>
</glyph>
<glyph name="k" format="2">
  <advance width="535"/>
  <unicode hex="006B"/>
  <anchor x="439.667" y="740" name="t.uni0302"/>
  <anchor x="261.667" y="-60" name="b.minus-60"/>
  <outline>
    <contour>
      <point x="230.333" y="232.334" type="line"/>
      <point x="239" y="237"/>
      <point x="247" y="237"/>
      <point x="254.333" y="237" type="curve" smooth="yes"/>
      <point x="262.333" y="237"/>
      <point x="269.333" y="230"/>
      <point x="274.333" y="221" type="curve" smooth="yes"/>
      <point x="292.333" y="189"/>
      <point x="299.333" y="138"/>
      <point x="319.333" y="93" type="curve" smooth="yes"/>
      <point x="351.333" y="23"/>
      <point x="376" y="-8.333"/>
      <point x="415" y="-9.667" type="curve"/>
      <point x="418.667" y="-10"/>
      <point x="422.667" y="-10"/>
      <point x="426.333" y="-10" type="curve"/>
      <point x="469" y="-7.333"/>
      <point x="514" y="21"/>
      <point x="543.333" y="77" type="curve"/>
      <point x="536.333" y="85"/>
      <point x="527" y="92.667"/>
      <point x="516" y="92.667" type="curve"/>
      <point x="496" y="63.667"/>
      <point x="475.667" y="48.667"/>
      <point x="464.667" y="48.667" type="curve" smooth="yes"/>
      <point x="446.333" y="48.667"/>
      <point x="439.667" y="63.334"/>
      <point x="432.667" y="82.667" type="curve"/>
      <point x="432" y="84"/>
      <point x="431.333" y="85.334"/>
      <point x="430.667" y="86.667" type="curve"/>
      <point x="411" y="139"/>
      <point x="400.667" y="169"/>
      <point x="387.667" y="196.667" type="curve"/>
      <point x="383.333" y="204.334"/>
      <point x="380" y="211.667"/>
      <point x="375.667" y="218.667" type="curve" smooth="yes"/>
      <point x="361.667" y="241"/>
      <point x="349.667" y="255.667"/>
      <point x="322.667" y="262.667" type="curve"/>
      <point x="322" y="266.667" type="line"/>
      <point x="360" y="300.667" type="line" smooth="yes"/>
      <point x="368.333" y="308"/>
      <point x="376.333" y="314.667"/>
      <point x="384" y="321.334" type="curve" smooth="yes"/>
      <point x="415.667" y="348.334"/>
      <point x="438" y="356.667"/>
      <point x="456.667" y="356.667" type="curve" smooth="yes"/>
      <point x="468" y="356.667"/>
      <point x="474" y="352"/>
      <point x="480.333" y="345" type="curve"/>
      <point x="489" y="337"/>
      <point x="501.333" y="324.667"/>
      <point x="519.333" y="324.667" type="curve" smooth="yes"/>
      <point x="544.667" y="324.667"/>
      <point x="567.333" y="353"/>
      <point x="570" y="383.334" type="curve" smooth="yes"/>
      <point x="570.333" y="387.334"/>
      <point x="570.667" y="391.667"/>
      <point x="570" y="395.334" type="curve"/>
      <point x="566.667" y="420.667"/>
      <point x="545.333" y="439"/>
      <point x="511" y="439" type="curve" smooth="yes"/>
      <point x="479" y="439"/>
      <point x="411.333" y="401"/>
      <point x="339.333" y="337" type="curve"/>
      <point x="302" y="305.334" type="line" smooth="yes"/>
      <point x="299" y="302.667"/>
      <point x="296.333" y="300.334"/>
      <point x="293.333" y="297.667" type="curve"/>
      <point x="275" y="283"/>
      <point x="252.333" y="267.667"/>
      <point x="232.333" y="274.334" type="curve"/>
    </contour>
    <contour>
      <point x="194.333" y="39.334" type="curve" smooth="yes"/>
      <point x="315.333" y="583" type="line" smooth="yes"/>
      <point x="325.333" y="628"/>
      <point x="331" y="654.333"/>
      <point x="340.333" y="682" type="curve"/>
      <point x="340.333" y="693"/>
      <point x="332.667" y="698"/>
      <point x="321" y="698" type="curve"/>
      <point x="277.667" y="684.667"/>
      <point x="198.333" y="675.333"/>
      <point x="152.333" y="672" type="curve"/>
      <point x="147.667" y="665"/>
      <point x="144.667" y="649.667"/>
      <point x="147.333" y="639.667" type="curve"/>
      <point x="192" y="636.333"/>
      <point x="212.333" y="625.667"/>
      <point x="212.333" y="603.667" type="curve" smooth="yes"/>
      <point x="212.333" y="596.667"/>
      <point x="210.333" y="581.667"/>
      <point x="206" y="563" type="curve" smooth="yes"/>
      <point x="85" y="26.667" type="line" smooth="yes"/>
      <point x="80.667" y="7"/>
      <point x="99.333" y="0"/>
      <point x="112.333" y="0" type="curve" smooth="yes"/>
      <point x="146.333" y="0" type="line" smooth="yes"/>
      <point x="170" y="0"/>
      <point x="188" y="10.333"/>
    </contour>
  </outline>
</glyph>
<glyph name="l" format="2">
  <advance width="305"/>
  <unicode hex="006C"/>
  <anchor x="279.667" y="740" name="t.uni0302"/>
  <anchor x="142.667" y="-60" name="b.minus-60"/>
  <outline>
    <contour>
      <point x="196" y="511.334" type="line"/>
      <point x="111" y="118.334" type="line" smooth="yes"/>
      <point x="105.667" y="94"/>
      <point x="99.667" y="62"/>
      <point x="99.667" y="42.667" type="curve" smooth="yes"/>
      <point x="99.667" y="14.333"/>
      <point x="110.667" y="-10"/>
      <point x="147.667" y="-10" type="curve" smooth="yes"/>
      <point x="209.334" y="-10"/>
      <point x="271.667" y="25.334"/>
      <point x="320" y="87" type="curve"/>
      <point x="316.667" y="96.334"/>
      <point x="307" y="111.334"/>
      <point x="293.334" y="111.334" type="curve"/>
      <point x="266" y="79.334"/>
      <point x="232.667" y="60.667"/>
      <point x="222" y="60.667" type="curve" smooth="yes"/>
      <point x="214" y="60.667"/>
      <point x="210.334" y="68"/>
      <point x="210.334" y="77.334" type="curve" smooth="yes"/>
      <point x="210.334" y="88.667"/>
      <point x="213" y="104.334"/>
      <point x="218" y="127" type="curve" smooth="yes"/>
      <point x="302" y="511.334" type="line"/>
    </contour>
    <contour>
      <point x="196" y="511.334" type="line"/>
      <point x="302" y="511.334" type="line"/>
      <point x="317.333" y="581.334" type="line" smooth="yes"/>
      <point x="328" y="629"/>
      <point x="339.667" y="665"/>
      <point x="339.667" y="681" type="curve" smooth="yes"/>
      <point x="339.667" y="692.334"/>
      <point x="334" y="698"/>
      <point x="324.333" y="698" type="curve"/>
      <point x="293" y="692.334"/>
      <point x="209" y="685.667"/>
      <point x="161.333" y="685" type="curve"/>
      <point x="154.333" y="677"/>
      <point x="154.333" y="658.667"/>
      <point x="160.333" y="649.667" type="curve"/>
      <point x="200.333" y="646.667" type="line" smooth="yes"/>
      <point x="212.333" y="645.667"/>
      <point x="218.333" y="636.667"/>
      <point x="218.333" y="625" type="curve" smooth="yes"/>
      <point x="218.333" y="617.667"/>
      <point x="216" y="604.334"/>
      <point x="211.333" y="582.334" type="curve" smooth="yes"/>
    </contour>
  </outline>
</glyph>
<glyph name="m" format="2">
  <advance width="830"/>
  <unicode hex="006D"/>
  <anchor x="504.667" y="510" name="t.uni0302"/>
  <anchor x="397.333" y="-60" name="b.minus-60"/>
  <outline>
    <contour>
      <point x="155" y="310" type="line"/>
      <point x="101.667" y="72" type="line" smooth="yes"/>
      <point x="92.9997" y="35"/>
      <point x="89.6667" y="20.667"/>
      <point x="89.6667" y="12.667" type="curve" smooth="yes"/>
      <point x="89.6667" y="-3"/>
      <point x="105.667" y="-10"/>
      <point x="144.667" y="-10" type="curve" smooth="yes"/>
      <point x="183.667" y="-10"/>
      <point x="189.334" y="-3.667"/>
      <point x="207.667" y="72" type="curve" smooth="yes"/>
      <point x="246.334" y="229.667" type="line"/>
      <point x="314.334" y="322"/>
      <point x="363.667" y="372.333"/>
      <point x="399" y="372.333" type="curve" smooth="yes"/>
      <point x="414.334" y="372.333"/>
      <point x="420.334" y="363.333"/>
      <point x="420.334" y="336.666" type="curve" smooth="yes"/>
      <point x="420.334" y="326"/>
      <point x="419.334" y="308"/>
      <point x="411.667" y="275" type="curve" smooth="yes"/>
      <point x="364.334" y="72" type="line" smooth="yes"/>
      <point x="355" y="32.334"/>
      <point x="353.667" y="21.333"/>
      <point x="353.667" y="16" type="curve" smooth="yes"/>
      <point x="353.667" y="1"/>
      <point x="362.334" y="-10"/>
      <point x="406.667" y="-10" type="curve" smooth="yes"/>
      <point x="446.667" y="-10"/>
      <point x="454.334" y="-3.667"/>
      <point x="471.667" y="72" type="curve" smooth="yes"/>
      <point x="512" y="248.333" type="line"/>
      <point x="557.667" y="308"/>
      <point x="609.334" y="372.333"/>
      <point x="655.334" y="372.333" type="curve" smooth="yes"/>
      <point x="669.334" y="372.333"/>
      <point x="682" y="366.666"/>
      <point x="682" y="332.333" type="curve" smooth="yes"/>
      <point x="682" y="323"/>
      <point x="681" y="306.666"/>
      <point x="673" y="273.667" type="curve" smooth="yes"/>
      <point x="635.334" y="114.667" type="line" smooth="yes"/>
      <point x="627.334" y="81.334"/>
      <point x="623.334" y="56"/>
      <point x="623.334" y="39.667" type="curve" smooth="yes"/>
      <point x="623.334" y="2.333"/>
      <point x="642.667" y="-10"/>
      <point x="677.667" y="-10" type="curve" smooth="yes"/>
      <point x="741" y="-10"/>
      <point x="801.334" y="25"/>
      <point x="841.334" y="88.334" type="curve"/>
      <point x="838.667" y="97.334"/>
      <point x="828.334" y="111.667"/>
      <point x="814.667" y="111.667" type="curve"/>
      <point x="789.334" y="79"/>
      <point x="757.334" y="58.667"/>
      <point x="745.667" y="58.667" type="curve" smooth="yes"/>
      <point x="738.667" y="58.667"/>
      <point x="734.334" y="64.667"/>
      <point x="734.334" y="73.334" type="curve" smooth="yes"/>
      <point x="734.334" y="78.334"/>
      <point x="735.334" y="89.667"/>
      <point x="741.667" y="116.334" type="curve" smooth="yes"/>
      <point x="782.334" y="281.667" type="line" smooth="yes"/>
      <point x="792.334" y="323.333"/>
      <point x="794.334" y="338.333"/>
      <point x="794.334" y="351.333" type="curve" smooth="yes"/>
      <point x="794.334" y="409"/>
      <point x="762" y="439"/>
      <point x="708.667" y="439" type="curve" smooth="yes"/>
      <point x="662.667" y="439"/>
      <point x="600" y="413.333"/>
      <point x="529.667" y="329" type="curve"/>
      <point x="531.334" y="338.333"/>
      <point x="531.667" y="347.666"/>
      <point x="531.667" y="352.666" type="curve" smooth="yes"/>
      <point x="531.667" y="415.333"/>
      <point x="495" y="439"/>
      <point x="447" y="439" type="curve" smooth="yes"/>
      <point x="391.334" y="439"/>
      <point x="338.334" y="402"/>
      <point x="261.334" y="310" type="curve"/>
    </contour>
    <contour>
      <point x="155" y="310" type="line"/>
      <point x="260" y="310" type="line"/>
      <point x="262" y="319.333" type="line" smooth="yes"/>
      <point x="272.334" y="367"/>
      <point x="285" y="403"/>
      <point x="285" y="419" type="curve" smooth="yes"/>
      <point x="285" y="430.333"/>
      <point x="279.334" y="436"/>
      <point x="269.667" y="436" type="curve"/>
      <point x="238.334" y="430.333"/>
      <point x="154.334" y="423.667"/>
      <point x="106.667" y="423" type="curve"/>
      <point x="99.6667" y="415"/>
      <point x="99.6667" y="396.666"/>
      <point x="105.667" y="387.666" type="curve"/>
      <point x="145.667" y="384.666" type="line" smooth="yes"/>
      <point x="157.667" y="383.666"/>
      <point x="164.334" y="374.666"/>
      <point x="164.334" y="363" type="curve" smooth="yes"/>
      <point x="164.334" y="355.666"/>
      <point x="162.334" y="342"/>
      <point x="158.667" y="326" type="curve" smooth="yes"/>
    </contour>
  </outline>
</glyph>
<glyph name="n" format="2">
	<unicode hex="006E"/>
	<advance width="582"/>
	<outline>
		<contour>
			<point x="146" y="269" type="curve" smooth="yes"/>
			<point x="102" y="72" type="line" smooth="yes"/>
			<point x="97" y="52"/>
			<point x="89" y="27"/>
			<point x="89" y="17" type="curve" smooth="yes"/>
			<point x="89" y="1"/>
			<point x="99.3333" y="-10"/>
			<point x="147.333" y="-10" type="curve" smooth="yes"/>
			<point x="196" y="-10"/>
			<point x="199" y="27.3333"/>
			<point x="206.667" y="63.3333" type="curve"/>
			<point x="207.667" y="67.3333"/>
			<point x="208.667" y="72"/>
			<point x="209.667" y="76" type="curve" smooth="yes"/>
			<point x="246.667" y="231.333" type="line"/>
			<point x="297" y="297"/>
			<point x="358.333" y="372.333"/>
			<point x="398" y="372.333" type="curve" smooth="yes"/>
			<point x="421.667" y="372.333"/>
			<point x="433" y="364.667"/>
			<point x="433" y="336.333" type="curve" smooth="yes"/>
			<point x="433" y="323"/>
			<point x="430.333" y="307"/>
			<point x="422.667" y="275" type="curve" smooth="yes"/>
			<point x="385.333" y="115" type="line" smooth="yes"/>
			<point x="377.333" y="83"/>
			<point x="371" y="41.3333"/>
			<point x="375" y="23" type="curve"/>
			<point x="380.333" y="3.33333"/>
			<point x="391.333" y="-10"/>
			<point x="421.333" y="-10" type="curve" smooth="yes"/>
			<point x="484" y="-10"/>
			<point x="546" y="23.3333"/>
			<point x="592" y="82.3333" type="curve"/>
			<point x="589" y="91.3333"/>
			<point x="579" y="106.667"/>
			<point x="565" y="106.667" type="curve"/>
			<point x="539" y="76.6667"/>
			<point x="506.667" y="58.6667"/>
			<point x="496.667" y="58.6667" type="curve" smooth="yes"/>
			<point x="489.667" y="58.6667"/>
			<point x="486.667" y="64.3333"/>
			<point x="486.667" y="73.6667" type="curve"/>
			<point x="485.333" y="85.3333"/>
			<point x="489.667" y="104.667"/>
			<point x="494.333" y="124" type="curve" smooth="yes"/>
			<point x="532.333" y="283" type="line" smooth="yes"/>
			<point x="540.333" y="318"/>
			<point x="545.333" y="341"/>
			<point x="545.333" y="359" type="curve" smooth="yes"/>
			<point x="545.333" y="414.333"/>
			<point x="509.667" y="439"/>
			<point x="464" y="439" type="curve" smooth="yes"/>
			<point x="403.333" y="439"/>
			<point x="349.333" y="411.667"/>
			<point x="262.333" y="309.333" type="curve"/>
			<point x="260.667" y="311" type="line"/>
			<point x="261.667" y="315.333"/>
			<point x="262.667" y="320.333"/>
			<point x="263.667" y="324.667" type="curve" smooth="yes"/>
			<point x="272.667" y="361"/>
			<point x="277.667" y="398"/>
			<point x="277.667" y="413" type="curve" smooth="yes"/>
			<point x="277.667" y="427"/>
			<point name=".hr01" x="267.667" y="436"/>
			<point x="254.667" y="436" type="curve" smooth="yes"/>
			<point x="222.667" y="436"/>
			<point x="149" y="429.333"/>
			<point x="102" y="423" type="curve"/>
			<point x="95" y="415"/>
			<point x="95" y="397.333"/>
			<point x="101" y="388.333" type="curve"/>
			<point x="141" y="385.333" type="line" smooth="yes"/>
			<point x="154.333" y="384.333"/>
			<point x="159" y="370"/>
			<point x="159" y="358.667" type="curve" smooth="yes"/>
			<point x="159" y="348.667"/>
			<point x="158" y="322.333"/>
		</contour>
	</outline>
</glyph>
<glyph name="o" format="2">
  <advance width="468"/>
  <unicode hex="006F"/>
  <anchor x="333.667" y="500" name="t.uni0302"/>
  <anchor x="301" y="10" name="b.ogonek"/>
  <anchor x="222.333" y="-60" name="b.minus-60"/>
  <outline>
    <contour>
      <point x="291.667" y="392" type="line"/>
      <point x="319.334" y="392"/>
      <point x="372.334" y="360.667"/>
      <point x="372.334" y="245.667" type="curve" smooth="yes"/>
      <point x="372.334" y="141"/>
      <point x="332.334" y="37"/>
      <point x="263.001" y="37" type="curve"/>
      <point x="224.667" y="-10" type="line"/>
      <point x="368.001" y="-10"/>
      <point x="487.334" y="125.333"/>
      <point x="487.334" y="267" type="curve" smooth="yes"/>
      <point x="487.334" y="327.333"/>
      <point x="457.001" y="439"/>
      <point x="330.001" y="439" type="curve"/>
    </contour>
    <contour>
      <point x="263" y="37" type="line"/>
      <point x="235.333" y="37"/>
      <point x="182.333" y="68.333"/>
      <point x="182.333" y="183.333" type="curve" smooth="yes"/>
      <point x="182.333" y="288"/>
      <point x="222.333" y="392"/>
      <point x="291.666" y="392" type="curve"/>
      <point x="330" y="439" type="line"/>
      <point x="186.666" y="439"/>
      <point x="67.333" y="303.667"/>
      <point x="67.333" y="162" type="curve" smooth="yes"/>
      <point x="67.333" y="101.667"/>
      <point x="97.666" y="-10"/>
      <point x="224.666" y="-10" type="curve"/>
    </contour>
  </outline>
</glyph>
<glyph name="p" format="2">
  <advance width="529"/>
  <unicode hex="0070"/>
  <anchor x="386.667" y="510" name="t.uni0302"/>
  <anchor x="297.667" y="-60" name="b.minus-60"/>
  <outline>
    <contour>
      <point x="280.666" y="321" type="line" smooth="yes"/>
      <point x="291" y="368.667"/>
      <point x="295" y="385.334"/>
      <point x="305.666" y="420" type="curve"/>
      <point x="305.666" y="431"/>
      <point x="298" y="436"/>
      <point x="286.333" y="436" type="curve"/>
      <point x="243" y="422.667"/>
      <point x="165" y="413.334"/>
      <point x="119" y="410" type="curve"/>
      <point x="114.333" y="403"/>
      <point x="111.333" y="387.667"/>
      <point x="114" y="377.667" type="curve"/>
      <point x="158.666" y="374.334"/>
      <point x="179" y="363.667"/>
      <point x="179" y="345" type="curve" smooth="yes"/>
      <point x="179" y="334.667"/>
      <point x="177" y="319.667"/>
      <point x="172.666" y="301" type="curve" smooth="yes"/>
      <point x="69.333" y="-154.333" type="line" smooth="yes"/>
      <point x="63" y="-182.333"/>
      <point x="48.333" y="-194.333"/>
      <point x="16.333" y="-199.333" type="curve" smooth="yes"/>
      <point x="-2.667" y="-202.333" type="line"/>
      <point x="-7.667" y="-203.333"/>
      <point x="-12.667" y="-204.333"/>
      <point x="-12.667" y="-210.333" type="curve" smooth="yes"/>
      <point x="-12.667" y="-236" type="line"/>
      <point x="-10.667" y="-238" type="line"/>
      <point x="-10.667" y="-238"/>
      <point x="61" y="-234.333"/>
      <point x="104.333" y="-233.667" type="curve"/>
      <point x="114.614" y="-233"/>
      <point x="128.673" y="-233"/>
      <point x="134.666" y="-233" type="curve" smooth="yes"/>
      <point x="172.666" y="-233"/>
      <point x="230.666" y="-235"/>
      <point x="230.666" y="-235" type="curve"/>
      <point x="232.666" y="-233" type="line"/>
      <point x="232.666" y="-206.333" type="line" smooth="yes"/>
      <point x="232.666" y="-201.333"/>
      <point x="230.666" y="-199.333"/>
      <point x="226.666" y="-198.333" type="curve"/>
      <point x="207.666" y="-195.333" type="line" smooth="yes"/>
      <point x="194.666" y="-193.333"/>
      <point x="173.666" y="-190.333"/>
      <point x="173.666" y="-166.333" type="curve" smooth="yes"/>
      <point x="173.666" y="-163.333"/>
      <point x="173.666" y="-159.333"/>
      <point x="174.666" y="-154.333" type="curve" smooth="yes"/>
    </contour>
    <contour>
      <point x="258" y="332" type="line"/>
      <point x="296.333" y="363.667"/>
      <point x="342.666" y="389.667"/>
      <point x="381" y="389.667" type="curve" smooth="yes"/>
      <point x="431" y="389.667"/>
      <point x="440.333" y="323.667"/>
      <point x="440.333" y="273" type="curve" smooth="yes"/>
      <point x="440.333" y="203"/>
      <point x="389" y="29.667"/>
      <point x="298.333" y="29.667" type="curve" smooth="yes"/>
      <point x="268.333" y="29.667"/>
      <point x="236.333" y="48.334"/>
      <point x="214.333" y="88.334" type="curve"/>
      <point x="204.333" y="34.667" type="line"/>
      <point x="227.333" y="8"/>
      <point x="251" y="-10"/>
      <point x="287" y="-10" type="curve" smooth="yes"/>
      <point x="432.333" y="-10"/>
      <point x="553" y="152.667"/>
      <point x="553" y="289" type="curve" smooth="yes"/>
      <point x="553" y="386"/>
      <point x="514.667" y="439"/>
      <point x="426.666" y="439" type="curve" smooth="yes"/>
      <point x="379" y="439"/>
      <point x="313.333" y="412"/>
      <point x="267.666" y="373.667" type="curve"/>
    </contour>
  </outline>
</glyph>
<glyph name="q" format="2">
  <advance width="518"/>
  <unicode hex="0071"/>
  <anchor x="352.333" y="500" name="t.uni0302"/>
  <anchor x="172.333" y="-60" name="b.minus-60"/>
  <outline>
    <contour>
      <point x="69.6667" y="147" type="curve" smooth="yes"/>
      <point x="69.6667" y="72"/>
      <point x="106" y="-10"/>
      <point x="200" y="-10" type="curve" smooth="yes"/>
      <point x="249" y="-10"/>
      <point x="298" y="14"/>
      <point x="360" y="100" type="curve"/>
      <point x="363" y="99" type="line"/>
      <point x="297" y="-161" type="line" smooth="yes"/>
      <point x="289.667" y="-188.667"/>
      <point x="264.333" y="-201.667"/>
      <point x="216.333" y="-207.667" type="curve"/>
      <point x="212.333" y="-217"/>
      <point x="212.333" y="-228.333"/>
      <point x="216.333" y="-238" type="curve"/>
      <point x="223.333" y="-238"/>
      <point x="286" y="-233"/>
      <point x="322" y="-233" type="curve" smooth="yes"/>
      <point x="361" y="-233"/>
      <point x="450" y="-235"/>
      <point x="459.667" y="-235" type="curve"/>
      <point x="463.667" y="-225.667"/>
      <point x="464" y="-213.333"/>
      <point x="459.667" y="-206" type="curve"/>
      <point x="420.667" y="-206"/>
      <point x="400.333" y="-195.333"/>
      <point x="400.333" y="-173.667" type="curve" smooth="yes"/>
      <point x="400.333" y="-170.333"/>
      <point x="400.667" y="-166"/>
      <point x="401.667" y="-161" type="curve"/>
      <point x="531" y="396.333" type="line" smooth="yes"/>
      <point x="533.333" y="407.333"/>
      <point x="535.667" y="417"/>
      <point x="535.667" y="425.333" type="curve" smooth="yes"/>
      <point x="535.667" y="437.333"/>
      <point x="529" y="443.333"/>
      <point x="516.667" y="443.333" type="curve" smooth="yes"/>
      <point x="508.667" y="443.333"/>
      <point x="487.333" y="436.333"/>
      <point x="473" y="422.333" type="curve"/>
      <point x="438" y="386" type="line"/>
      <point x="414.333" y="418.667"/>
      <point x="379.667" y="439"/>
      <point x="342" y="439" type="curve" smooth="yes"/>
      <point x="204" y="439"/>
      <point x="69.6667" y="305"/>
    </contour>
    <contour>
      <point x="183.667" y="138" type="curve" smooth="yes"/>
      <point x="183.667" y="277.333"/>
      <point x="242" y="396.333"/>
      <point x="344" y="396.333" type="curve" smooth="yes"/>
      <point x="380" y="396.333"/>
      <point x="405" y="364.333"/>
      <point x="405" y="323.333" type="curve" smooth="yes"/>
      <point x="405" y="307.333"/>
      <point x="388" y="236"/>
      <point x="369" y="180" type="curve" smooth="yes"/>
      <point x="346" y="115"/>
      <point x="268.667" y="40"/>
      <point x="231.667" y="40" type="curve" smooth="yes"/>
      <point x="202.667" y="40"/>
      <point x="183.667" y="82"/>
    </contour>
  </outline>
</glyph>
<glyph name="r" format="2">
  <advance width="403"/>
  <unicode hex="0072"/>
  <outline>
    <contour>
      <point x="94.3333" y="17" type="curve" smooth="yes"/>
      <point x="94.3333" y="-5.33333"/>
      <point x="111.667" y="-10.3333"/>
      <point x="149.333" y="-10.3333" type="curve" smooth="yes"/>
      <point x="202.667" y="-10.3333"/>
      <point x="202.333" y="33.3333"/>
      <point x="212.333" y="72" type="curve" smooth="yes"/>
      <point x="247.333" y="215" type="line"/>
      <point x="295.333" y="302"/>
      <point x="332.667" y="357"/>
      <point x="359" y="357" type="curve" smooth="yes"/>
      <point x="370.333" y="357"/>
      <point x="376" y="351.333"/>
      <point x="382.667" y="343" type="curve"/>
      <point x="391" y="333.667"/>
      <point x="405.333" y="318.667" name=".hr01"/>
      <point x="421.333" y="318.667" type="curve" smooth="yes"/>
      <point x="452.333" y="318.667"/>
      <point x="472.333" y="352.667"/>
      <point x="472.333" y="384" type="curve" smooth="yes"/>
      <point x="472.333" y="416.333"/>
      <point x="446.333" y="439"/>
      <point x="413.667" y="439" type="curve" smooth="yes"/>
      <point x="367" y="439"/>
      <point x="309.667" y="393.667"/>
      <point x="265.667" y="300.667" type="curve"/>
      <point x="262.333" y="302.333" type="line"/>
      <point x="267" y="323.333" type="line" smooth="yes"/>
      <point x="275.333" y="361"/>
      <point x="279.667" y="395.333" name=".hr02"/>
      <point x="279.667" y="411.667" type="curve" smooth="yes"/>
      <point x="279.667" y="426"/>
      <point x="269.333" y="436"/>
      <point x="256.333" y="436" type="curve"/>
      <point x="222" y="429"/>
      <point x="150.667" y="423.333"/>
      <point x="105.667" y="423" type="curve"/>
      <point x="98.6667" y="415"/>
      <point x="98.6667" y="397.333"/>
      <point x="104.667" y="388.333" type="curve"/>
      <point x="144.667" y="385.333" type="line" smooth="yes"/>
      <point x="159.333" y="384.333"/>
      <point x="162.667" y="369"/>
      <point x="162.667" y="356.667" type="curve" smooth="yes" name=".hr03"/>
      <point x="162.667" y="340.667"/>
      <point x="152.333" y="280"/>
      <point x="144.667" y="242.667" type="curve" smooth="yes"/>
      <point x="107.333" y="72" type="line" smooth="yes"/>
      <point x="103" y="51.6667"/>
      <point x="94.3333" y="29" name=".hr04"/>
    </contour>
  </outline>
</glyph>
<glyph name="s" format="2">
  <advance width="396"/>
  <unicode hex="0073"/>
  <anchor x="291" y="500" name="t.uni0302"/>
  <anchor x="219.667" y="10" name="b.cedilla"/>
  <anchor x="205.333" y="-60" name="b.minus-60"/>
  <outline>
    <contour>
      <point x="63" y="76.667" type="curve" smooth="yes"/>
      <point x="63" y="27"/>
      <point x="127.666" y="-10"/>
      <point x="211.333" y="-10" type="curve" smooth="yes"/>
      <point x="312.333" y="-10"/>
      <point x="385.333" y="44.667"/>
      <point x="385.333" y="119.667" type="curve" smooth="yes"/>
      <point x="385.333" y="170.333"/>
      <point x="353.333" y="214.667"/>
      <point x="280.667" y="258" type="curve" smooth="yes"/>
      <point x="249" y="277.333" type="line" smooth="yes"/>
      <point x="221" y="294.667"/>
      <point x="205" y="318.333"/>
      <point x="205" y="343.333" type="curve" smooth="yes"/>
      <point x="205" y="375.667"/>
      <point x="230.667" y="400"/>
      <point x="264.333" y="400" type="curve" smooth="yes"/>
      <point x="332.667" y="400"/>
      <point x="302.333" y="307"/>
      <point x="364" y="307" type="curve" smooth="yes"/>
      <point x="389.667" y="307"/>
      <point x="409.667" y="327.333"/>
      <point x="409.667" y="353.333" type="curve" smooth="yes"/>
      <point x="409.667" y="398.333"/>
      <point x="349.333" y="439"/>
      <point x="283.667" y="439" type="curve" smooth="yes"/>
      <point x="187.667" y="439"/>
      <point x="122.333" y="386.667"/>
      <point x="122.333" y="311.333" type="curve" smooth="yes"/>
      <point x="122.333" y="274"/>
      <point x="151.333" y="231.667"/>
      <point x="200" y="200" type="curve" smooth="yes"/>
      <point x="226" y="183" type="line" smooth="yes"/>
      <point x="269.333" y="154.333"/>
      <point x="290" y="125"/>
      <point x="290" y="84.667" type="curve" smooth="yes"/>
      <point x="290" y="53"/>
      <point x="261" y="29"/>
      <point x="221.333" y="29" type="curve" smooth="yes"/>
      <point x="145" y="29"/>
      <point x="169" y="126.333"/>
      <point x="107" y="126.333" type="curve" smooth="yes"/>
      <point x="82.666" y="126.333"/>
      <point x="63" y="104.667"/>
    </contour>
  </outline>
</glyph>
<glyph name="u" format="2">
  <advance width="584"/>
  <unicode hex="0075"/>
  <anchor x="387.333" y="500" name="t.uni0302"/>
  <anchor x="493" y="10" name="b.ogonek"/>
  <anchor x="269" y="-60" name="b.minus-60"/>
  <outline>
    <contour>
      <point x="423.667" y="239.334" type="line"/>
      <point x="365" y="145.667"/>
      <point x="306.333" y="67.334"/>
      <point x="261" y="67.334" type="curve" smooth="yes"/>
      <point x="238.334" y="67.334"/>
      <point x="227.667" y="84.667"/>
      <point x="227.667" y="112.334" type="curve" smooth="yes"/>
      <point x="227.667" y="123.667"/>
      <point x="229.667" y="138.667"/>
      <point x="234" y="155.667" type="curve" smooth="yes"/>
      <point x="282.667" y="356.333" type="line" smooth="yes"/>
      <point x="288.333" y="378.333"/>
      <point x="291.667" y="393"/>
      <point x="291.667" y="403.333" type="curve" smooth="yes"/>
      <point x="291.667" y="427.667"/>
      <point x="274.667" y="441.667"/>
      <point x="237.334" y="441.667" type="curve" smooth="yes"/>
      <point x="177.334" y="441.667"/>
      <point x="110.333" y="406.333"/>
      <point x="64.333" y="347.333" type="curve"/>
      <point x="67.333" y="338.333"/>
      <point x="79.333" y="325"/>
      <point x="93.333" y="325" type="curve"/>
      <point x="119.333" y="355"/>
      <point x="153" y="373"/>
      <point x="163.334" y="373" type="curve" smooth="yes"/>
      <point x="170.667" y="373"/>
      <point x="173.667" y="366"/>
      <point x="173.667" y="357.667" type="curve" smooth="yes"/>
      <point x="173.667" y="348"/>
      <point x="169" y="325"/>
      <point x="164.667" y="307.667" type="curve" smooth="yes"/>
      <point x="125.667" y="150" type="line" smooth="yes"/>
      <point x="119.667" y="124.667"/>
      <point x="116" y="100.001"/>
      <point x="116" y="74.334" type="curve" smooth="yes"/>
      <point x="116" y="17"/>
      <point x="157.334" y="-7.333"/>
      <point x="205" y="-7.333" type="curve" smooth="yes"/>
      <point x="266.667" y="-7.333"/>
      <point x="329" y="42.667"/>
      <point x="412.666" y="154.667" type="curve"/>
    </contour>
    <contour>
      <point x="399" y="132.667" type="line"/>
      <point x="390.333" y="107.001"/>
      <point x="382.333" y="74.334"/>
      <point x="382.333" y="45.001" type="curve" smooth="yes"/>
      <point x="382.333" y="13.334"/>
      <point x="392.666" y="-10"/>
      <point x="430" y="-10" type="curve" smooth="yes"/>
      <point x="492.667" y="-10"/>
      <point x="549" y="23.334"/>
      <point x="595" y="82.334" type="curve"/>
      <point x="592" y="91.334"/>
      <point x="582" y="106.667"/>
      <point x="568" y="106.667" type="curve"/>
      <point x="542" y="76.667"/>
      <point x="509.667" y="58.667"/>
      <point x="499.333" y="58.667" type="curve" smooth="yes"/>
      <point x="492" y="58.667"/>
      <point x="489" y="65.667"/>
      <point x="489" y="75.334" type="curve" smooth="yes"/>
      <point x="489" y="85.334"/>
      <point x="492" y="100.001"/>
      <point x="497.333" y="124.001" type="curve" smooth="yes"/>
      <point x="550.667" y="357" type="line" smooth="yes"/>
      <point x="554.333" y="374.333"/>
      <point x="561" y="403.333"/>
      <point x="561" y="412.334" type="curve" smooth="yes"/>
      <point x="561" y="433.667"/>
      <point x="543.667" y="441.667"/>
      <point x="512.667" y="441.667" type="curve" smooth="yes"/>
      <point x="472.333" y="441.667"/>
      <point x="457.667" y="415"/>
      <point x="449.667" y="381.667" type="curve" smooth="yes"/>
      <point x="388.333" y="135.001" type="line"/>
    </contour>
  </outline>
</glyph>
<glyph name="v" format="2">
  <advance width="495"/>
  <unicode hex="0076"/>
  <anchor x="370.333" y="500" name="t.uni0302"/>
  <anchor x="271.667" y="-60" name="b.minus-60"/>
  <outline>
    <contour>
      <point x="323" y="97.333" type="line"/>
      <point x="301" y="304" type="line"/>
      <point x="300.667" y="309.666"/>
      <point x="300" y="315.333"/>
      <point x="299" y="321" type="curve"/>
      <point x="291.334" y="382.333"/>
      <point x="277.667" y="434"/>
      <point x="242.667" y="437.667" type="curve"/>
      <point x="237" y="438.667"/>
      <point x="230.334" y="438.333"/>
      <point x="223.334" y="437" type="curve" smooth="yes"/>
      <point x="183" y="429"/>
      <point x="121" y="378"/>
      <point x="80.667" y="326.333" type="curve"/>
      <point x="84.667" y="313.666"/>
      <point x="94" y="304.666"/>
      <point x="109" y="301.666" type="curve"/>
      <point x="135" y="332"/>
      <point x="162.667" y="350.333"/>
      <point x="174.334" y="350.333" type="curve" smooth="yes"/>
      <point x="181.667" y="350.333"/>
      <point x="187.334" y="339.333"/>
      <point x="194" y="296" type="curve" smooth="yes"/>
      <point x="228.667" y="56" type="line" smooth="yes"/>
      <point x="234.667" y="18"/>
      <point x="243.334" y="-12"/>
      <point x="266" y="-12" type="curve" smooth="yes"/>
      <point x="280.334" y="-12"/>
      <point x="300" y="2.666"/>
      <point x="322.334" y="22.333" type="curve" smooth="yes"/>
      <point x="360.667" y="57"/>
      <point x="403.334" y="107.666"/>
      <point x="419" y="128.666" type="curve" smooth="yes"/>
      <point x="440.667" y="157.333"/>
      <point x="487.334" y="219"/>
      <point x="515.334" y="285" type="curve" smooth="yes"/>
      <point x="530.334" y="320"/>
      <point x="542.334" y="356"/>
      <point x="542.334" y="392" type="curve" smooth="yes"/>
      <point x="542.334" y="420"/>
      <point x="522.001" y="439"/>
      <point x="485" y="439" type="curve" smooth="yes"/>
      <point x="453.334" y="439"/>
      <point x="429.667" y="429.333"/>
      <point x="429.667" y="402.667" type="curve" smooth="yes"/>
      <point x="429.667" y="397.333"/>
      <point x="431.667" y="386.666"/>
      <point x="434.667" y="382.666" type="curve"/>
      <point x="451.667" y="357"/>
      <point x="457" y="334"/>
      <point x="455.667" y="316.666" type="curve" smooth="yes"/>
      <point x="451.667" y="272"/>
      <point x="418.667" y="202"/>
      <point x="378" y="150.333" type="curve" smooth="yes"/>
      <point x="364.334" y="133.333"/>
      <point x="342.334" y="107.666"/>
      <point x="327" y="95.333" type="curve"/>
    </contour>
  </outline>
</glyph>
<glyph name="w" format="2">
  <advance width="715"/>
  <unicode hex="0077"/>
  <anchor x="468" y="500" name="t.uni0302"/>
  <anchor x="377.333" y="-60" name="b.minus-60"/>
  <outline>
    <contour>
      <point x="440.667" y="231.333" type="line"/>
      <point x="451.667" y="176.333"/>
      <point x="463" y="115.666"/>
      <point x="473" y="59.333" type="curve"/>
      <point x="473.667" y="53.333"/>
      <point x="474.667" y="47.666"/>
      <point x="476.334" y="42" type="curve"/>
      <point x="482.667" y="7.333"/>
      <point x="490.334" y="-12"/>
      <point x="508" y="-12" type="curve" smooth="yes"/>
      <point x="524" y="-12"/>
      <point x="544" y="2.666"/>
      <point x="566.667" y="25.666" type="curve" smooth="yes"/>
      <point x="601" y="60.333"/>
      <point x="636.334" y="108"/>
      <point x="651" y="128.333" type="curve" smooth="yes"/>
      <point x="672.334" y="158.333"/>
      <point x="707.333" y="219"/>
      <point x="735.333" y="285" type="curve" smooth="yes"/>
      <point x="750.333" y="320"/>
      <point x="762.334" y="356"/>
      <point x="762.334" y="392" type="curve" smooth="yes"/>
      <point x="762.334" y="416.666"/>
      <point x="746.666" y="434.333"/>
      <point x="716.333" y="437.666" type="curve"/>
      <point x="713" y="438.333"/>
      <point x="709" y="439"/>
      <point x="705" y="439" type="curve" smooth="yes"/>
      <point x="673.334" y="439"/>
      <point x="649.667" y="429.333"/>
      <point x="649.667" y="402.666" type="curve" smooth="yes"/>
      <point x="649.667" y="397.333"/>
      <point x="651.667" y="386.666"/>
      <point x="654.667" y="382.666" type="curve"/>
      <point x="669" y="360.333"/>
      <point x="675" y="340.666"/>
      <point x="675.667" y="324" type="curve"/>
      <point x="676.334" y="320"/>
      <point x="675.667" y="316.666"/>
      <point x="675.334" y="312.333" type="curve"/>
      <point x="670" y="268.333"/>
      <point x="649.334" y="202.333"/>
      <point x="617" y="153.666" type="curve" smooth="yes"/>
      <point x="603.334" y="133.333"/>
      <point x="588.667" y="115.333"/>
      <point x="573.334" y="102" type="curve"/>
      <point x="568.334" y="104" type="line"/>
      <point x="559.334" y="152"/>
      <point x="545.667" y="220.333"/>
      <point x="531.334" y="276.333" type="curve" smooth="yes"/>
      <point x="523" y="311.666"/>
      <point x="514" y="343"/>
      <point x="507" y="360.666" type="curve"/>
      <point x="490.334" y="360.666"/>
      <point x="470.667" y="356.666"/>
      <point x="446" y="346" type="curve"/>
      <point x="403.334" y="248.666"/>
      <point x="346.333" y="154.333"/>
      <point x="318.667" y="123" type="curve"/>
      <point x="315" y="124.666" type="line"/>
      <point x="297.667" y="309" type="line" smooth="yes"/>
      <point x="291.333" y="377"/>
      <point x="277" y="436.333"/>
      <point x="237.333" y="438.666" type="curve" smooth="yes"/>
      <point x="232.333" y="439"/>
      <point x="226" y="438.333"/>
      <point x="219.333" y="436.333" type="curve"/>
      <point x="179" y="428.333"/>
      <point x="117.667" y="378"/>
      <point x="78" y="326.333" type="curve"/>
      <point x="82" y="313.666"/>
      <point x="91.333" y="304.666"/>
      <point x="106.333" y="301.666" type="curve"/>
      <point x="132.333" y="332"/>
      <point x="160" y="350.333"/>
      <point x="171.667" y="350.333" type="curve" smooth="yes"/>
      <point x="179" y="350.333"/>
      <point x="186" y="340.666"/>
      <point x="191.333" y="296" type="curve" smooth="yes"/>
      <point x="219.333" y="56" type="line"/>
      <point x="224.333" y="19.333"/>
      <point x="232" y="-4.667"/>
      <point x="247" y="-10" type="curve"/>
      <point x="249.667" y="-11.334"/>
      <point x="254" y="-11.667"/>
      <point x="257.667" y="-11" type="curve"/>
      <point x="271.333" y="-9.334"/>
      <point x="289" y="4.666"/>
      <point x="307.667" y="26.333" type="curve" smooth="yes"/>
      <point x="350" y="77.333"/>
      <point x="402.334" y="164"/>
      <point x="436.667" y="231.666" type="curve"/>
    </contour>
  </outline>
</glyph>
<glyph name="x" format="2">
  <advance width="503"/>
  <unicode hex="0078"/>
  <outline>
    <contour>
      <point x="197.333" y="339.667" type="curve" smooth="yes"/>
      <point x="198.667" y="337"/>
      <point x="204.333" y="324.333"/>
      <point x="211" y="307.667" type="curve" smooth="yes"/>
      <point x="223.667" y="276.667"/>
      <point x="241" y="234.667"/>
      <point x="253" y="201" type="curve"/>
      <point x="230.667" y="164.333"/>
      <point x="201.333" y="126.333"/>
      <point x="176.333" y="91.3333" type="curve"/>
      <point x="170.333" y="83.6667"/>
      <point x="165" y="77"/>
      <point x="160.333" y="72.3333" type="curve" smooth="yes"/>
      <point x="155.333" y="67.3333"/>
      <point x="151" y="64.3333" name=".hr01"/>
      <point x="147.333" y="63.3333" type="curve"/>
      <point x="143" y="62.3333"/>
      <point x="139" y="63.3333"/>
      <point x="134.333" y="64.6667" type="curve"/>
      <point x="127" y="67.3333"/>
      <point x="117.333" y="72"/>
      <point x="108" y="76" type="curve"/>
      <point x="98.3333" y="80.6667"/>
      <point x="87" y="84" name=".hr02"/>
      <point x="74.3333" y="84" type="curve" smooth="yes"/>
      <point x="43.6667" y="84"/>
      <point x="31.6667" y="66.3333"/>
      <point x="30" y="42" type="curve" smooth="yes"/>
      <point x="29.6667" y="38.3333"/>
      <point x="29.6667" y="34.6667"/>
      <point x="30.3333" y="31.3333" type="curve"/>
      <point x="34.3333" y="6.66667"/>
      <point x="64" y="-7.33333" name=".hr03"/>
      <point x="88.3333" y="-9.33333" type="curve" name=".hr04"/>
      <point x="92" y="-10"/>
      <point x="94.6667" y="-10"/>
      <point x="98.3333" y="-10" type="curve"/>
      <point x="141" y="-9" name=".hr05"/>
      <point x="159.333" y="2.66667"/>
      <point x="209.667" y="63.3333" type="curve"/>
      <point x="226" y="84.3333"/>
      <point x="249.333" y="116.333"/>
      <point x="269" y="145.333" type="curve"/>
      <point x="291.333" y="76.3333" type="line" smooth="yes"/>
      <point x="295" y="64.6667" name=".hr06"/>
      <point x="298.667" y="53.3333"/>
      <point x="303" y="42.6667" type="curve" smooth="yes"/>
      <point x="316" y="10.3333"/>
      <point x="329.667" y="-8.66667" name=".hr07"/>
      <point x="358.667" y="-9.66667" type="curve"/>
      <point x="362" y="-10"/>
      <point x="364.667" y="-10"/>
      <point x="368" y="-10" type="curve"/>
      <point x="406.333" y="-9.33333"/>
      <point x="449.667" y="5.66667"/>
      <point x="498" y="65" type="curve" name=".hr08"/>
      <point x="491.333" y="74"/>
      <point x="483" y="82"/>
      <point x="474" y="88.6667" type="curve"/>
      <point x="449.333" y="61.6667"/>
      <point x="435" y="57" name=".hr09"/>
      <point x="421.333" y="57" type="curve" smooth="yes"/>
      <point x="413" y="57"/>
      <point x="406" y="66.6667"/>
      <point x="398.667" y="85.3333" type="curve" smooth="yes"/>
      <point x="339.333" y="235" type="line"/>
      <point x="414.667" y="340.333" type="line" smooth="yes"/>
      <point x="424.667" y="354.333"/>
      <point x="435.333" y="358.333"/>
      <point x="441" y="359.667" type="curve" smooth="yes"/>
      <point x="446.667" y="361"/>
      <point x="458" y="358.667"/>
      <point x="464.333" y="355.333" type="curve" name=".hr10"/>
      <point x="471" y="352.667"/>
      <point x="482" y="349"/>
      <point x="491.667" y="344.667" type="curve"/>
      <point x="497.667" y="342.333" name=".hr11"/>
      <point x="504" y="341"/>
      <point x="510" y="340.333" type="curve" smooth="yes"/>
      <point x="517" y="339.667"/>
      <point x="523" y="340.667"/>
      <point x="528" y="342.667" type="curve"/>
      <point x="543.333" y="349.333"/>
      <point x="555.333" y="368.667"/>
      <point x="557" y="389.333" type="curve" smooth="yes"/>
      <point x="557.333" y="393"/>
      <point x="557.333" y="396.333"/>
      <point x="556.667" y="399.667" type="curve" smooth="yes"/>
      <point x="552.667" y="422.667"/>
      <point x="527" y="436.333" name=".hr12"/>
      <point x="502" y="437.667" type="curve" name=".hr13"/>
      <point x="498.333" y="438.333"/>
      <point x="495.333" y="438.333"/>
      <point x="491.667" y="438.333" type="curve"/>
      <point x="438.667" y="437.667"/>
      <point x="405.333" y="406.667"/>
      <point x="367.333" y="352.333" type="curve" smooth="yes"/>
      <point x="362.667" y="345.667"/>
      <point x="358.667" y="339.667"/>
      <point x="354" y="333" type="curve" smooth="yes"/>
      <point x="349.667" y="327"/>
      <point x="335" y="306.333"/>
      <point x="325.333" y="292.333" type="curve"/>
      <point x="298.667" y="370.333" type="line" smooth="yes"/>
      <point x="282.333" y="416"/>
      <point x="274.667" y="433.333"/>
      <point x="254" y="436.667" type="curve" name=".hr14"/>
      <point x="248" y="438.333" name=".hr15"/>
      <point x="240.333" y="438.333"/>
      <point x="231.667" y="436.333" type="curve" name=".hr16"/>
      <point x="195.333" y="429"/>
      <point x="125.333" y="392.667"/>
      <point x="93.6667" y="372.667" type="curve"/>
      <point x="94.6667" y="361.667"/>
      <point x="101.333" y="344.333"/>
      <point x="109.333" y="336.333" type="curve"/>
      <point x="120.667" y="342" name=".hr17"/>
      <point x="144.667" y="353.667" name=".hr18"/>
      <point x="165.333" y="354.667" type="curve"/>
      <point x="168.667" y="355"/>
      <point x="171.667" y="355"/>
      <point x="174.667" y="354.333" type="curve"/>
      <point x="185" y="353"/>
      <point x="193" y="348"/>
    </contour>
  </outline>
</glyph>
<glyph name="z" format="2">
  <advance width="450"/>
  <unicode hex="007A"/>
  <anchor x="318.667" y="500" name="t.uni0302"/>
  <anchor x="207.667" y="-60" name="b.minus-60"/>
  <outline>
    <contour>
      <point x="43.333" y="7.667" type="curve"/>
      <point x="49" y="-2.667"/>
      <point x="66.333" y="-9.333"/>
      <point x="83.666" y="-12" type="curve"/>
      <point x="107" y="20.334"/>
      <point x="124.666" y="33.667"/>
      <point x="134.666" y="33.667" type="curve" smooth="yes"/>
      <point x="147" y="33.667"/>
      <point x="174" y="29.667"/>
      <point x="208" y="12.334" type="curve" smooth="yes"/>
      <point x="233.666" y="-0.667"/>
      <point x="271.333" y="-10"/>
      <point x="303.333" y="-10" type="curve" smooth="yes"/>
      <point x="354.333" y="-10"/>
      <point x="411.999" y="19"/>
      <point x="461.666" y="126.333" type="curve"/>
      <point x="457.666" y="135.333"/>
      <point x="447.999" y="145.667"/>
      <point x="432.666" y="145.667" type="curve"/>
      <point x="394.999" y="86.667"/>
      <point x="367.333" y="81.667"/>
      <point x="346.999" y="81.667" type="curve" smooth="yes"/>
      <point x="325.333" y="81.667"/>
      <point x="250" y="114"/>
      <point x="208.666" y="114" type="curve"/>
      <point x="485.666" y="424.334" type="line"/>
      <point x="478.666" y="434"/>
      <point x="463.999" y="445.333"/>
      <point x="451.333" y="448" type="curve"/>
      <point x="436.333" y="429.333"/>
      <point x="416.666" y="412.667"/>
      <point x="398.666" y="412.667" type="curve" smooth="yes"/>
      <point x="342.333" y="412.667"/>
      <point x="282.666" y="439"/>
      <point x="221.666" y="439" type="curve" smooth="yes"/>
      <point x="179.333" y="439"/>
      <point x="115.666" y="360.666"/>
      <point x="96.666" y="302.333" type="curve"/>
      <point x="103" y="294.666"/>
      <point x="113.333" y="292.333"/>
      <point x="126.333" y="292.333" type="curve"/>
      <point x="141.333" y="325.667"/>
      <point x="182.333" y="348.333"/>
      <point x="217" y="348.333" type="curve" smooth="yes"/>
      <point x="264.666" y="348.333"/>
      <point x="281.333" y="336"/>
      <point x="310.999" y="336" type="curve" smooth="yes"/>
      <point x="325.666" y="336"/>
      <point x="333.666" y="337.333"/>
      <point x="346.999" y="338" type="curve"/>
      <point x="116.666" y="94.334" type="line" smooth="yes"/>
      <point x="93.666" y="70"/>
      <point x="47.333" y="18.334"/>
    </contour>
  </outline>
</glyph>
<glyph name="braceleft" format="2">
  <advance width="296"/>
  <unicode hex="007B"/>
  <outline>
    <contour>
      <point x="307.666" y="557" type="line" smooth="yes"/>
      <point x="315.666" y="601.334"/>
      <point x="327.666" y="630.667"/>
      <point x="343" y="648.667" type="curve" smooth="yes"/>
      <point x="362.333" y="672"/>
      <point x="384.666" y="681.667"/>
      <point x="405.666" y="687.667" type="curve"/>
      <point x="410.666" y="693.334"/>
      <point x="413" y="702.667"/>
      <point x="410" y="708.334" type="curve"/>
      <point x="360.333" y="708.001"/>
      <point x="311.333" y="695.334"/>
      <point x="277" y="666.334" type="curve" smooth="yes"/>
      <point x="249.333" y="642"/>
      <point x="228.666" y="605.667"/>
      <point x="219.666" y="555.667" type="curve" smooth="yes"/>
      <point x="186.666" y="376.334" type="line" smooth="yes"/>
      <point x="185.666" y="370.334"/>
      <point x="184" y="364.667"/>
      <point x="183" y="358.667" type="curve"/>
      <point x="170.666" y="312.667"/>
      <point x="142" y="267.667"/>
      <point x="80.333" y="258.334" type="curve"/>
      <point x="73" y="251.667"/>
      <point x="71.333" y="241.333"/>
      <point x="75.333" y="235.333" type="curve"/>
      <point x="116" y="228"/>
      <point x="134.666" y="207.333"/>
      <point x="139.333" y="176" type="curve" smooth="yes"/>
      <point x="142" y="160.333"/>
      <point x="140.666" y="142"/>
      <point x="135.666" y="121" type="curve" smooth="yes"/>
      <point x="98" y="-50.667" type="line" smooth="yes"/>
      <point x="91.333" y="-79.667"/>
      <point x="89" y="-103.667"/>
      <point x="91" y="-123.667" type="curve" smooth="yes"/>
      <point x="92.333" y="-141.333"/>
      <point x="96.333" y="-155.667"/>
      <point x="103" y="-167" type="curve"/>
      <point x="122" y="-201.333"/>
      <point x="168.666" y="-213.334"/>
      <point x="225.333" y="-213.667" type="curve"/>
      <point x="230.333" y="-208"/>
      <point x="232.333" y="-198.667"/>
      <point x="229.333" y="-193" type="curve"/>
      <point x="213" y="-192"/>
      <point x="195" y="-182.667"/>
      <point x="184.333" y="-156" type="curve" smooth="yes"/>
      <point x="180" y="-144.667"/>
      <point x="177.333" y="-130.667"/>
      <point x="177.333" y="-114" type="curve" smooth="yes"/>
      <point x="177.333" y="-98.333"/>
      <point x="180" y="-79.667"/>
      <point x="184.333" y="-59" type="curve" smooth="yes"/>
      <point x="220.666" y="95" type="line" smooth="yes"/>
      <point x="228.333" y="128.333"/>
      <point x="229.333" y="155.333"/>
      <point x="223.333" y="176.333" type="curve"/>
      <point x="216" y="208.333"/>
      <point x="195.666" y="229.333"/>
      <point x="162.333" y="245.667" type="curve"/>
      <point x="163" y="248.334" type="line"/>
      <point x="220.666" y="266.667"/>
      <point x="257.666" y="292.334"/>
      <point x="275.666" y="369.334" type="curve" smooth="yes"/>
      <point x="277.333" y="376.667"/>
      <point x="279" y="384"/>
      <point x="280" y="392" type="curve"/>
    </contour>
  </outline>
</glyph>
<glyph name="bar" format="2">
  <advance width="250"/>
  <unicode hex="007C"/>
  <outline>
    <contour>
      <point x="207.914" y="-233.333" type="curve"/>
      <point x="207.956" y="813.333" type="line"/>
      <point x="191.851" y="819.333"/>
      <point x="173.945" y="819.333"/>
      <point x="155.289" y="813.333" type="curve"/>
      <point x="155.248" y="-233.333" type="line"/>
      <point x="171.352" y="-239.333"/>
      <point x="189.259" y="-239.333"/>
    </contour>
  </outline>
  <guideline angle="258" x="87" y="652"/>
  <guideline angle="78" x="173" y="720"/>
  <guideline angle="0" x="0" y="-240"/>
  <guideline angle="0" x="0" y="720"/>
  <guideline angle="90" x="129" y="0"/>
  <guideline angle="90" x="173" y="0"/>
</glyph>
